<svg width="161" height="46" viewBox="0 0 161 46" fill="none" xmlns="http://www.w3.org/2000/svg">
<g clip-path="url(#clip0_3313_18573)">
<g clip-path="url(#clip1_3313_18573)">
<path fill-rule="evenodd" clip-rule="evenodd" d="M56 25.4939V27.7386C56.2595 28.3507 55.8582 32.0928 59.168 37.2507C59.4614 37.708 60.1877 38.6861 60.5495 39.06C60.6861 39.2011 60.7827 39.3377 60.9166 39.491C61.3783 40.0194 62.437 40.9363 62.9734 41.3672C63.7946 42.0269 64.9018 42.7151 65.8699 43.201C69.1012 44.8226 72.3436 45.3697 76.4209 45.1706C83.5142 44.8242 89.2998 42.2703 94.0128 37.547C94.0399 37.5198 94.9415 36.6338 94.4087 36.8379C94.3423 36.8633 94.0201 37.0889 93.9185 37.1518C93.0221 37.707 92.3869 38.0743 91.4065 38.5728C90.0045 39.2857 88.4999 39.9025 86.9389 40.4242C83.6447 41.525 79.7231 42.1621 75.9718 42.0842C72.0205 42.0022 68.9122 41.1333 66.1695 39.3026C63.8625 37.7627 61.7175 35.4394 60.4593 32.3576C56.3549 22.304 63.6291 11.0833 74.8292 11.0688C78.6817 11.0638 81.8614 12.5982 84.1641 14.3712L85.824 15.8981C87.4403 17.731 88.4771 19.2872 89.2993 21.8446C90.4644 25.4685 90.5495 29.4606 88.2493 31.902C87.2414 32.9717 85.8084 33.7822 83.6749 33.543C82.4108 33.4013 81.2743 32.8748 80.4618 32.0273C80.0423 31.5896 80.1006 31.627 79.779 31.1688C79.2934 31.7146 79.6273 31.3957 79.0262 31.9713C76.9019 34.0052 73.4068 34.4917 70.8299 33.1722C70.1045 32.8008 69.452 32.4039 68.9681 31.8957C68.6995 31.6138 68.4793 31.4208 68.2201 31.0979C64.4876 26.4488 67.3041 19.7639 72.8104 18.8277C73.5908 18.695 78.0983 18.6444 78.8585 18.7541C79.7398 18.8812 80.4756 19.397 80.832 19.8681C81.3926 20.609 81.5619 21.0858 81.5608 22.2568C81.5598 23.3057 81.5608 24.3546 81.5608 25.4034C81.5608 27.0985 81.3313 29.2621 83.0599 30.1153C83.8291 30.495 84.8354 30.5205 85.5626 30.0995C88.1396 28.6075 86.9224 23.0398 85.5592 20.7103C84.6889 19.2231 83.9064 18.2221 82.7775 17.2613C82.2133 16.7811 81.6743 16.3522 80.9621 15.9415C80.2983 15.5586 79.6457 15.2566 78.8636 14.9559C75.5334 13.6757 71.508 14.2234 68.7323 15.8278C66.3001 17.2338 64.1495 19.5039 63.1044 22.6565C60.857 29.4355 64.7365 35.9812 71.1975 38.194C74.3415 39.2708 78.9865 39.0713 82.3309 38.4357C85.6576 37.8034 88.8161 36.5508 91.3662 35.0366C92.7891 34.1915 95.1389 32.5729 96.3203 31.4247C96.4811 31.2684 96.5456 31.1973 96.7023 31.0608L99.683 27.8139C100.118 27.2891 100.607 26.6091 100.983 26.0233C101.819 24.7231 102.516 23.5647 103.222 22.0306C104.246 19.8087 105.008 17.34 105.381 14.8617C105.453 14.3867 105.605 12.2385 105.681 12.0523V9.31424C105.502 8.78726 105.741 6.0516 104.136 2.0349C103.933 1.52745 103.683 1.00566 103.439 0.538951C103.312 0.29665 103.244 -0.0473041 102.917 0.00480487C102.661 0.0456644 102.573 0.391251 102.445 0.623759C101.413 2.50009 100.239 4.25979 98.8067 5.75608C97.3902 7.23606 95.4635 8.43013 93.5451 9.25688C93.0984 9.44935 90.6265 10.4117 90.271 10.2852C89.998 10.0719 90.3674 9.69392 90.5093 9.45069C90.6744 9.1677 90.8091 8.90267 90.9659 8.61042C91.7028 7.2374 92.9063 3.67202 92.7022 2.43755C92.4105 2.24403 92.3143 2.3922 92.1364 2.59638C91.2533 3.60942 89.6592 4.83135 88.4832 5.51629C81.3109 9.69381 75.8613 6.4641 69.0786 8.58366C65.0109 9.85485 62.1184 12.1924 60.1594 14.6514C58.0549 17.2931 56.6727 20.3726 56.1784 23.8378C56.1334 24.1537 56.0652 25.3098 56 25.4937L56 25.4939Z" fill="white"/>
<path fill-rule="evenodd" clip-rule="evenodd" d="M73.5718 21.7796C71.2222 22.0437 69.2542 24.1372 69.5682 26.8483C69.9376 30.0389 73.3983 31.8129 76.2787 30.2574C76.7255 30.0162 77.259 29.5621 77.5287 29.2166C78.8424 27.5336 78.5807 25.8719 78.5807 23.5059C78.5807 22.0564 78.7492 21.7532 78.0613 21.7554C77.2358 21.7581 74.1134 21.7188 73.5719 21.7797L73.5718 21.7796Z" fill="white"/>
</g>
</g>
<defs>
<clipPath id="clip0_3313_18573">
<rect width="161" height="45.21" fill="white"/>
</clipPath>
<clipPath id="clip1_3313_18573">
<rect width="49.6813" height="45.21" fill="white" transform="translate(56)"/>
</clipPath>
</defs>
</svg>
