<svg width="285" height="220" viewBox="0 0 285 220" fill="none" xmlns="http://www.w3.org/2000/svg">
<rect y="0.373047" width="284.905" height="219.157" rx="10.6044" fill="#006980"/>
<path d="M144.081 33.705C142.968 32.6097 141.177 32.6242 140.082 33.7375L122.233 51.8795C121.137 52.9928 121.152 54.7832 122.265 55.8785C123.378 56.9738 125.169 56.9593 126.264 55.846L142.13 39.7198L158.256 55.5859C159.37 56.6812 161.16 56.6667 162.255 55.5534C163.351 54.4401 163.336 52.6497 162.223 51.5544L144.081 33.705ZM145.632 122.654L144.925 35.6978L139.27 35.7438L139.977 122.7L145.632 122.654Z" fill="white"/>
<path d="M111.159 150.644L113.712 143.233H114.715L117.268 150.644H116.481L114.057 143.655H114.355L111.946 150.644H111.159ZM112.296 148.848V148.138H116.126V148.848H112.296ZM122.229 150.644V143.959H119.641V143.233H125.575V143.959H122.986V150.644H122.229ZM130.414 150.644V147.808C130.414 147.499 130.385 147.216 130.327 146.959C130.269 146.698 130.174 146.472 130.044 146.28C129.917 146.084 129.75 145.933 129.545 145.827C129.342 145.72 129.095 145.667 128.803 145.667C128.536 145.667 128.299 145.714 128.093 145.806C127.891 145.899 127.719 146.033 127.579 146.208C127.441 146.379 127.337 146.588 127.265 146.836C127.193 147.083 127.157 147.364 127.157 147.68L126.621 147.561C126.621 146.992 126.721 146.513 126.92 146.125C127.119 145.738 127.393 145.444 127.743 145.245C128.093 145.046 128.495 144.947 128.948 144.947C129.28 144.947 129.57 144.998 129.817 145.101C130.068 145.204 130.279 145.343 130.45 145.518C130.625 145.693 130.766 145.894 130.872 146.12C130.979 146.343 131.056 146.582 131.104 146.836C131.152 147.086 131.176 147.336 131.176 147.587V150.644H130.414ZM126.395 150.644V143.233H127.079V147.417H127.157V150.644H126.395ZM134.833 150.798C134.28 150.798 133.809 150.673 133.417 150.423C133.026 150.172 132.726 149.826 132.517 149.383C132.307 148.94 132.203 148.433 132.203 147.86C132.203 147.276 132.309 146.765 132.522 146.326C132.735 145.887 133.037 145.545 133.428 145.302C133.822 145.055 134.291 144.931 134.833 144.931C135.389 144.931 135.862 145.056 136.253 145.307C136.648 145.554 136.948 145.899 137.154 146.341C137.363 146.781 137.468 147.287 137.468 147.86C137.468 148.443 137.363 148.956 137.154 149.399C136.945 149.838 136.643 150.181 136.248 150.428C135.854 150.675 135.382 150.798 134.833 150.798ZM134.833 150.073C135.45 150.073 135.91 149.869 136.212 149.46C136.514 149.049 136.665 148.515 136.665 147.86C136.665 147.187 136.512 146.652 136.207 146.254C135.905 145.856 135.447 145.657 134.833 145.657C134.418 145.657 134.074 145.751 133.803 145.94C133.536 146.125 133.335 146.384 133.201 146.717C133.071 147.047 133.006 147.427 133.006 147.86C133.006 148.529 133.16 149.066 133.469 149.471C133.778 149.872 134.232 150.073 134.833 150.073ZM140.729 150.783C140.396 150.783 140.104 150.732 139.854 150.629C139.607 150.526 139.396 150.387 139.221 150.212C139.049 150.037 138.91 149.838 138.804 149.615C138.698 149.388 138.62 149.15 138.572 148.899C138.524 148.645 138.5 148.393 138.5 148.143V145.086H139.262V147.921C139.262 148.227 139.291 148.51 139.349 148.771C139.408 149.031 139.5 149.26 139.627 149.455C139.758 149.647 139.924 149.797 140.127 149.903C140.332 150.009 140.581 150.062 140.873 150.062C141.14 150.062 141.376 150.016 141.578 149.924C141.784 149.831 141.955 149.699 142.093 149.527C142.233 149.352 142.34 149.141 142.412 148.894C142.484 148.644 142.52 148.362 142.52 148.05L143.055 148.168C143.055 148.738 142.956 149.217 142.757 149.604C142.558 149.992 142.283 150.285 141.933 150.484C141.583 150.684 141.182 150.783 140.729 150.783ZM142.597 150.644V149.275H142.52V145.086H143.276V150.644H142.597ZM146.789 150.793C146.137 150.793 145.6 150.653 145.178 150.371C144.759 150.09 144.502 149.699 144.406 149.198L145.178 149.069C145.26 149.385 145.447 149.637 145.739 149.826C146.034 150.011 146.398 150.104 146.83 150.104C147.252 150.104 147.585 150.016 147.829 149.841C148.072 149.663 148.194 149.421 148.194 149.115C148.194 148.944 148.155 148.805 148.076 148.699C148 148.589 147.844 148.488 147.607 148.395C147.371 148.302 147.017 148.193 146.547 148.066C146.043 147.928 145.648 147.791 145.363 147.654C145.079 147.517 144.876 147.359 144.756 147.18C144.636 146.998 144.576 146.777 144.576 146.516C144.576 146.201 144.665 145.925 144.843 145.688C145.022 145.448 145.269 145.262 145.585 145.132C145.9 144.998 146.267 144.931 146.686 144.931C147.105 144.931 147.479 145 147.808 145.137C148.141 145.271 148.408 145.46 148.611 145.703C148.813 145.947 148.933 146.23 148.971 146.552L148.199 146.691C148.148 146.365 147.985 146.108 147.71 145.919C147.439 145.727 147.094 145.628 146.676 145.621C146.281 145.611 145.96 145.686 145.713 145.847C145.466 146.005 145.343 146.216 145.343 146.48C145.343 146.628 145.387 146.755 145.477 146.861C145.566 146.964 145.727 147.062 145.96 147.155C146.197 147.247 146.533 147.348 146.969 147.458C147.48 147.589 147.882 147.726 148.173 147.87C148.465 148.014 148.673 148.184 148.796 148.38C148.92 148.575 148.981 148.817 148.981 149.105C148.981 149.63 148.786 150.044 148.395 150.346C148.007 150.644 147.472 150.793 146.789 150.793ZM151.713 150.798C151.295 150.798 150.943 150.723 150.658 150.572C150.377 150.421 150.166 150.22 150.025 149.97C149.884 149.719 149.814 149.447 149.814 149.152C149.814 148.85 149.874 148.592 149.994 148.38C150.118 148.163 150.284 147.987 150.493 147.849C150.706 147.712 150.951 147.608 151.229 147.535C151.511 147.467 151.821 147.407 152.161 147.355C152.504 147.3 152.839 147.254 153.165 147.216C153.494 147.175 153.782 147.136 154.029 147.098L153.762 147.263C153.772 146.714 153.665 146.307 153.442 146.043C153.219 145.779 152.832 145.647 152.279 145.647C151.898 145.647 151.576 145.732 151.312 145.904C151.051 146.076 150.867 146.347 150.761 146.717L150.025 146.501C150.152 146.003 150.408 145.617 150.792 145.343C151.176 145.068 151.675 144.931 152.29 144.931C152.797 144.931 153.228 145.027 153.581 145.219C153.938 145.408 154.19 145.683 154.338 146.043C154.407 146.204 154.451 146.384 154.472 146.583C154.492 146.782 154.503 146.985 154.503 147.191V150.644H153.828V149.249L154.024 149.332C153.835 149.809 153.542 150.172 153.144 150.423C152.746 150.673 152.269 150.798 151.713 150.798ZM151.801 150.145C152.154 150.145 152.463 150.081 152.727 149.954C152.991 149.827 153.204 149.654 153.365 149.435C153.527 149.212 153.631 148.961 153.679 148.683C153.72 148.505 153.743 148.309 153.746 148.096C153.75 147.88 153.751 147.719 153.751 147.613L154.039 147.762C153.782 147.796 153.502 147.831 153.201 147.865C152.902 147.899 152.607 147.939 152.315 147.983C152.027 148.028 151.766 148.081 151.533 148.143C151.375 148.187 151.223 148.251 151.075 148.333C150.927 148.412 150.806 148.518 150.71 148.652C150.617 148.786 150.571 148.953 150.571 149.152C150.571 149.313 150.61 149.469 150.689 149.62C150.771 149.771 150.902 149.896 151.08 149.996C151.262 150.095 151.502 150.145 151.801 150.145ZM159.857 150.644V147.808C159.857 147.499 159.828 147.216 159.769 146.959C159.711 146.698 159.617 146.472 159.486 146.28C159.359 146.084 159.193 145.933 158.987 145.827C158.785 145.72 158.538 145.667 158.246 145.667C157.978 145.667 157.742 145.714 157.536 145.806C157.333 145.899 157.162 146.033 157.021 146.208C156.884 146.379 156.779 146.588 156.707 146.836C156.635 147.083 156.599 147.364 156.599 147.68L156.064 147.561C156.064 146.992 156.163 146.513 156.362 146.125C156.561 145.738 156.836 145.444 157.186 145.245C157.536 145.046 157.937 144.947 158.39 144.947C158.723 144.947 159.013 144.998 159.26 145.101C159.51 145.204 159.721 145.343 159.893 145.518C160.068 145.693 160.209 145.894 160.315 146.12C160.421 146.343 160.498 146.582 160.547 146.836C160.595 147.086 160.619 147.336 160.619 147.587V150.644H159.857ZM155.837 150.644V145.086H156.522V146.455H156.599V150.644H155.837ZM164.08 150.798C163.562 150.798 163.12 150.67 162.753 150.412C162.385 150.152 162.104 149.8 161.909 149.357C161.713 148.915 161.615 148.416 161.615 147.86C161.615 147.307 161.711 146.81 161.903 146.367C162.099 145.925 162.379 145.575 162.742 145.317C163.106 145.06 163.542 144.931 164.05 144.931C164.571 144.931 165.01 145.058 165.367 145.312C165.724 145.566 165.993 145.914 166.175 146.357C166.36 146.796 166.453 147.297 166.453 147.86C166.453 148.412 166.362 148.911 166.18 149.357C165.998 149.8 165.731 150.152 165.377 150.412C165.024 150.67 164.592 150.798 164.08 150.798ZM164.158 150.093C164.552 150.093 164.878 149.997 165.135 149.805C165.393 149.613 165.585 149.349 165.712 149.013C165.839 148.673 165.902 148.289 165.902 147.86C165.902 147.424 165.839 147.04 165.712 146.707C165.585 146.371 165.393 146.108 165.135 145.919C164.882 145.731 164.561 145.636 164.173 145.636C163.775 145.636 163.446 145.734 163.185 145.93C162.924 146.125 162.73 146.391 162.603 146.727C162.48 147.064 162.418 147.441 162.418 147.86C162.418 148.282 162.482 148.663 162.608 149.002C162.739 149.339 162.933 149.604 163.19 149.8C163.447 149.996 163.77 150.093 164.158 150.093ZM165.902 150.644V146.46H165.82V143.233H166.582V150.644H165.902ZM169.95 149.29V147.263H167.923V146.614H169.95V144.586H170.599V146.614H172.622V147.263H170.599V149.29H169.95Z" fill="white"/>
<path d="M74.2825 176.3L78.3669 164.442H79.9727L84.0571 176.3H82.7972L78.9186 165.117H79.3962L75.5424 176.3H74.2825ZM76.1024 173.426V172.29H82.229V173.426H76.1024ZM89.2332 176.547C88.3383 176.547 87.5808 176.346 86.9604 175.946C86.3401 175.545 85.8679 174.993 85.5441 174.291C85.2256 173.582 85.061 172.77 85.05 171.853C85.061 170.92 85.2311 170.102 85.5605 169.399C85.8899 168.691 86.3648 168.142 86.9851 167.752C87.6055 167.357 88.3576 167.159 89.2414 167.159C90.1417 167.159 90.924 167.379 91.5883 167.818C92.258 168.257 92.7164 168.858 92.9635 169.621L91.7777 170C91.5691 169.468 91.2369 169.056 90.7813 168.765C90.3311 168.469 89.8151 168.32 89.2332 168.32C88.5799 168.32 88.0392 168.471 87.611 168.773C87.1828 169.07 86.8643 169.484 86.6557 170.017C86.4471 170.549 86.3401 171.161 86.3346 171.853C86.3456 172.918 86.5926 173.775 87.0757 174.422C87.5588 175.065 88.278 175.386 89.2332 175.386C89.8371 175.386 90.3503 175.249 90.7731 174.974C91.2013 174.694 91.5252 174.288 91.7448 173.755L92.9635 174.118C92.6341 174.908 92.151 175.512 91.5142 175.929C90.8774 176.341 90.117 176.547 89.2332 176.547ZM99.5053 176.3C99.0057 176.404 98.5116 176.445 98.023 176.423C97.5399 176.401 97.1062 176.297 96.722 176.11C96.3432 175.924 96.055 175.633 95.8573 175.238C95.6981 174.908 95.6103 174.576 95.5938 174.241C95.5828 173.901 95.5773 173.514 95.5773 173.08V164.936H96.7796V173.031C96.7796 173.404 96.7823 173.717 96.7878 173.969C96.7988 174.216 96.8565 174.436 96.9608 174.628C97.1584 174.996 97.4713 175.216 97.8995 175.287C98.3332 175.358 98.8685 175.342 99.5053 175.238V176.3ZM93.6751 168.444V167.406H99.5053V168.444H93.6751ZM101.422 165.718V164.36H102.633V165.718H101.422ZM101.422 176.3V167.406H102.633V176.3H101.422ZM107.506 176.3L104.278 167.406H105.505L108.132 174.719L110.742 167.406H111.986L108.758 176.3H107.506ZM116.906 176.547C116.039 176.547 115.287 176.355 114.65 175.97C114.019 175.586 113.527 175.045 113.176 174.348C112.825 173.651 112.649 172.833 112.649 171.894C112.649 170.923 112.822 170.083 113.168 169.374C113.514 168.666 113.999 168.12 114.625 167.736C115.257 167.351 116 167.159 116.857 167.159C117.735 167.159 118.485 167.362 119.105 167.769C119.725 168.169 120.195 168.746 120.513 169.498C120.831 170.25 120.977 171.148 120.949 172.191H119.714V171.763C119.692 170.61 119.443 169.74 118.965 169.152C118.493 168.565 117.801 168.271 116.89 168.271C115.935 168.271 115.202 168.581 114.691 169.202C114.186 169.822 113.934 170.706 113.934 171.853C113.934 172.973 114.186 173.843 114.691 174.463C115.202 175.078 115.924 175.386 116.857 175.386C117.494 175.386 118.048 175.24 118.52 174.949C118.998 174.653 119.374 174.227 119.648 173.673L120.777 174.109C120.425 174.883 119.906 175.485 119.22 175.913C118.539 176.335 117.768 176.547 116.906 176.547ZM113.505 172.191V171.178H120.299V172.191H113.505ZM126.074 176.3V164.442H129.673C129.799 164.442 130.013 164.445 130.315 164.45C130.622 164.456 130.916 164.478 131.196 164.516C132.096 164.642 132.848 164.977 133.452 165.521C134.056 166.064 134.509 166.756 134.811 167.596C135.113 168.436 135.264 169.361 135.264 170.371C135.264 171.381 135.113 172.306 134.811 173.146C134.509 173.986 134.056 174.678 133.452 175.221C132.848 175.765 132.096 176.099 131.196 176.226C130.921 176.259 130.628 176.281 130.315 176.292C130.002 176.297 129.788 176.3 129.673 176.3H126.074ZM127.326 175.139H129.673C129.898 175.139 130.139 175.133 130.397 175.122C130.661 175.106 130.886 175.078 131.072 175.04C131.764 174.919 132.321 174.639 132.744 174.2C133.172 173.761 133.485 173.212 133.683 172.553C133.88 171.889 133.979 171.161 133.979 170.371C133.979 169.575 133.88 168.845 133.683 168.18C133.485 167.516 133.172 166.967 132.744 166.533C132.316 166.1 131.759 165.823 131.072 165.702C130.886 165.663 130.658 165.639 130.389 165.628C130.125 165.611 129.887 165.603 129.673 165.603H127.326V175.139ZM140.903 176.547C140.035 176.547 139.283 176.355 138.646 175.97C138.015 175.586 137.524 175.045 137.172 174.348C136.821 173.651 136.645 172.833 136.645 171.894C136.645 170.923 136.818 170.083 137.164 169.374C137.51 168.666 137.996 168.12 138.622 167.736C139.253 167.351 139.997 167.159 140.853 167.159C141.732 167.159 142.481 167.362 143.101 167.769C143.722 168.169 144.191 168.746 144.509 169.498C144.828 170.25 144.973 171.148 144.946 172.191H143.711V171.763C143.689 170.61 143.439 169.74 142.961 169.152C142.489 168.565 141.797 168.271 140.886 168.271C139.931 168.271 139.198 168.581 138.687 169.202C138.182 169.822 137.93 170.706 137.93 171.853C137.93 172.973 138.182 173.843 138.687 174.463C139.198 175.078 139.92 175.386 140.853 175.386C141.49 175.386 142.044 175.24 142.517 174.949C142.994 174.653 143.37 174.227 143.645 173.673L144.773 174.109C144.422 174.883 143.903 175.485 143.217 175.913C142.536 176.335 141.764 176.547 140.903 176.547ZM137.502 172.191V171.178H144.295V172.191H137.502ZM148.856 176.3L145.628 167.406H146.855L149.482 174.719L152.092 167.406H153.336L150.108 176.3H148.856ZM158.256 176.547C157.389 176.547 156.637 176.355 156 175.97C155.369 175.586 154.878 175.045 154.526 174.348C154.175 173.651 153.999 172.833 153.999 171.894C153.999 170.923 154.172 170.083 154.518 169.374C154.864 168.666 155.35 168.12 155.975 167.736C156.607 167.351 157.351 167.159 158.207 167.159C159.085 167.159 159.835 167.362 160.455 167.769C161.075 168.169 161.545 168.746 161.863 169.498C162.182 170.25 162.327 171.148 162.3 172.191H161.065V171.763C161.043 170.61 160.793 169.74 160.315 169.152C159.843 168.565 159.151 168.271 158.24 168.271C157.285 168.271 156.552 168.581 156.041 169.202C155.536 169.822 155.284 170.706 155.284 171.853C155.284 172.973 155.536 173.843 156.041 174.463C156.552 175.078 157.274 175.386 158.207 175.386C158.844 175.386 159.398 175.24 159.87 174.949C160.348 174.653 160.724 174.227 160.999 173.673L162.127 174.109C161.775 174.883 161.257 175.485 160.57 175.913C159.89 176.335 159.118 176.547 158.256 176.547ZM154.856 172.191V171.178H161.649V172.191H154.856ZM164.292 176.3V164.195H165.502V176.3H164.292ZM171.685 176.547C170.801 176.547 170.046 176.346 169.42 175.946C168.795 175.545 168.314 174.99 167.979 174.282C167.644 173.574 167.477 172.762 167.477 171.845C167.477 170.912 167.647 170.094 167.988 169.391C168.328 168.688 168.811 168.142 169.437 167.752C170.068 167.357 170.818 167.159 171.685 167.159C172.574 167.159 173.332 167.36 173.958 167.76C174.589 168.156 175.069 168.707 175.399 169.416C175.734 170.118 175.901 170.928 175.901 171.845C175.901 172.778 175.734 173.599 175.399 174.307C175.064 175.01 174.581 175.559 173.949 175.954C173.318 176.349 172.563 176.547 171.685 176.547ZM171.685 175.386C172.673 175.386 173.409 175.059 173.892 174.406C174.375 173.747 174.616 172.893 174.616 171.845C174.616 170.769 174.372 169.912 173.884 169.276C173.4 168.639 172.668 168.32 171.685 168.32C171.021 168.32 170.472 168.471 170.038 168.773C169.61 169.07 169.289 169.484 169.075 170.017C168.866 170.544 168.762 171.153 168.762 171.845C168.762 172.915 169.009 173.775 169.503 174.422C169.997 175.065 170.724 175.386 171.685 175.386ZM181.711 176.547C180.893 176.547 180.202 176.341 179.636 175.929C179.071 175.512 178.643 174.949 178.352 174.241C178.061 173.527 177.915 172.729 177.915 171.845C177.915 170.945 178.061 170.143 178.352 169.44C178.648 168.732 179.082 168.175 179.653 167.769C180.224 167.362 180.926 167.159 181.761 167.159C182.573 167.159 183.27 167.365 183.852 167.777C184.434 168.189 184.879 168.749 185.186 169.457C185.499 170.165 185.656 170.961 185.656 171.845C185.656 172.734 185.499 173.533 185.186 174.241C184.873 174.949 184.423 175.512 183.836 175.929C183.249 176.341 182.54 176.547 181.711 176.547ZM177.709 180.252V167.406H178.796V174.101H178.928V180.252H177.709ZM181.588 175.419C182.208 175.419 182.724 175.262 183.136 174.949C183.548 174.636 183.855 174.211 184.058 173.673C184.267 173.129 184.371 172.52 184.371 171.845C184.371 171.175 184.27 170.571 184.066 170.033C183.863 169.495 183.553 169.07 183.136 168.757C182.724 168.444 182.2 168.287 181.563 168.287C180.943 168.287 180.427 168.438 180.015 168.74C179.609 169.042 179.304 169.462 179.101 170C178.898 170.533 178.796 171.148 178.796 171.845C178.796 172.531 178.898 173.146 179.101 173.689C179.304 174.227 179.612 174.65 180.023 174.958C180.435 175.265 180.957 175.419 181.588 175.419ZM191.227 176.547C190.36 176.547 189.608 176.355 188.971 175.97C188.34 175.586 187.848 175.045 187.497 174.348C187.146 173.651 186.97 172.833 186.97 171.894C186.97 170.923 187.143 170.083 187.489 169.374C187.835 168.666 188.32 168.12 188.946 167.736C189.578 167.351 190.321 167.159 191.178 167.159C192.056 167.159 192.806 167.362 193.426 167.769C194.046 168.169 194.516 168.746 194.834 169.498C195.152 170.25 195.298 171.148 195.271 172.191H194.035V171.763C194.013 170.61 193.764 169.74 193.286 169.152C192.814 168.565 192.122 168.271 191.211 168.271C190.256 168.271 189.523 168.581 189.012 169.202C188.507 169.822 188.255 170.706 188.255 171.853C188.255 172.973 188.507 173.843 189.012 174.463C189.523 175.078 190.245 175.386 191.178 175.386C191.815 175.386 192.369 175.24 192.841 174.949C193.319 174.653 193.695 174.227 193.969 173.673L195.098 174.109C194.746 174.883 194.227 175.485 193.541 175.913C192.861 176.335 192.089 176.547 191.227 176.547ZM187.826 172.191V171.178H194.62V172.191H187.826ZM197.098 176.3V167.406H198.185V169.547L197.971 169.267C198.07 169.004 198.199 168.762 198.358 168.543C198.517 168.318 198.69 168.134 198.877 167.991C199.107 167.788 199.376 167.634 199.684 167.53C199.991 167.42 200.301 167.357 200.614 167.34C200.927 167.319 201.213 167.34 201.471 167.406V168.543C201.147 168.46 200.793 168.441 200.408 168.485C200.024 168.529 199.67 168.683 199.346 168.946C199.05 169.177 198.827 169.454 198.679 169.778C198.531 170.096 198.432 170.437 198.383 170.799C198.333 171.156 198.308 171.51 198.308 171.861V176.3H197.098ZM206.03 176.539C204.987 176.539 204.127 176.314 203.452 175.863C202.782 175.413 202.371 174.787 202.217 173.986L203.452 173.78C203.584 174.285 203.883 174.689 204.35 174.99C204.822 175.287 205.404 175.435 206.095 175.435C206.771 175.435 207.303 175.295 207.693 175.015C208.083 174.73 208.278 174.343 208.278 173.854C208.278 173.58 208.215 173.357 208.088 173.187C207.968 173.011 207.718 172.849 207.339 172.701C206.96 172.553 206.395 172.377 205.643 172.174C204.836 171.955 204.204 171.735 203.749 171.515C203.293 171.296 202.969 171.043 202.777 170.758C202.585 170.467 202.489 170.113 202.489 169.696C202.489 169.191 202.631 168.749 202.917 168.37C203.202 167.986 203.598 167.689 204.103 167.48C204.608 167.266 205.195 167.159 205.865 167.159C206.535 167.159 207.133 167.269 207.66 167.489C208.193 167.703 208.621 168.005 208.945 168.395C209.269 168.784 209.461 169.237 209.521 169.753L208.286 169.976C208.204 169.454 207.943 169.042 207.504 168.74C207.07 168.433 206.518 168.274 205.848 168.263C205.217 168.246 204.704 168.367 204.309 168.625C203.913 168.878 203.716 169.215 203.716 169.638C203.716 169.874 203.787 170.077 203.93 170.247C204.073 170.412 204.331 170.568 204.704 170.717C205.083 170.865 205.621 171.027 206.318 171.203C207.136 171.411 207.778 171.631 208.245 171.861C208.711 172.092 209.043 172.364 209.241 172.677C209.439 172.989 209.538 173.377 209.538 173.838C209.538 174.678 209.225 175.339 208.599 175.822C207.978 176.3 207.122 176.539 206.03 176.539Z" fill="white"/>
</svg>
