<svg width="161" height="46" viewBox="0 0 161 46" fill="none" xmlns="http://www.w3.org/2000/svg">
<g clip-path="url(#clip0_3346_41240)">
<g clip-path="url(#clip1_3346_41240)">
<path fill-rule="evenodd" clip-rule="evenodd" d="M71.8551 34.3916H67.0644C67.1286 33.6235 68.1161 31.5676 68.4929 30.7847C69.0877 29.5487 69.6187 28.3717 70.1252 27.1297L79.0838 7.13369C79.4574 6.39489 79.6074 5.86014 79.9231 5.20331C80.5092 5.6319 80.5049 6.05167 80.8508 6.79361L86.5852 19.6907C87.611 22.1547 92.704 32.9772 93.0342 34.3911H88.2435C87.9387 33.0848 86.1797 29.8086 85.722 27.8489H74.3758C73.895 29.9076 72.3351 32.332 71.8543 34.3911L71.8551 34.3916ZM58.9961 7.46809C58.9961 11.7427 62.0218 30.7582 62.0218 35.3979L79.9237 45.211C81.3855 44.8214 96.7633 35.7033 98.0776 35.3979L100.392 14.3068C100.63 12.1738 101.103 9.56695 101.103 7.21651C99.1368 7.05315 81.1257 -0.0531075 79.9559 0.0015342L58.9961 7.46809Z" fill="white"/>
<path fill-rule="evenodd" clip-rule="evenodd" d="M76.1406 23.8237H83.9571L80.1751 14.7654C79.5383 15.231 79.4153 16.0691 79.0597 16.9234L76.1406 23.8237Z" fill="white"/>
</g>
</g>
<defs>
<clipPath id="clip0_3346_41240">
<rect width="161" height="45.21" fill="white"/>
</clipPath>
<clipPath id="clip1_3346_41240">
<rect width="42.1074" height="45.21" fill="white" transform="translate(59)"/>
</clipPath>
</defs>
</svg>
