<svg width="161" height="46" viewBox="0 0 161 46" fill="none" xmlns="http://www.w3.org/2000/svg">
<g clip-path="url(#clip0_3313_18563)">
<g clip-path="url(#clip1_3313_18563)">
<path fill-rule="evenodd" clip-rule="evenodd" d="M81.79 5.53228C81.9785 6.18395 82.1264 6.91549 82.2844 7.58186L85.2558 19.9552C85.4183 20.624 85.5618 21.3658 85.7578 22.0228C86.0001 22.8349 86.4013 22.9766 87.3461 22.9761C87.9733 22.9758 89.3247 23.0449 89.8557 22.9141C90.576 22.7365 90.6854 22.115 90.9136 21.4048C91.954 18.1675 92.9115 14.8909 93.9569 11.6407C94.7909 9.04779 95.5708 6.43166 96.3887 3.83249L96.9932 1.89768C97.3569 0.507735 96.6563 0.641849 95.8518 0.641849C95.2334 0.641849 93.9026 0.571362 93.4036 0.756804C92.8105 0.977328 92.6816 1.74991 92.5022 2.42203C91.7781 5.13428 91.1058 7.85423 90.4022 10.562C90.3471 10.7744 88.3835 18.4841 88.2898 18.6911C88.0659 17.9185 87.9016 17.0448 87.7099 16.2466L85.9677 8.85361C85.5868 7.21227 85.176 5.56969 84.808 3.92466C84.7182 3.52329 84.3122 1.7411 84.2128 1.47456C83.8403 0.475113 83.0943 0.641849 81.9741 0.641849C81.0231 0.641849 79.9253 0.460549 79.5529 1.26128C79.2899 1.827 79.0888 2.99195 78.9244 3.67689C78.5302 5.32063 78.1284 6.96397 77.7622 8.60648C77.2054 11.1033 76.58 13.5268 76.0218 16.0009C75.8395 16.8089 75.6528 17.7061 75.4302 18.4924C75.35 18.3261 71.3297 2.36494 71.3038 2.2663C70.7952 0.326047 70.5897 0.641849 67.8578 0.641849C66.9699 0.641849 66.4224 0.555892 66.7695 1.87722C66.9435 2.53932 67.1592 3.19914 67.3591 3.8534C68.1561 6.46053 68.9559 9.04481 69.7333 11.6606C70.5086 14.2693 71.338 16.8571 72.1051 19.4682C72.2988 20.1271 72.4987 20.7631 72.697 21.4151C72.905 22.0992 73.063 22.7451 73.7478 22.901C74.2697 23.0198 75.6321 22.9501 76.2441 22.9506C77.2685 22.9514 77.5636 22.8259 77.8373 21.9677C78.0413 21.3282 78.6387 18.7009 78.8264 17.882C79.6066 14.4779 80.4887 11.0102 81.2848 7.59273C81.3502 7.31182 81.7273 5.66361 81.79 5.53235V5.53228Z" fill="white"/>
<path fill-rule="evenodd" clip-rule="evenodd" d="M73.8048 44.7933C87.1221 46.5057 101.155 42.7693 110.08 36.7274C110.366 36.5337 110.65 36.3363 110.922 36.1376C111.221 35.9198 111.464 35.7652 111.68 35.4927C112.227 34.8028 111.753 33.9379 110.978 33.812C110.519 33.7375 110.161 33.9171 109.807 34.0664C105.976 35.6797 102.21 36.8464 98.0603 37.8407C84.9507 40.982 71.1792 40.183 58.4518 36.144C57.0186 35.6893 55.6342 35.1905 54.2611 34.6628C51.979 33.7854 50.4895 33.0912 48.3676 32.079C47.1869 31.5157 45.8306 30.7611 44.6809 30.1246C44.4368 29.9895 44.0412 29.7051 43.7144 29.68C43.2874 29.6471 42.958 29.9471 43.0044 30.376C43.0467 30.7675 43.4031 31.0037 43.6067 31.1987L44.3565 31.8519C46.3864 33.593 48.5609 35.2015 50.8596 36.6618C51.9155 37.3327 53.3334 38.161 54.4525 38.7416C55.5078 39.2891 57.1412 40.1195 58.2565 40.5781C58.9263 40.8535 59.5729 41.1381 60.2631 41.4069C64.7038 43.1366 68.9329 44.1667 73.8048 44.7931L73.8048 44.7933Z" fill="white"/>
<path fill-rule="evenodd" clip-rule="evenodd" d="M60.172 13.3575C60.172 14.593 60.1973 16.1609 59.6953 17.1935C59.4499 17.6982 59.3735 17.7725 59.0646 18.1751C58.9747 18.2921 58.8912 18.3375 58.7938 18.4416C58.4489 18.8103 58.0451 19.1057 57.6005 19.3674C56.7389 19.8748 55.3342 20.2143 54.1595 20.2324C52.6875 20.255 51.7392 19.7648 51.154 18.9619C50.5394 18.1189 50.3479 16.6369 50.6685 15.4462C50.9679 14.3344 51.713 13.6027 52.6851 13.1969C53.7853 12.7375 55.2093 12.6964 56.4881 12.7677C56.968 12.7945 59.9471 13.0906 60.172 13.3576V13.3575ZM60.1214 10.4906L57.7319 10.0226C55.1893 9.61343 52.4826 9.55874 50.1729 10.5924C47.6825 11.7068 45.6597 14.2227 46.2019 18.0656C46.6639 21.3394 49.071 23.2992 52.3088 23.5048C54.1239 23.6201 55.7064 23.3087 57.1574 22.626C58.1852 22.1424 58.919 21.5631 59.6826 20.8237C59.8115 20.6988 59.9025 20.5848 60.0388 20.4635C60.1789 20.3389 60.2433 20.2043 60.397 20.0816C60.5006 20.2266 60.933 21.1591 61.2099 21.5903C61.491 22.0278 61.9106 22.6217 62.2803 22.8792C62.9458 23.3426 63.4823 22.8558 63.9432 22.5482C64.259 22.3376 65.1166 21.8069 65.3219 21.5694C65.7889 21.0292 65.4148 20.5303 65.108 19.9297C64.6241 18.9823 64.3964 18.2508 64.3211 17.1927C64.2957 16.8352 64.3278 16.6775 64.255 16.3648C64.2339 16.2742 64.2436 16.1697 64.244 16.0746L64.2442 9.02824C64.2442 7.47693 64.2077 6.20466 63.7684 4.78993C63.0261 2.39892 61.382 0.963988 58.7632 0.363064C56.0302 -0.264009 53.0107 0.0466797 50.485 0.844438C49.8849 1.03402 49.3476 1.24173 48.8033 1.49086C48.5433 1.60977 48.2475 1.76265 48.0556 1.9068C47.8233 2.08137 47.674 2.25975 47.626 2.67122C47.5769 3.09259 47.5506 4.58804 47.728 4.86274C48.0374 5.34185 49.0739 4.80177 49.4779 4.64338C51.7861 3.73805 54.7199 3.04703 57.3918 3.79443C60.2749 4.60073 60.1213 7.3801 60.1213 10.4905L60.1214 10.4906Z" fill="white"/>
<path fill-rule="evenodd" clip-rule="evenodd" d="M106.365 0.0312761C104.651 0.159241 103.073 0.666764 101.757 1.62084C100.917 2.22992 100.3 2.89563 99.805 3.78899C98.4156 6.2991 99.242 9.48993 101.329 11.2207C102.836 12.4708 105.193 13.0364 107.146 13.6421C108.537 14.073 110.425 14.5447 111.049 15.9185C111.286 16.4406 111.322 17.1159 111.181 17.7078C110.384 21.0487 104.407 20.3259 101.95 19.5577C101.408 19.3884 100.951 19.1959 100.453 18.9944C99.9921 18.8082 99.2548 18.4344 98.9674 18.9846C98.8346 19.239 98.8481 20.5728 98.8831 20.9271C98.9491 21.5968 99.29 21.8694 99.7354 22.131C101.331 23.0685 104.346 23.6171 106.505 23.6288C108.787 23.6412 111.119 23.0609 112.871 21.7558C114.25 20.7291 115.619 18.7798 115.418 16.0771C115.291 14.3606 114.496 12.9956 113.276 12.0477C112.916 11.7684 112.462 11.4916 111.998 11.2666C110.171 10.3816 107.825 9.93021 105.871 9.15504C104.16 8.47612 102.933 7.50483 103.378 5.59921C104.029 2.81446 108.839 3.20088 111.052 3.7921C111.594 3.93676 112.085 4.11599 112.572 4.33302C112.996 4.52248 113.751 4.91679 114.054 4.42707C114.236 4.13314 114.207 2.9124 114.172 2.49135C114.121 1.86279 113.717 1.53417 113.314 1.29041C111.62 0.26384 108.364 -0.118113 106.365 0.0311467L106.365 0.0312761Z" fill="white"/>
<path fill-rule="evenodd" clip-rule="evenodd" d="M113.101 28.1807C110.347 28.1807 107.407 28.8866 105.454 30.0996C105.159 30.2824 104.11 30.8538 104.462 31.405C104.641 31.6853 105.051 31.6059 105.421 31.5618C105.782 31.5188 106.133 31.4771 106.488 31.4376C108.321 31.2334 111.77 30.887 113.695 31.3639C114.477 31.5577 114.931 31.8391 115.017 32.6991C115.219 34.7264 113.495 39.0501 112.722 40.9841C112.615 41.2528 112.353 41.7457 112.604 42.0106C112.865 42.2867 113.319 42.0565 113.537 41.889C113.929 41.5876 114.373 41.1418 114.702 40.7548C114.759 40.6881 114.802 40.6543 114.857 40.5827C115.861 39.2798 116.092 38.9884 116.906 37.3167C117.739 35.6042 118.897 31.7645 118.491 29.765C118.398 29.3074 118.288 29.1639 117.969 28.9707C116.915 28.3337 114.494 28.1808 113.101 28.1808L113.101 28.1807Z" fill="white"/>
</g>
</g>
<defs>
<clipPath id="clip0_3313_18563">
<rect width="161" height="45.21" fill="white"/>
</clipPath>
<clipPath id="clip1_3313_18563">
<rect width="75.5749" height="45.21" fill="white" transform="translate(43)"/>
</clipPath>
</defs>
</svg>
