<svg width="71" height="46" viewBox="0 0 71 46" fill="none" xmlns="http://www.w3.org/2000/svg">
<g clip-path="url(#clip0_3313_18533)">
<path fill-rule="evenodd" clip-rule="evenodd" d="M19.4748 31.5963C22.0438 30.1349 23.8965 33.9549 21.6293 35.3275C19.1541 36.826 16.6936 33.1783 19.4748 31.5963ZM0 22.8383V27.6756C0.910159 29.4883 0.536727 31.5043 2.91824 35.4566C3.52869 36.4696 3.63951 36.7066 5.01729 36.779C7.20344 36.8939 9.6911 36.8851 11.8527 36.6977C13.2907 36.573 17.1174 35.5427 17.8867 35.8648C17.9088 37.1134 17.0692 37.0107 15.7636 37.3048C14.7543 37.5321 13.616 37.7108 12.5465 37.8212C10.0003 38.084 7.58472 38.0662 5.03104 37.9615C6.41795 40.5442 11.9231 43.3172 15.3241 44.2272C16.7625 44.6122 19.0148 44.7653 20.1374 45.2099H27.5697C29.7464 44.2132 38.8532 44.7185 48.26 37.542C52.2956 34.4631 55.4836 30.6172 57.9283 26.0115C58.5819 24.7803 59.4661 22.3427 60.1894 21.2639C62.7916 21.2198 64.6432 21.3565 66.8592 20.3488C68.6348 19.5415 70.2147 18.2858 70.6614 16.5508C69.2464 16.1142 67.8275 15.5427 65.9789 15.5802C63.9821 15.6208 63.0383 16.2415 61.4096 16.4948C61.5204 12.65 59.133 9.32805 57.1673 8.34131C55.8506 9.58232 55.4095 12.1172 55.573 14.4107C55.7802 17.3191 56.9058 18.1652 57.8607 19.7004C54.1404 24.0503 37.3187 22.7651 30.4725 22.7651C25.2284 22.7651 3.29993 22.497 5.13026e-05 22.8383L0 22.8383Z" fill="white"/>
<path fill-rule="evenodd" clip-rule="evenodd" d="M29.2429 14.0365L30.22 14.0615L34.7533 14.0573L35.6552 14.0277L35.7476 7.60212L34.7547 7.50024L30.4405 7.51727L29.2266 7.56615L29.2429 14.0365Z" fill="white"/>
<path fill-rule="evenodd" clip-rule="evenodd" d="M21.7062 21.493L28.2186 21.586L28.2222 15.1057L21.6875 15.0649L21.7062 21.493Z" fill="white"/>
<path fill-rule="evenodd" clip-rule="evenodd" d="M21.7213 14.0143L28.1148 14.057L28.2253 7.57348L26.9488 7.50562L22.9188 7.51735L21.7031 7.57991L21.7213 14.0143Z" fill="white"/>
<path fill-rule="evenodd" clip-rule="evenodd" d="M29.2287 21.5163L35.7397 21.5791L35.7395 15.1508L29.2109 15.0566L29.2287 21.5163Z" fill="white"/>
<path fill-rule="evenodd" clip-rule="evenodd" d="M13.102 15.1458L6.69141 15.1559L6.70593 21.4844L13.0816 21.5046L13.102 15.1458Z" fill="white"/>
<path fill-rule="evenodd" clip-rule="evenodd" d="M20.6805 13.7514L20.694 7.55751L14.2891 7.51074L14.2892 13.9281L20.6805 13.7514Z" fill="white"/>
<path fill-rule="evenodd" clip-rule="evenodd" d="M36.7617 21.3604L43.169 21.4748L43.1778 15.2046L36.7729 15.2178L36.7617 21.3604Z" fill="white"/>
<path fill-rule="evenodd" clip-rule="evenodd" d="M20.6784 21.3746L20.646 15.3015L14.2697 15.2061L14.25 21.4732L20.6784 21.3746Z" fill="white"/>
<path fill-rule="evenodd" clip-rule="evenodd" d="M35.5095 0H29.398L29.3867 6.3662L35.5613 6.35324L35.5095 0Z" fill="white"/>
<path fill-rule="evenodd" clip-rule="evenodd" d="M13.1022 15.1456L13.0819 21.5046L6.70624 21.4844L6.69167 15.1558L13.1022 15.1457V15.1456ZM13.1022 15.1456L6.65581 15.0117C6.22492 16.1346 6.26596 20.4515 6.62159 21.6553C7.90195 21.8909 12.0441 21.964 13.1986 21.5836L13.3102 16.4009C13.3076 16.2016 13.308 15.8612 13.2843 15.6727C13.1813 14.8535 13.2148 15.3772 13.1022 15.1457V15.1456Z" fill="white"/>
<path fill-rule="evenodd" clip-rule="evenodd" d="M20.6798 21.3745L14.2514 21.473L14.2711 15.2059L20.6474 15.3014C20.2341 14.6921 19.2323 14.978 17.628 14.9789C16.5024 14.9795 15.3551 14.9185 14.2395 15.0391C13.7921 16.1005 13.846 20.4787 14.1899 21.6538L19.9053 21.7233C20.9096 21.5658 20.3002 21.7233 20.6798 21.3745V21.3745Z" fill="white"/>
<path fill-rule="evenodd" clip-rule="evenodd" d="M36.7617 21.3603C37.198 21.8018 36.3682 21.5346 37.5145 21.724C37.5178 21.7245 38.2156 21.725 38.2712 21.7248L43.2645 21.6539C43.6522 20.3892 43.5827 16.4962 43.3498 15.1542C42.5511 14.8786 37.4961 14.797 36.7729 15.2177L43.1778 15.2045L43.169 21.4747L36.7617 21.3603V21.3603Z" fill="white"/>
<path fill-rule="evenodd" clip-rule="evenodd" d="M35.8157 0H35.5081L35.56 6.35324L29.3854 6.3662L29.3966 0H29.1484L29.1618 6.56609L35.748 6.58343L35.8157 0Z" fill="white"/>
<path fill-rule="evenodd" clip-rule="evenodd" d="M21.7427 33.5918C21.3843 33.0236 21.7461 33.5536 21.3353 33.2228L20.4718 32.4756C19.3361 31.4295 21.3033 32.751 20.1464 32.2345C18.4414 33.1193 19.0095 35.2518 21.5014 34.4626L21.7427 33.5918Z" fill="white"/>
<path fill-rule="evenodd" clip-rule="evenodd" d="M20.6799 13.7515L14.2886 13.9281L14.2884 7.51074C13.9078 8.2732 14.0622 9.40457 14.0625 10.6079C14.0629 11.7606 13.9738 12.9494 14.1778 14.0773C15.1718 14.2165 19.9147 14.6049 20.6799 13.7515H20.6799Z" fill="white"/>
</g>
<defs>
<clipPath id="clip0_3313_18533">
<rect width="70.6616" height="45.21" fill="white"/>
</clipPath>
</defs>
</svg>
