<svg width="37" height="46" viewBox="0 0 37 46" fill="none" xmlns="http://www.w3.org/2000/svg">
<g clip-path="url(#clip0_3313_18424)">
<path fill-rule="evenodd" clip-rule="evenodd" d="M0 22.4891L6.83852 29.3554C7.02749 29.2975 8.52488 27.7264 8.69903 27.5521C9.32226 26.9281 9.9166 26.3331 10.5397 25.7092L32.51 3.71304C32.7661 3.45673 36.053 0.209569 36.1816 0.0172863C35.8745 0.0172863 22.6791 -0.0324671 22.5043 0.036842L16.9833 5.52736C16.9058 5.59876 16.8472 5.65979 16.7645 5.7442L16.1686 6.3366C16.1603 6.3446 16.1366 6.36762 16.1286 6.3758L15.4523 7.04624C15.4469 7.05225 15.4392 7.06107 15.4336 7.06707L15.1396 7.36723C15.1336 7.37269 15.1246 7.38024 15.1185 7.3856L2.75592 19.7394C2.7502 19.7451 2.74166 19.7532 2.73594 19.759L2.67679 19.8187C2.62365 19.8724 2.6102 19.8848 2.55778 19.9373L2.39952 20.0959C2.3938 20.1017 2.38553 20.11 2.3799 20.1158L0 22.489L0 22.4891Z" fill="white"/>
<path fill-rule="evenodd" clip-rule="evenodd" d="M17.4142 39.8087C17.6626 40.1504 18.1639 40.5387 18.3465 40.7415C18.4257 40.8294 18.4477 40.8671 18.5372 40.9469L19.0247 41.4101C19.0577 41.443 19.0932 41.4715 19.1288 41.504C19.2057 41.5745 19.2532 41.6263 19.3278 41.701L22.7489 45.1324C22.8938 45.2505 23.1054 45.1988 23.4348 45.1987H36.419C36.2875 45.0021 33.5706 42.3358 33.3712 42.1467L31.2823 40.0766C31.2066 40.0025 31.16 39.9534 31.0848 39.8781L24.1869 32.9883C23.9907 33.1253 19.471 37.6936 19.0703 38.0946C18.9447 38.2204 17.4646 39.6287 17.4141 39.8087H17.4142Z" fill="white"/>
<path fill-rule="evenodd" clip-rule="evenodd" d="M17.3791 26.1753L18.9415 27.7425C18.9912 27.7976 18.9944 27.8084 19.0534 27.8673C19.1002 27.9143 19.116 27.9242 19.157 27.9607C19.533 28.2958 19.9774 28.7934 20.3193 29.1365L21.4318 30.2416C21.4376 30.2471 21.4465 30.2548 21.4524 30.2604L21.4941 30.2978C21.5488 30.3482 21.5645 30.3646 21.6175 30.4117C21.9636 30.7189 21.8702 30.721 22.2509 31.0454C22.3362 31.1182 22.3983 31.1704 22.4744 31.2611L23.3098 32.1245C23.6667 32.4129 23.8997 32.7611 24.1878 32.9526L36.1922 20.9533C32.1842 20.9434 28.186 20.9434 24.1878 20.9434C23.7644 20.9434 23.0727 20.9008 22.6823 20.9421C22.4768 20.964 22.0465 21.4821 21.8819 21.6469L18.1211 25.4119C17.9303 25.603 17.5053 25.985 17.3789 26.1753H17.3791Z" fill="white"/>
<path fill-rule="evenodd" clip-rule="evenodd" d="M17.4142 39.8085C17.4647 39.6285 18.9448 38.2202 19.0705 38.0945C19.471 37.6934 23.9907 33.1252 24.187 32.9881V32.9526C23.899 32.761 23.6659 32.4128 23.309 32.1244L22.4736 31.261C22.3975 31.1704 22.3355 31.1182 22.2501 31.0454C21.8694 30.7209 21.9629 30.7189 21.6167 30.4116C21.5639 30.3647 21.548 30.3481 21.4934 30.2977L21.4517 30.2603C21.4457 30.2548 21.4368 30.2471 21.431 30.2415L20.3186 29.1365C19.9767 28.7934 19.5323 28.2958 19.1562 27.9607C19.1153 27.9241 19.0995 27.9143 19.0526 27.8673C18.9936 27.8082 18.9904 27.7975 18.9408 27.7425L17.3783 26.1753L10.4805 33.0611L11.134 33.6948C11.5629 34.1221 12.1901 34.7953 12.6316 35.1678C12.7941 35.305 12.9194 35.4435 13.0732 35.5976C13.3666 35.8913 13.631 36.156 13.9243 36.4497C14.0793 36.6049 14.1796 36.7086 14.3507 36.8551L16.0618 38.5503C16.1585 38.6362 16.2013 38.6496 16.3002 38.7476C16.382 38.8287 16.4352 38.8843 16.5172 38.9664C16.6751 39.1244 17.2565 39.7644 17.4141 39.8086L17.4142 39.8085Z" fill="white"/>
</g>
<defs>
<clipPath id="clip0_3313_18424">
<rect width="36.4192" height="45.21" fill="white"/>
</clipPath>
</defs>
</svg>
