<svg width="161" height="46" viewBox="0 0 161 46" fill="none" xmlns="http://www.w3.org/2000/svg">
<g clip-path="url(#clip0_3346_41314)">
<g clip-path="url(#clip1_3346_41314)">
<path fill-rule="evenodd" clip-rule="evenodd" d="M60.168 -0.0649414L63.6952 40.5039L80.0007 45.0641L96.1565 40.5039L99.8334 -0.0649414H60.168ZM67.5937 7.8938L68.0368 12.9389H73.6578L73.6604 29.7897L70.9218 29.4065L70.54 25.4102H65.5881L66.2927 33.368L78.5907 35.7472L78.6807 7.85817L67.5945 7.8938H67.5937ZM94.4903 7.89293L94.0505 12.8564H86.598L86.5219 17.9424H93.5399L92.1827 33.2568L81.3813 35.7368V30.5578L87.4601 29.4152L88.1863 22.8998H81.4055L81.3337 7.86686L94.4903 7.89293Z" fill="white" stroke="white" stroke-width="0.319446" stroke-miterlimit="22.9256" stroke-linecap="round" stroke-linejoin="round"/>
</g>
</g>
<defs>
<clipPath id="clip0_3346_41314">
<rect width="161" height="45.21" fill="white"/>
</clipPath>
<clipPath id="clip1_3346_41314">
<rect width="39.7451" height="45.21" fill="white" transform="translate(60.1289 -0.10498)"/>
</clipPath>
</defs>
</svg>
