<svg width="374" height="570" viewBox="0 0 374 570" fill="none" xmlns="http://www.w3.org/2000/svg">
<g clip-path="url(#clip0_8103_4517)">
<rect x="0.71875" y="0.232422" width="373.274" height="569.102" rx="7.06959" fill="#007E99"/>
<path d="M303.707 106.968C303.707 111.692 299.888 117.342 297.62 115.074C295.481 112.936 299.066 110.801 299.066 106.077C299.066 101.353 295.468 100.105 297.62 97.9666C299.772 95.8282 303.707 102.244 303.707 106.968Z" fill="white"/>
<path d="M311.52 106.09C311.52 112.809 308.817 120.037 305.222 118.256C302.303 116.81 306.551 112.809 306.551 106.09C306.551 99.3707 302.004 95.4849 305.222 93.9237C308.441 92.3624 311.52 99.3707 311.52 106.09Z" fill="white"/>
<path d="M320.076 106.499C320.076 115.759 315.972 125.029 312.592 122.574C309.846 120.581 315.107 115.759 315.107 106.499C315.107 97.2393 309.565 92.6494 312.592 90.4978C315.619 88.3463 320.076 97.2393 320.076 106.499Z" fill="white"/>
<path d="M329.696 106.432C329.696 118.505 323.501 130.044 320.073 126.844C317.289 124.245 324.727 118.505 324.727 106.432C324.727 94.358 318.073 89.0189 321.142 86.2136C324.211 83.4082 329.696 94.358 329.696 106.432Z" fill="white"/>
<rect x="261.893" y="72.4279" width="64.6877" height="47.5802" rx="7.75183" transform="rotate(90 261.893 72.4279)" fill="#D3C5C2" stroke="#00191F" stroke-width="1.60383"/>
<path d="M246.125 71.626V91.9411" stroke="#00191F" stroke-width="1.06922"/>
<path d="M214.582 117.607L217.772 116.538L220.961 115.469H224.151H227.341L230.62 116.538L235.847 115.469H239.036H242.226L246.445 117.251" stroke="#00191F" stroke-width="1.06922"/>
<path d="M213.512 90.8782L216.723 91.9474L219.934 93.0166H223.145H226.356L230.619 91.9474L234.919 93.0166H238.13H241.341L246.657 91.9474" stroke="#00191F" stroke-width="1.06922"/>
<path d="M261.627 90.8782L257.209 93.0166H253.894H250.579L246.141 91.9474" stroke="#00191F" stroke-width="1.06922"/>
<path d="M246.125 116.764V137.922" stroke="#00191F" stroke-width="1.06922"/>
<path d="M231.156 71.626V92.4874" stroke="#00191F" stroke-width="1.06922"/>
<path d="M220.996 93.0166L219.927 98.3627V104.778V110.124L220.996 115.47" stroke="#00191F" stroke-width="1.06922"/>
<path d="M255.211 93.0166L256.28 98.3627V104.778V110.124L255.211 115.47" stroke="#00191F" stroke-width="1.06922"/>
<path d="M261.624 119.746L258.416 117.607L255.209 115.469H253.07" stroke="#00191F" stroke-width="1.06922"/>
<line x1="231.156" y1="116.539" x2="231.156" y2="137.923" stroke="#00191F" stroke-width="1.06922"/>
<path d="M86.8184 352.344C89.5858 290.831 95.5165 256.715 112.97 197.634M109.822 193.497C109.495 195.433 110.707 197.252 112.53 197.56C114.353 197.868 116.096 196.549 116.423 194.613C116.75 192.677 115.538 190.858 113.715 190.55C111.892 190.241 110.149 191.561 109.822 193.497Z" stroke="white" stroke-width="1.41392"/>
<path d="M63.6484 350.415C54.1432 278.368 34.3479 234.54 92.139 196.118M98.6912 193.713C98.3347 195.644 95.7122 196.778 92.8338 196.247C89.9554 195.715 87.911 193.719 88.2675 191.788C88.624 189.858 91.2464 188.723 94.1248 189.255C97.0032 189.786 99.0477 191.782 98.6912 193.713Z" stroke="white" stroke-width="1.41392"/>
<path d="M82.5594 342.741C73.6303 294.68 74.4191 264.827 41.7525 241.963M38.405 240.661C38.9156 241.922 40.2867 242.557 41.4675 242.078C42.6483 241.6 43.1916 240.19 42.681 238.929C42.1703 237.668 40.7992 237.034 39.6184 237.512C38.4376 237.99 37.8943 239.4 38.405 240.661Z" stroke="white" stroke-width="1.41392"/>
<path d="M86.269 345.756C97.2217 298.659 103.611 271.184 126.848 239.697M133.378 239.441C132.87 240.768 130.242 240.996 127.508 239.95C124.775 238.904 122.97 236.98 123.478 235.653C123.986 234.326 126.613 234.098 129.347 235.144C132.081 236.19 133.886 238.114 133.378 239.441Z" stroke="white" stroke-width="1.41392"/>
<path d="M133.982 363.605C129.02 321.303 126.791 298.068 133.982 259.452M139.991 257.093C139.991 258.396 137.617 259.452 134.689 259.452C131.761 259.452 129.387 258.396 129.387 257.093C129.387 255.789 131.761 254.733 134.689 254.733C137.617 254.733 139.991 255.789 139.991 257.093Z" stroke="white" stroke-width="1.41392"/>
<rect width="373.274" height="245.315" transform="translate(0.71875 324.012)" fill="#00191F"/>
<path d="M24.4927 366.462V354.604H31.3028V355.814H25.7032V359.932H30.3146V361.134H25.7032V366.462H24.4927ZM36.1926 366.684C35.6601 366.684 35.1935 366.602 34.7927 366.437C34.3974 366.273 34.0598 366.05 33.7798 365.77C33.5054 365.49 33.283 365.172 33.1128 364.815C32.9427 364.453 32.8191 364.071 32.7423 363.67C32.6654 363.264 32.627 362.861 32.627 362.46V357.568H33.8457V362.106C33.8457 362.594 33.8924 363.047 33.9857 363.464C34.079 363.882 34.2273 364.247 34.4304 364.56C34.639 364.867 34.9053 365.106 35.2291 365.276C35.5585 365.446 35.9565 365.531 36.4232 365.531C36.8514 365.531 37.2274 365.457 37.5513 365.309C37.8807 365.161 38.1552 364.949 38.3748 364.675C38.5999 364.395 38.7701 364.057 38.8853 363.662C39.0006 363.261 39.0583 362.811 39.0583 362.312L39.9147 362.501C39.9147 363.412 39.7555 364.178 39.4371 364.799C39.1187 365.419 38.6795 365.888 38.1195 366.207C37.5596 366.525 36.9173 366.684 36.1926 366.684ZM39.1818 366.462V364.271H39.0583V357.568H40.2688V366.462H39.1818ZM47.4123 366.462C46.9128 366.566 46.4187 366.607 45.9301 366.585C45.447 366.563 45.0133 366.459 44.629 366.273C44.2502 366.086 43.962 365.795 43.7644 365.4C43.6052 365.07 43.5173 364.738 43.5009 364.403C43.4899 364.063 43.4844 363.676 43.4844 363.242V355.098H44.6867V363.193C44.6867 363.566 44.6894 363.879 44.6949 364.132C44.7059 364.379 44.7635 364.598 44.8678 364.79C45.0655 365.158 45.3784 365.378 45.8066 365.449C46.2403 365.52 46.7755 365.504 47.4123 365.4V366.462ZM41.5822 358.606V357.568H47.4123V358.606H41.5822ZM52.5654 366.684C52.0329 366.684 51.5663 366.602 51.1655 366.437C50.7703 366.273 50.4326 366.05 50.1527 365.77C49.8782 365.49 49.6558 365.172 49.4857 364.815C49.3155 364.453 49.192 364.071 49.1151 363.67C49.0382 363.264 48.9998 362.861 48.9998 362.46V357.568H50.2185V362.106C50.2185 362.594 50.2652 363.047 50.3585 363.464C50.4519 363.882 50.6001 364.247 50.8032 364.56C51.0118 364.867 51.2781 365.106 51.602 365.276C51.9314 365.446 52.3294 365.531 52.796 365.531C53.2242 365.531 53.6002 365.457 53.9241 365.309C54.2535 365.161 54.528 364.949 54.7476 364.675C54.9727 364.395 55.1429 364.057 55.2582 363.662C55.3734 363.261 55.4311 362.811 55.4311 362.312L56.2875 362.501C56.2875 363.412 56.1283 364.178 55.8099 364.799C55.4915 365.419 55.0523 365.888 54.4923 366.207C53.9324 366.525 53.2901 366.684 52.5654 366.684ZM55.5546 366.462V364.271H55.4311V357.568H56.6416V366.462H55.5546ZM58.9432 366.462V357.568H60.0301V359.709L59.816 359.43C59.9149 359.166 60.0439 358.924 60.2031 358.705C60.3623 358.48 60.5352 358.296 60.7219 358.153C60.9524 357.95 61.2214 357.796 61.5289 357.692C61.8363 357.582 62.1465 357.519 62.4594 357.503C62.7723 357.481 63.0578 357.503 63.3158 357.568V358.705C62.9919 358.623 62.6378 358.603 62.2535 358.647C61.8692 358.691 61.5151 358.845 61.1912 359.108C60.8948 359.339 60.6724 359.616 60.5242 359.94C60.376 360.258 60.2772 360.599 60.2278 360.961C60.1784 361.318 60.1537 361.672 60.1537 362.023V366.462H58.9432ZM68.4803 366.709C67.6129 366.709 66.8608 366.517 66.224 366.133C65.5927 365.748 65.1014 365.208 64.75 364.51C64.3987 363.813 64.223 362.995 64.223 362.056C64.223 361.085 64.3959 360.245 64.7418 359.537C65.0876 358.828 65.5735 358.282 66.1993 357.898C66.8306 357.514 67.5745 357.321 68.4309 357.321C69.3093 357.321 70.0586 357.525 70.679 357.931C71.2993 358.332 71.7687 358.908 72.0871 359.66C72.4055 360.412 72.551 361.31 72.5235 362.353H71.2883V361.925C71.2664 360.772 71.0166 359.902 70.539 359.314C70.0669 358.727 69.3752 358.433 68.4639 358.433C67.5086 358.433 66.7757 358.743 66.2652 359.364C65.7601 359.984 65.5076 360.868 65.5076 362.015C65.5076 363.135 65.7601 364.005 66.2652 364.626C66.7757 365.24 67.4977 365.548 68.4309 365.548C69.0677 365.548 69.6222 365.402 70.0943 365.111C70.5719 364.815 70.948 364.39 71.2225 363.835L72.3506 364.271C71.9993 365.046 71.4805 365.647 70.7943 366.075C70.1135 366.498 69.3422 366.709 68.4803 366.709ZM65.0794 362.353V361.34H71.873V362.353H65.0794ZM74.1863 361.793V360.755H79.1271V361.793H74.1863ZM81.2668 366.462V354.604H85.8453C85.9606 354.604 86.0896 354.609 86.2323 354.62C86.3805 354.626 86.5288 354.642 86.677 354.67C87.2973 354.763 87.8216 354.98 88.2498 355.32C88.6835 355.655 89.0101 356.078 89.2297 356.589C89.4548 357.099 89.5674 357.665 89.5674 358.285C89.5674 359.18 89.3313 359.957 88.8592 360.615C88.3871 361.274 87.7118 361.689 86.8334 361.859L86.4135 361.958H82.4773V366.462H81.2668ZM88.4474 366.462L86.1088 361.636L87.2699 361.192L89.8391 366.462H88.4474ZM82.4773 360.805H85.8123C85.9112 360.805 86.0265 360.799 86.1582 360.788C86.29 360.777 86.419 360.758 86.5452 360.731C86.9515 360.643 87.2836 360.475 87.5416 360.228C87.8051 359.981 88 359.688 88.1263 359.347C88.258 359.007 88.3239 358.653 88.3239 358.285C88.3239 357.917 88.258 357.563 88.1263 357.223C88 356.877 87.8051 356.58 87.5416 356.333C87.2836 356.086 86.9515 355.919 86.5452 355.831C86.419 355.804 86.29 355.787 86.1582 355.782C86.0265 355.771 85.9112 355.765 85.8123 355.765H82.4773V360.805ZM95.4199 366.709C94.5525 366.709 93.8004 366.517 93.1636 366.133C92.5323 365.748 92.0409 365.208 91.6896 364.51C91.3382 363.813 91.1626 362.995 91.1626 362.056C91.1626 361.085 91.3355 360.245 91.6813 359.537C92.0272 358.828 92.513 358.282 93.1389 357.898C93.7702 357.514 94.5141 357.321 95.3705 357.321C96.2488 357.321 96.9982 357.525 97.6185 357.931C98.2389 358.332 98.7083 358.908 99.0267 359.66C99.3451 360.412 99.4906 361.31 99.4631 362.353H98.2279V361.925C98.2059 360.772 97.9562 359.902 97.4785 359.314C97.0064 358.727 96.3147 358.433 95.4034 358.433C94.4482 358.433 93.7153 358.743 93.2048 359.364C92.6997 359.984 92.4472 360.868 92.4472 362.015C92.4472 363.135 92.6997 364.005 93.2048 364.626C93.7153 365.24 94.4372 365.548 95.3705 365.548C96.0073 365.548 96.5618 365.402 97.0339 365.111C97.5115 364.815 97.8875 364.39 98.162 363.835L99.2902 364.271C98.9388 365.046 98.42 365.647 97.7338 366.075C97.0531 366.498 96.2818 366.709 95.4199 366.709ZM92.019 362.353V361.34H98.8126V362.353H92.019ZM103.674 366.709C103.004 366.709 102.442 366.588 101.986 366.347C101.536 366.105 101.198 365.784 100.973 365.383C100.748 364.982 100.636 364.546 100.636 364.074C100.636 363.591 100.732 363.179 100.924 362.839C101.121 362.493 101.388 362.21 101.723 361.99C102.063 361.771 102.456 361.603 102.9 361.488C103.35 361.378 103.847 361.282 104.391 361.2C104.94 361.112 105.475 361.038 105.996 360.978C106.523 360.912 106.985 360.849 107.38 360.788L106.952 361.052C106.968 360.173 106.798 359.523 106.441 359.1C106.084 358.677 105.464 358.466 104.58 358.466C103.971 358.466 103.455 358.603 103.032 358.878C102.615 359.152 102.321 359.586 102.151 360.179L100.973 359.833C101.176 359.037 101.585 358.419 102.2 357.98C102.815 357.541 103.614 357.321 104.597 357.321C105.409 357.321 106.098 357.475 106.663 357.783C107.234 358.085 107.638 358.524 107.874 359.1C107.984 359.358 108.055 359.646 108.088 359.965C108.121 360.283 108.137 360.607 108.137 360.936V366.462H107.059V364.23L107.372 364.362C107.07 365.125 106.6 365.707 105.963 366.108C105.327 366.509 104.564 366.709 103.674 366.709ZM103.814 365.663C104.38 365.663 104.874 365.562 105.296 365.358C105.719 365.155 106.06 364.878 106.318 364.527C106.576 364.17 106.743 363.769 106.82 363.325C106.886 363.039 106.921 362.726 106.927 362.386C106.932 362.04 106.935 361.782 106.935 361.612L107.396 361.851C106.985 361.905 106.537 361.96 106.054 362.015C105.576 362.07 105.104 362.133 104.638 362.205C104.177 362.276 103.759 362.361 103.386 362.46C103.133 362.531 102.889 362.633 102.653 362.765C102.417 362.891 102.222 363.061 102.068 363.275C101.92 363.489 101.846 363.755 101.846 364.074C101.846 364.332 101.909 364.582 102.036 364.823C102.167 365.065 102.376 365.265 102.661 365.424C102.952 365.584 103.337 365.663 103.814 365.663ZM113.731 366.709C112.902 366.709 112.194 366.503 111.607 366.091C111.02 365.674 110.569 365.111 110.256 364.403C109.944 363.695 109.787 362.896 109.787 362.007C109.787 361.123 109.941 360.327 110.248 359.619C110.561 358.911 111.009 358.351 111.59 357.939C112.172 357.527 112.87 357.321 113.682 357.321C114.516 357.321 115.219 357.525 115.79 357.931C116.361 358.337 116.792 358.894 117.083 359.602C117.379 360.305 117.528 361.107 117.528 362.007C117.528 362.891 117.382 363.69 117.091 364.403C116.8 365.111 116.372 365.674 115.807 366.091C115.241 366.503 114.549 366.709 113.731 366.709ZM113.855 365.581C114.486 365.581 115.008 365.427 115.42 365.12C115.831 364.812 116.139 364.39 116.342 363.852C116.545 363.308 116.647 362.693 116.647 362.007C116.647 361.31 116.545 360.695 116.342 360.162C116.139 359.624 115.831 359.204 115.42 358.902C115.013 358.601 114.5 358.45 113.88 358.45C113.243 358.45 112.716 358.606 112.299 358.919C111.881 359.232 111.571 359.657 111.368 360.195C111.17 360.733 111.072 361.337 111.072 362.007C111.072 362.682 111.173 363.292 111.376 363.835C111.585 364.373 111.895 364.799 112.307 365.111C112.719 365.424 113.235 365.581 113.855 365.581ZM116.647 366.462V359.767H116.515V354.604H117.733V366.462H116.647ZM121.312 370.415L123.033 365.745L123.058 367.129L119.163 357.568H120.447L123.642 365.564H123.115L126.063 357.568H127.298L122.522 370.415H121.312ZM135.18 366.462V355.765H131.038V354.604H140.532V355.765H136.39V366.462H135.18ZM144.297 366.709C143.43 366.709 142.678 366.517 142.041 366.133C141.409 365.748 140.918 365.208 140.567 364.51C140.215 363.813 140.04 362.995 140.04 362.056C140.04 361.085 140.213 360.245 140.559 359.537C140.904 358.828 141.39 358.282 142.016 357.898C142.647 357.514 143.391 357.321 144.248 357.321C145.126 357.321 145.875 357.525 146.496 357.931C147.116 358.332 147.585 358.908 147.904 359.66C148.222 360.412 148.368 361.31 148.34 362.353H147.105V361.925C147.083 360.772 146.833 359.902 146.356 359.314C145.884 358.727 145.192 358.433 144.281 358.433C143.325 358.433 142.593 358.743 142.082 359.364C141.577 359.984 141.324 360.868 141.324 362.015C141.324 363.135 141.577 364.005 142.082 364.626C142.593 365.24 143.314 365.548 144.248 365.548C144.884 365.548 145.439 365.402 145.911 365.111C146.389 364.815 146.765 364.39 147.039 363.835L148.167 364.271C147.816 365.046 147.297 365.647 146.611 366.075C145.93 366.498 145.159 366.709 144.297 366.709ZM140.896 362.353V361.34H147.69V362.353H140.896ZM153.857 366.709C152.962 366.709 152.204 366.509 151.584 366.108C150.964 365.707 150.492 365.155 150.168 364.453C149.849 363.744 149.685 362.932 149.674 362.015C149.685 361.082 149.855 360.264 150.184 359.561C150.514 358.853 150.988 358.304 151.609 357.914C152.229 357.519 152.981 357.321 153.865 357.321C154.765 357.321 155.548 357.541 156.212 357.98C156.882 358.419 157.34 359.021 157.587 359.784L156.401 360.162C156.193 359.63 155.861 359.218 155.405 358.927C154.955 358.631 154.439 358.483 153.857 358.483C153.204 358.483 152.663 358.633 152.235 358.935C151.806 359.232 151.488 359.646 151.279 360.179C151.071 360.711 150.964 361.323 150.958 362.015C150.969 363.08 151.216 363.937 151.699 364.584C152.183 365.227 152.902 365.548 153.857 365.548C154.461 365.548 154.974 365.411 155.397 365.136C155.825 364.856 156.149 364.45 156.368 363.917L157.587 364.28C157.258 365.07 156.775 365.674 156.138 366.091C155.501 366.503 154.741 366.709 153.857 366.709ZM165.71 366.462V361.925C165.71 361.431 165.663 360.978 165.57 360.566C165.477 360.149 165.326 359.786 165.117 359.479C164.914 359.166 164.648 358.924 164.318 358.754C163.994 358.584 163.599 358.499 163.133 358.499C162.704 358.499 162.326 358.573 161.996 358.721C161.672 358.87 161.398 359.084 161.173 359.364C160.953 359.638 160.786 359.973 160.67 360.368C160.555 360.764 160.498 361.214 160.498 361.719L159.641 361.529C159.641 360.618 159.8 359.852 160.119 359.232C160.437 358.612 160.876 358.142 161.436 357.824C161.996 357.505 162.639 357.346 163.363 357.346C163.896 357.346 164.36 357.428 164.755 357.593C165.156 357.758 165.493 357.98 165.768 358.26C166.048 358.54 166.273 358.861 166.443 359.224C166.613 359.58 166.737 359.962 166.813 360.368C166.89 360.769 166.929 361.17 166.929 361.571V366.462H165.71ZM159.279 366.462V354.604H160.374V361.299H160.498V366.462H159.279Z" fill="white"/>
<path d="M26.739 525.23V517.078H29.8867C29.966 517.078 30.0547 517.081 30.1528 517.089C30.2547 517.093 30.3566 517.104 30.4585 517.123C30.885 517.187 31.2454 517.336 31.5398 517.57C31.838 517.8 32.0626 518.091 32.2135 518.442C32.3683 518.793 32.4456 519.182 32.4456 519.608C32.4456 520.223 32.2833 520.758 31.9588 521.21C31.6342 521.663 31.17 521.948 30.5661 522.065L30.2773 522.133H27.5712V525.23H26.739ZM31.6757 525.23L30.0679 521.912L30.8661 521.607L32.6325 525.23H31.6757ZM27.5712 521.341H29.8641C29.932 521.341 30.0113 521.337 30.1018 521.329C30.1924 521.322 30.2811 521.309 30.3679 521.29C30.6472 521.229 30.8756 521.114 31.0529 520.944C31.2341 520.775 31.3681 520.573 31.4549 520.339C31.5455 520.105 31.5908 519.861 31.5908 519.608C31.5908 519.355 31.5455 519.112 31.4549 518.878C31.3681 518.64 31.2341 518.436 31.0529 518.267C30.8756 518.097 30.6472 517.982 30.3679 517.921C30.2811 517.902 30.1924 517.891 30.1018 517.887C30.0113 517.88 29.932 517.876 29.8641 517.876H27.5712V521.341ZM36.4692 525.4C35.8729 525.4 35.3559 525.268 34.918 525.004C34.484 524.739 34.1462 524.368 33.9047 523.888C33.6631 523.409 33.5423 522.847 33.5423 522.201C33.5423 521.533 33.6612 520.956 33.899 520.469C34.1368 519.982 34.4708 519.606 34.9011 519.342C35.3351 519.078 35.8465 518.946 36.4353 518.946C37.0392 518.946 37.5543 519.086 37.9808 519.365C38.4073 519.64 38.73 520.037 38.9489 520.554C39.1678 521.071 39.2678 521.688 39.249 522.405H38.3998V522.111C38.3847 521.318 38.2129 520.72 37.8846 520.316C37.56 519.912 37.0844 519.71 36.4579 519.71C35.8012 519.71 35.2974 519.923 34.9464 520.35C34.5991 520.776 34.4255 521.384 34.4255 522.173C34.4255 522.943 34.5991 523.541 34.9464 523.968C35.2974 524.39 35.7937 524.602 36.4353 524.602C36.8731 524.602 37.2543 524.502 37.5789 524.302C37.9072 524.098 38.1658 523.805 38.3545 523.424L39.1301 523.724C38.8885 524.256 38.5319 524.67 38.0601 524.964C37.5921 525.255 37.0618 525.4 36.4692 525.4ZM34.1311 522.405V521.709H38.8017V522.405H34.1311ZM42.1441 525.4C41.6837 525.4 41.2968 525.317 40.9835 525.151C40.6741 524.985 40.4419 524.764 40.2872 524.488C40.1325 524.213 40.0551 523.913 40.0551 523.588C40.0551 523.256 40.1211 522.973 40.2532 522.739C40.3891 522.501 40.5721 522.307 40.8024 522.156C41.0364 522.005 41.3062 521.89 41.6119 521.811C41.9214 521.735 42.263 521.669 42.6366 521.612C43.0141 521.552 43.3821 521.501 43.7406 521.46C44.1029 521.414 44.42 521.371 44.6917 521.329L44.3973 521.51C44.4086 520.907 44.2916 520.459 44.0463 520.169C43.801 519.878 43.3745 519.733 42.7669 519.733C42.3479 519.733 41.9931 519.827 41.7025 520.016C41.4157 520.205 41.2138 520.503 41.0968 520.91L40.2872 520.673C40.4268 520.125 40.708 519.701 41.1307 519.399C41.5534 519.097 42.1026 518.946 42.7782 518.946C43.3368 518.946 43.8104 519.052 44.1992 519.263C44.5917 519.471 44.8691 519.772 45.0314 520.169C45.1069 520.346 45.1559 520.544 45.1786 520.763C45.2012 520.982 45.2126 521.205 45.2126 521.431V525.23H44.4709V523.696L44.686 523.786C44.4785 524.311 44.1558 524.711 43.718 524.987C43.2802 525.262 42.7555 525.4 42.1441 525.4ZM42.2404 524.681C42.6291 524.681 42.9688 524.611 43.2594 524.471C43.55 524.332 43.784 524.141 43.9614 523.9C44.1388 523.654 44.2539 523.379 44.3067 523.073C44.352 522.877 44.3766 522.662 44.3803 522.428C44.3841 522.19 44.386 522.012 44.386 521.895L44.703 522.06C44.42 522.097 44.1124 522.135 43.7802 522.173C43.4519 522.211 43.1273 522.254 42.8065 522.303C42.4895 522.352 42.2026 522.411 41.946 522.479C41.7724 522.528 41.6044 522.597 41.4421 522.688C41.2798 522.775 41.1458 522.892 41.0402 523.039C40.9382 523.186 40.8873 523.369 40.8873 523.588C40.8873 523.766 40.9307 523.937 41.0175 524.103C41.1081 524.269 41.2515 524.407 41.4478 524.517C41.6478 524.626 41.912 524.681 42.2404 524.681ZM46.7996 525.23V516.908H47.6318V525.23H46.7996ZM49.2158 522.02V521.307H52.6126V522.02H49.2158ZM55.3244 525.23L52.9693 517.078H53.8355L55.7433 523.809L57.6399 517.083L58.5117 517.078L60.4196 523.809L62.3161 517.078H63.188L60.8385 525.23H60.0007L58.0758 518.544L56.1623 525.23H55.3244ZM66.0467 525.4C65.439 525.4 64.9201 525.262 64.4898 524.987C64.0596 524.711 63.7293 524.33 63.4991 523.843C63.2689 523.356 63.1537 522.797 63.1537 522.167C63.1537 521.526 63.2707 520.963 63.5047 520.48C63.7388 519.997 64.0709 519.621 64.5011 519.354C64.9352 519.082 65.4504 518.946 66.0467 518.946C66.6581 518.946 67.179 519.084 67.6092 519.359C68.0432 519.631 68.3735 520.01 68.5999 520.497C68.8302 520.98 68.9453 521.537 68.9453 522.167C68.9453 522.809 68.8302 523.373 68.5999 523.86C68.3697 524.343 68.0376 524.72 67.6036 524.992C67.1695 525.264 66.6506 525.4 66.0467 525.4ZM66.0467 524.602C66.726 524.602 67.2318 524.377 67.5639 523.928C67.8961 523.475 68.0621 522.888 68.0621 522.167C68.0621 521.427 67.8942 520.839 67.5583 520.401C67.2261 519.963 66.7223 519.744 66.0467 519.744C65.59 519.744 65.2126 519.848 64.9144 520.056C64.62 520.259 64.3992 520.544 64.252 520.91C64.1086 521.273 64.0369 521.692 64.0369 522.167C64.0369 522.903 64.2068 523.494 64.5464 523.939C64.8861 524.381 65.3862 524.602 66.0467 524.602ZM70.1941 525.23V519.116H70.9414V520.588L70.7942 520.395C70.8622 520.214 70.9509 520.048 71.0603 519.897C71.1698 519.742 71.2887 519.616 71.417 519.518C71.5755 519.378 71.7604 519.272 71.9718 519.201C72.1832 519.125 72.3964 519.082 72.6115 519.07C72.8267 519.055 73.0229 519.07 73.2003 519.116V519.897C72.9776 519.84 72.7342 519.827 72.47 519.857C72.2058 519.888 71.9624 519.993 71.7397 520.174C71.5359 520.333 71.383 520.524 71.2811 520.746C71.1792 520.965 71.1113 521.199 71.0773 521.448C71.0433 521.694 71.0264 521.937 71.0264 522.179V525.23H70.1941ZM74.3875 525.23V516.908H75.2197V525.23H74.3875ZM79.2891 525.4C78.7192 525.4 78.2323 525.258 77.8284 524.975C77.4246 524.688 77.1151 524.302 76.9 523.815C76.6848 523.328 76.5773 522.779 76.5773 522.167C76.5773 521.56 76.683 521.012 76.8943 520.525C77.1094 520.039 77.417 519.654 77.8171 519.371C78.2172 519.087 78.6965 518.946 79.2551 518.946C79.8288 518.946 80.3119 519.086 80.7044 519.365C81.0969 519.644 81.3932 520.027 81.5932 520.514C81.797 520.997 81.8989 521.548 81.8989 522.167C81.8989 522.775 81.7989 523.324 81.5989 523.815C81.3988 524.302 81.1045 524.688 80.7157 524.975C80.327 525.258 79.8514 525.4 79.2891 525.4ZM79.374 524.624C79.808 524.624 80.1666 524.519 80.4496 524.307C80.7327 524.096 80.9441 523.805 81.0837 523.435C81.2233 523.062 81.2932 522.639 81.2932 522.167C81.2932 521.688 81.2233 521.265 81.0837 520.899C80.9441 520.529 80.7327 520.24 80.4496 520.033C80.1703 519.825 79.8175 519.722 79.391 519.722C78.9532 519.722 78.5908 519.829 78.304 520.044C78.0171 520.259 77.8039 520.552 77.6643 520.922C77.5284 521.292 77.4605 521.707 77.4605 522.167C77.4605 522.631 77.5303 523.05 77.6699 523.424C77.8133 523.794 78.0266 524.086 78.3097 524.302C78.5927 524.517 78.9475 524.624 79.374 524.624ZM81.2932 525.23V520.627H81.2026V517.078H82.0405V525.23H81.2932ZM88.7261 525.4C88.1562 525.4 87.6429 525.305 87.1863 525.117C86.7334 524.924 86.3578 524.653 86.0597 524.302C85.7653 523.951 85.5728 523.533 85.4822 523.05L86.3314 522.909C86.4673 523.437 86.7541 523.852 87.1919 524.154C87.6297 524.452 88.1525 524.602 88.7601 524.602C89.1602 524.602 89.5187 524.539 89.8358 524.415C90.1528 524.286 90.4019 524.105 90.5831 523.871C90.7642 523.637 90.8548 523.36 90.8548 523.039C90.8548 522.828 90.8171 522.648 90.7416 522.501C90.6661 522.35 90.5661 522.226 90.4415 522.128C90.317 522.029 90.1811 521.948 90.0339 521.884C89.8867 521.816 89.7433 521.761 89.6037 521.72L87.5373 521.103C87.2882 521.031 87.0579 520.941 86.8466 520.831C86.6352 520.718 86.4503 520.584 86.2918 520.429C86.137 520.271 86.0163 520.086 85.9294 519.874C85.8426 519.663 85.7992 519.421 85.7992 519.15C85.7992 518.689 85.92 518.291 86.1616 517.955C86.4031 517.619 86.7334 517.361 87.1523 517.18C87.5712 516.998 88.0487 516.91 88.5846 516.913C89.1281 516.913 89.6131 517.01 90.0396 517.202C90.4698 517.395 90.8246 517.67 91.1039 518.029C91.3832 518.384 91.5681 518.804 91.6587 519.291L90.7869 519.45C90.7303 519.095 90.6 518.787 90.3962 518.527C90.1924 518.267 89.932 518.067 89.615 517.927C89.3017 517.783 88.9564 517.71 88.5789 517.706C88.2129 517.706 87.8864 517.768 87.5995 517.893C87.3165 518.014 87.0919 518.18 86.9258 518.391C86.7598 518.602 86.6767 518.844 86.6767 519.116C86.6767 519.391 86.7522 519.612 86.9032 519.778C87.0579 519.944 87.2467 520.074 87.4693 520.169C87.6958 520.263 87.9147 520.34 88.126 520.401L89.7225 520.871C89.8886 520.916 90.083 520.982 90.3057 521.069C90.5321 521.152 90.751 521.273 90.9624 521.431C91.1775 521.586 91.3549 521.79 91.4945 522.043C91.6342 522.296 91.704 522.616 91.704 523.005C91.704 523.383 91.6285 523.72 91.4776 524.018C91.3304 524.317 91.1209 524.568 90.8491 524.771C90.5812 524.975 90.266 525.13 89.9037 525.236C89.5451 525.345 89.1526 525.4 88.7261 525.4ZM95.4259 525.4C94.8182 525.4 94.2993 525.262 93.869 524.987C93.4388 524.711 93.1085 524.33 92.8783 523.843C92.6481 523.356 92.5329 522.797 92.5329 522.167C92.5329 521.526 92.6499 520.963 92.8839 520.48C93.118 519.997 93.4501 519.621 93.8803 519.354C94.3144 519.082 94.8296 518.946 95.4259 518.946C96.0373 518.946 96.5582 519.084 96.9884 519.359C97.4224 519.631 97.7527 520.01 97.9791 520.497C98.2094 520.98 98.3245 521.537 98.3245 522.167C98.3245 522.809 98.2094 523.373 97.9791 523.86C97.7489 524.343 97.4168 524.72 96.9828 524.992C96.5487 525.264 96.0298 525.4 95.4259 525.4ZM95.4259 524.602C96.1052 524.602 96.611 524.377 96.9431 523.928C97.2753 523.475 97.4413 522.888 97.4413 522.167C97.4413 521.427 97.2734 520.839 96.9375 520.401C96.6053 519.963 96.1015 519.744 95.4259 519.744C94.9692 519.744 94.5918 519.848 94.2936 520.056C93.9992 520.259 93.7784 520.544 93.6312 520.91C93.4878 521.273 93.4161 521.692 93.4161 522.167C93.4161 522.903 93.586 523.494 93.9256 523.939C94.2653 524.381 94.7654 524.602 95.4259 524.602ZM99.6866 525.23V516.908H100.519V525.23H99.6866ZM104.554 525.383C104.188 525.383 103.867 525.326 103.592 525.213C103.32 525.1 103.088 524.947 102.895 524.754C102.707 524.562 102.554 524.343 102.437 524.098C102.32 523.849 102.235 523.586 102.182 523.311C102.129 523.031 102.103 522.754 102.103 522.479V519.116H102.941V522.235C102.941 522.571 102.973 522.882 103.037 523.169C103.101 523.456 103.203 523.707 103.343 523.922C103.486 524.134 103.669 524.298 103.892 524.415C104.118 524.532 104.392 524.59 104.713 524.59C105.007 524.59 105.266 524.539 105.488 524.437C105.715 524.335 105.903 524.19 106.054 524.001C106.209 523.809 106.326 523.577 106.405 523.305C106.485 523.03 106.524 522.72 106.524 522.377L107.113 522.507C107.113 523.133 107.004 523.66 106.785 524.086C106.566 524.513 106.264 524.836 105.879 525.054C105.494 525.273 105.052 525.383 104.554 525.383ZM106.609 525.23V523.724H106.524V519.116H107.357V525.23H106.609ZM112.268 525.23C111.924 525.302 111.585 525.33 111.249 525.315C110.917 525.3 110.618 525.228 110.354 525.1C110.094 524.971 109.896 524.771 109.76 524.5C109.65 524.273 109.59 524.045 109.579 523.815C109.571 523.581 109.567 523.315 109.567 523.016V517.417H110.394V522.982C110.394 523.239 110.396 523.454 110.399 523.628C110.407 523.798 110.447 523.949 110.518 524.081C110.654 524.334 110.869 524.485 111.164 524.534C111.462 524.583 111.83 524.571 112.268 524.5V525.23ZM108.259 519.829V519.116H112.268V519.829H108.259ZM113.586 517.955V517.021H114.418V517.955H113.586ZM113.586 525.23V519.116H114.418V525.23H113.586ZM118.668 525.4C118.061 525.4 117.542 525.262 117.111 524.987C116.681 524.711 116.351 524.33 116.121 523.843C115.89 523.356 115.775 522.797 115.775 522.167C115.775 521.526 115.892 520.963 116.126 520.48C116.36 519.997 116.692 519.621 117.123 519.354C117.557 519.082 118.072 518.946 118.668 518.946C119.28 518.946 119.801 519.084 120.231 519.359C120.665 519.631 120.995 520.01 121.222 520.497C121.452 520.98 121.567 521.537 121.567 522.167C121.567 522.809 121.452 523.373 121.222 523.86C120.991 524.343 120.659 524.72 120.225 524.992C119.791 525.264 119.272 525.4 118.668 525.4ZM118.668 524.602C119.348 524.602 119.853 524.377 120.186 523.928C120.518 523.475 120.684 522.888 120.684 522.167C120.684 521.427 120.516 520.839 120.18 520.401C119.848 519.963 119.344 519.744 118.668 519.744C118.212 519.744 117.834 519.848 117.536 520.056C117.242 520.259 117.021 520.544 116.874 520.91C116.73 521.273 116.659 521.692 116.659 522.167C116.659 522.903 116.828 523.494 117.168 523.939C117.508 524.381 118.008 524.602 118.668 524.602ZM127.232 525.23V522.111C127.232 521.771 127.2 521.46 127.135 521.176C127.071 520.89 126.967 520.641 126.824 520.429C126.684 520.214 126.501 520.048 126.275 519.931C126.052 519.814 125.78 519.755 125.46 519.755C125.165 519.755 124.905 519.806 124.678 519.908C124.456 520.01 124.267 520.157 124.112 520.35C123.961 520.539 123.846 520.769 123.767 521.041C123.688 521.312 123.648 521.622 123.648 521.969L123.059 521.839C123.059 521.212 123.169 520.686 123.388 520.259C123.606 519.833 123.908 519.51 124.293 519.291C124.678 519.072 125.12 518.963 125.618 518.963C125.984 518.963 126.303 519.02 126.575 519.133C126.85 519.246 127.083 519.399 127.271 519.591C127.464 519.784 127.618 520.005 127.735 520.254C127.852 520.499 127.937 520.761 127.99 521.041C128.043 521.316 128.069 521.592 128.069 521.867V525.23H127.232ZM122.81 525.23V519.116H123.563V520.622H123.648V525.23H122.81ZM131.82 525.394C131.103 525.394 130.512 525.239 130.048 524.93C129.588 524.62 129.305 524.19 129.199 523.639L130.048 523.498C130.139 523.845 130.344 524.122 130.665 524.33C130.99 524.534 131.39 524.636 131.865 524.636C132.33 524.636 132.696 524.539 132.964 524.347C133.232 524.151 133.366 523.884 133.366 523.549C133.366 523.36 133.322 523.207 133.235 523.09C133.152 522.969 132.981 522.858 132.72 522.756C132.46 522.654 132.071 522.533 131.554 522.394C130.999 522.243 130.565 522.092 130.252 521.941C129.939 521.79 129.716 521.616 129.584 521.42C129.452 521.22 129.386 520.976 129.386 520.69C129.386 520.342 129.484 520.039 129.68 519.778C129.876 519.514 130.148 519.31 130.495 519.167C130.843 519.02 131.246 518.946 131.707 518.946C132.167 518.946 132.579 519.021 132.941 519.172C133.307 519.32 133.602 519.527 133.824 519.795C134.047 520.063 134.179 520.374 134.22 520.729L133.371 520.882C133.315 520.524 133.135 520.24 132.833 520.033C132.535 519.822 132.156 519.712 131.696 519.705C131.262 519.693 130.909 519.776 130.637 519.954C130.365 520.127 130.229 520.359 130.229 520.65C130.229 520.812 130.278 520.952 130.376 521.069C130.475 521.182 130.652 521.29 130.909 521.392C131.169 521.494 131.539 521.605 132.018 521.726C132.581 521.869 133.022 522.02 133.343 522.179C133.664 522.337 133.892 522.524 134.028 522.739C134.164 522.954 134.232 523.22 134.232 523.537C134.232 524.115 134.017 524.569 133.586 524.902C133.16 525.23 132.571 525.394 131.82 525.394Z" fill="white"/>
<path d="M330.786 537.725C330.753 540.293 333.074 541.726 334.823 542.578C336.619 543.453 337.223 544.013 337.216 544.795C337.202 545.991 335.783 546.519 334.454 546.54C332.137 546.576 330.789 545.914 329.718 545.414L328.883 549.32C329.958 549.816 331.948 550.248 334.012 550.267C338.856 550.267 342.026 547.875 342.043 544.167C342.062 539.462 335.534 539.201 335.579 537.098C335.594 536.46 336.203 535.78 337.536 535.607C338.196 535.519 340.019 535.452 342.084 536.404L342.895 532.624C341.784 532.219 340.356 531.832 338.579 531.832C334.019 531.832 330.811 534.256 330.786 537.725ZM350.686 532.158C349.802 532.158 349.056 532.674 348.723 533.466L341.803 549.989H346.644L347.607 547.327H353.523L354.082 549.989H358.349L354.625 532.158H350.686ZM351.363 536.975L352.76 543.67H348.934L351.363 536.975ZM324.916 532.158L321.1 549.989H325.713L329.528 532.158H324.916ZM318.092 532.158L313.29 544.294L311.348 533.975C311.12 532.823 310.22 532.158 309.221 532.158H301.371L301.262 532.675C302.873 533.025 304.704 533.589 305.813 534.192C306.492 534.561 306.686 534.883 306.908 535.759L310.587 549.989H315.462L322.936 532.158H318.092Z" fill="white"/>
</g>
<rect x="1.07223" y="0.585901" width="372.567" height="568.395" rx="6.71611" stroke="#00191F" stroke-width="0.706959"/>
<defs>
<clipPath id="clip0_8103_4517">
<rect x="0.71875" y="0.232422" width="373.274" height="569.102" rx="7.06959" fill="white"/>
</clipPath>
</defs>
</svg>
