<svg width="121" height="19" viewBox="0 0 121 19" fill="none" xmlns="http://www.w3.org/2000/svg">
<g clip-path="url(#clip0_2588_6850)">
<path d="M18.3405 9.30002C18.3405 14.3277 14.2926 18.4036 9.29903 18.4036C4.30547 18.4036 0.257812 14.3289 0.257812 9.30002C0.257812 4.27116 4.30577 0.196795 9.29903 0.196795C14.2923 0.196795 18.3405 4.27239 18.3405 9.30002ZM28.2592 9.30002C28.2592 14.0329 26.2351 17.8694 23.7384 17.8694C21.2418 17.8694 19.2177 14.0317 19.2177 9.30002C19.2177 4.56835 21.2418 0.73069 23.7384 0.73069C26.2351 0.73069 28.2592 4.56835 28.2592 9.30002ZM32.3161 9.30002C32.3161 13.5405 31.6041 16.9778 30.726 16.9778C29.848 16.9778 29.136 13.5393 29.136 9.30002C29.136 5.06079 29.848 1.62225 30.7264 1.62225C31.6047 1.62225 32.3161 5.05987 32.3161 9.30002ZM57.2691 0.986124L57.2943 0.980598V0.785645H52.1525L47.3781 12.007L42.6038 0.785645H37.0628V0.980598L37.0877 0.986124C38.0262 1.19796 38.5027 1.51388 38.5027 2.6532V15.9914C38.5027 17.1307 38.0244 17.4466 37.0858 17.6584L37.0609 17.664V17.8595H40.8203V17.6646L40.7954 17.6591C39.8569 17.4472 39.3804 17.1313 39.3804 15.992V3.42687L45.5136 17.8595H45.8615L52.1733 3.02438V16.3214C52.0929 17.2213 51.6207 17.4991 50.7709 17.691L50.7457 17.6968V17.8902H57.2943V17.6968L57.2691 17.691C56.4184 17.4991 55.9348 17.2213 55.8544 16.3214L55.8501 2.6532H55.8544C55.8544 1.51388 56.3309 1.19796 57.2691 0.986124ZM60.2603 9.82195C60.3675 7.42541 61.2281 5.6957 62.6722 5.66592C63.1177 5.67328 63.4914 5.81942 63.7818 6.10065C64.3989 6.69963 64.689 7.95132 64.6442 9.82195H60.2603ZM60.1956 10.4974H67.8709V10.4651C67.8491 8.63258 67.3183 7.20712 66.2947 6.22836C65.4099 5.38254 64.0998 4.91711 62.7238 4.91711H62.6931C61.979 4.91711 61.1031 5.09027 60.4799 5.40403C59.7704 5.73254 59.1447 6.22376 58.624 6.86848C57.7858 7.90711 57.278 9.31077 57.1546 10.8882C57.1506 10.9355 57.1472 10.9828 57.1439 11.03C57.1405 11.0773 57.1384 11.1197 57.1362 11.1648C57.1253 11.3866 57.1216 11.6087 57.1252 11.8307C57.2083 15.4034 59.1382 18.2586 62.566 18.2586C65.5747 18.2586 67.3269 16.0592 67.7637 13.107L67.543 13.0293C66.7755 14.6159 65.397 15.5775 63.8281 15.4602C61.6864 15.3 60.0457 13.1285 60.1946 10.498M76.5489 15.339C76.2971 15.9361 75.7719 16.2646 75.0679 16.2646C74.3639 16.2646 73.7204 15.7814 73.2633 14.9033C72.772 13.9608 72.5135 12.6283 72.5135 11.05C72.5135 7.76496 73.5353 5.64013 75.1167 5.64013C75.7789 5.64013 76.3002 5.96863 76.5489 6.54182V15.339ZM81.6404 17.6809C80.7019 17.4589 80.2254 17.1282 80.2254 15.9309V0L74.5232 1.67997V1.88567L74.5582 1.88291C75.3448 1.81936 75.8784 1.92804 76.1882 2.21417C76.4307 2.43829 76.5489 2.78215 76.5489 3.266V5.45009C75.9868 5.09119 75.3181 4.9165 74.5067 4.9165C72.8611 4.9165 71.357 5.60943 70.2723 6.86787C69.1416 8.17943 68.5439 9.97177 68.5439 12.0505C68.5434 15.7633 70.3712 18.2586 73.0913 18.2586C74.6826 18.2586 75.9628 17.3867 76.5489 15.9161V17.8902H81.6653V17.6858L81.6404 17.6809ZM86.5308 2.16659C86.5308 1.00731 85.6567 0.132936 84.4972 0.132936C83.3431 0.132936 82.4402 1.02634 82.4402 2.16659C82.4402 3.30683 83.344 4.20024 84.4972 4.20024C85.6567 4.20024 86.5308 3.32587 86.5308 2.16659ZM87.8767 17.6809C86.9382 17.4589 86.4617 17.1282 86.4617 15.9309H86.4577V4.95426L81.3411 6.42332V6.62287L81.3718 6.62564C82.4789 6.72419 82.7819 7.1055 82.7819 8.39925V17.8902H87.9028V17.6858L87.8767 17.6809ZM100.988 17.6809C100.049 17.4589 99.5727 17.1282 99.5727 15.9309V4.95426L94.701 6.37481V6.57498L94.7299 6.57805C95.6349 6.67322 95.8965 7.07633 95.8965 8.37592V15.3144C95.5947 15.9115 95.0286 16.2661 94.3427 16.2901C93.2304 16.2901 92.6179 15.5388 92.6179 14.1748V4.95457L87.5013 6.42362V6.62287L87.532 6.62564C88.6391 6.72388 88.9424 7.10519 88.9424 8.39925V14.2715C88.9398 14.6814 88.9754 15.0907 89.0489 15.494L89.141 15.8947C89.5742 17.4469 90.7092 18.2586 92.4875 18.2586C93.9937 18.2586 95.3138 17.3263 95.8953 15.8673V17.8936H101.012V17.6891L100.988 17.6809ZM120.865 17.8902V17.6855L120.84 17.6796C119.821 17.4448 119.425 17.002 119.425 16.1007V8.63411C119.425 6.30604 118.117 4.9165 115.927 4.9165C114.33 4.9165 112.984 5.83907 112.466 7.2762C112.054 5.75341 110.87 4.9165 109.118 4.9165C107.579 4.9165 106.373 5.72855 105.856 7.10028V4.95518L100.739 6.36406V6.56485L100.77 6.56761C101.864 6.66463 102.18 7.05699 102.18 8.31758V17.8902H106.954V17.6858L106.929 17.6796C106.116 17.4887 105.854 17.1405 105.854 16.2471V7.68882C106.069 7.18686 106.502 6.59217 107.359 6.59217C108.422 6.59217 108.961 7.329 108.961 8.78056V17.8902H113.736V17.6858L113.711 17.6796C112.899 17.4887 112.637 17.1405 112.637 16.2471V8.63319C112.639 8.3485 112.616 8.06417 112.569 7.78338C112.797 7.23782 113.255 6.59217 114.146 6.59217C115.225 6.59217 115.749 7.30782 115.749 8.78056V17.8902H120.865Z" fill="black"/>
</g>
<defs>
<clipPath id="clip0_2588_6850">
<rect width="120.611" height="18.4555" fill="white" transform="translate(0.257812)"/>
</clipPath>
</defs>
</svg>
