<svg width="161" height="46" viewBox="0 0 161 46" fill="none" xmlns="http://www.w3.org/2000/svg">
<g clip-path="url(#clip0_3346_42211)">
<g clip-path="url(#clip1_3346_42211)">
<path fill-rule="evenodd" clip-rule="evenodd" d="M33.2539 13.9599V43.9315C33.2539 44.5703 33.9692 43.9791 34.8079 43.4942L41.8478 39.6926C42.4827 39.351 42.9623 39.0461 43.6177 38.6968L50.716 34.8428C51.3158 34.4846 51.885 34.2088 52.4847 33.8457L61.3577 29.0009V15.0658C60.93 15.1799 60.7371 15.5193 60.4448 15.8123L43.74 33.0678C43.5366 33.2982 43.5323 33.3288 43.3226 33.5354C43.1129 33.7419 43.1086 33.7727 42.9053 34.0031L34.4711 42.6043C34.4711 41.8682 36.0694 37.6058 36.3372 36.7279L36.8081 35.3185C38.1091 31.1805 39.8108 26.4271 41.2063 22.2404C41.4683 21.4543 42.0863 20.0236 42.1056 19.1578C41.7169 19.054 38.2631 16.7398 37.6349 16.3272L34.2714 14.1593C33.9977 13.9813 33.254 13.3124 33.254 13.9598L33.2539 13.9599Z" fill="white"/>
<path fill-rule="evenodd" clip-rule="evenodd" d="M51.0553 20.1529C51.5917 20.1529 52.9746 18.9803 53.4458 18.6714C53.8945 18.3773 54.0805 18.1693 54.5287 17.8737C55.2729 17.3829 59.8985 13.9395 60.2387 13.8488V13.517C59.7293 13.3983 59.149 12.9674 58.542 12.6694L54.4498 10.4556C54.1167 10.2695 53.9301 10.1492 53.5994 9.97848L50.3192 8.16976C49.716 7.86382 49.1968 7.63909 48.6423 7.30215C46.5416 6.02527 42.7428 4.12794 40.3981 2.82428L33.7279 -0.805386C32.3874 -1.6448 33.3878 0.358896 33.0504 2.81937C32.933 3.67514 33.0681 4.54103 33.1249 5.22814C33.2026 6.16427 33.0393 6.89623 33.0166 7.65178C32.9872 8.62544 33.1332 9.26233 33.1357 10.0866C33.1393 11.2276 32.8007 11.4475 33.7285 11.8137C34.1645 11.9857 34.1859 12.0328 34.5556 12.2036L51.0554 20.1529H51.0553Z" fill="white"/>
<path fill-rule="evenodd" clip-rule="evenodd" d="M79.2698 17.6091C79.2698 17.864 79.3467 17.9408 79.6017 17.9408C80.1561 17.9408 79.9336 16.1144 79.9336 15.0654C79.9336 13.9962 79.9336 12.9271 79.9336 11.858C79.9508 11.8779 79.9756 11.8842 79.9822 11.9199L82.5386 17.3275C82.7266 17.8158 82.6116 17.8966 83.1422 17.9407L85.9083 11.9687C85.9083 13.083 86.0189 13.822 86.0189 14.8441C86.0189 16.0009 85.764 16.8467 86.0189 17.9407C86.4036 17.9407 86.6827 18.0084 86.6827 17.609V10.4203C86.6827 10.0402 86.1145 9.7393 85.6865 10.7516L84.5435 13.2588C84.2696 13.8033 83.1704 16.1282 83.0315 16.7243C82.7869 16.545 80.4767 11.3633 80.1247 10.5608C79.898 10.0439 79.9525 10.0885 79.2695 10.0885V17.609L79.2698 17.6091Z" fill="white"/>
<path fill-rule="evenodd" clip-rule="evenodd" d="M70.1915 30.6599H69.085V24.0243C70.4126 24.0243 70.4806 23.9346 71.7205 24.2655C72.1372 24.3766 72.3693 24.4513 72.6749 24.7491C74.3435 26.3761 74.0955 30.6599 70.1915 30.6599ZM68.3105 23.9136C68.3105 25.392 68.1654 30.2265 68.4212 31.3236C70.8396 31.3236 72.9482 31.3678 73.9257 29.1945C74.7901 27.273 74.4681 24.9176 72.7338 23.9162C71.4789 23.1916 70.3196 23.3606 68.4213 23.3606C68.3634 23.6087 68.3106 23.6149 68.3106 23.9135L68.3105 23.9136Z" fill="white"/>
<path fill-rule="evenodd" clip-rule="evenodd" d="M115.785 11.1946V12.3005C114.765 12.3005 114.803 12.2208 114.789 12.8535C116.067 12.8535 115.785 12.5889 115.785 15.3972C115.785 16.4557 115.57 17.9409 116.117 17.9409C116.372 17.9409 116.449 17.864 116.449 17.6092V12.9641C118.114 12.9641 117.031 12.7832 118.643 12.919C118.899 12.9405 118.826 12.6512 118.973 13.0941C119.304 14.092 118.141 18.4841 120.503 18.1274C120.829 18.0783 121.024 17.9573 121.084 17.7078C121.104 17.6219 121.096 17.4786 121.096 17.3879C119.491 17.4236 119.657 18.2984 119.657 13.1852C119.657 12.7125 120.099 12.8552 120.551 12.8571C121.351 12.8607 121.145 12.8975 121.096 12.3005H119.657V11.0839C119.657 10.661 119.691 11.0437 119.547 10.7522C118.844 10.8106 118.993 11.0499 118.993 12.3005H118.33C117.798 12.3005 118.387 12.461 117.931 12.4119C117.918 12.4104 117.888 12.4001 117.873 12.3972L117.735 12.3523C117.267 12.2465 116.925 12.3005 116.449 12.3005C116.449 11.5858 116.336 10.7168 116.804 10.3307C117.255 9.9594 117.399 10.1992 117.887 10.1992C118.085 10.1992 118.469 9.53564 117.223 9.53564C116.427 9.53564 115.785 10.3397 115.785 11.1946H115.785Z" fill="white"/>
<path fill-rule="evenodd" clip-rule="evenodd" d="M92.7576 26.1246C92.7072 25.5194 92.5484 25.5764 92.0938 25.6823V31.212C92.5268 31.3127 92.3246 31.3127 92.7576 31.212C92.7576 28.5487 92.3142 26.1246 94.4173 26.1246C96.1256 26.1246 95.5237 29.2793 95.5237 30.8803C95.5237 31.176 95.6835 31.2073 95.8556 31.3226C96.2525 31.2167 96.1879 31.2349 96.2339 30.9093C96.2534 30.7709 96.291 30.3194 96.2994 30.1023C96.3477 28.8725 95.5484 26.1246 97.9579 26.1246C98.6249 26.1246 98.8508 26.685 98.9459 26.9066C99.1534 27.3898 99.0688 29.7407 99.0579 30.4445C99.0332 32.0313 100.041 31.639 99.6815 29.2679C99.4173 27.5234 100.245 25.461 97.7366 25.461C96.782 25.461 96.531 26.0784 95.9663 26.4563C94.8872 24.418 92.9242 26.0802 92.7576 26.1246Z" fill="white"/>
<path fill-rule="evenodd" clip-rule="evenodd" d="M123.751 30.7701C121.706 30.7701 121.335 27.01 123.751 27.01C125.97 27.01 125.882 30.7701 123.751 30.7701ZM121.316 27.3417C121.316 28.7 121.584 31.4337 123.308 31.4337H123.861C126.648 31.4337 126.835 26.3464 124.082 26.3464C123.521 26.3464 123.082 26.3173 122.622 26.6558L122.08 27.2208C122.068 27.2358 122.04 27.2688 122.03 27.281C122.02 27.2933 121.998 27.322 121.98 27.3417C121.98 25.786 122.84 24.0239 124.304 24.0239C124.86 24.0239 125.222 24.22 125.632 24.0239C125.538 22.9016 123.083 23.1189 122.042 24.7488C121.511 25.5798 121.492 26.2628 121.381 27.0621C121.362 27.1937 121.316 27.3365 121.316 27.3417Z" fill="white"/>
<path fill-rule="evenodd" clip-rule="evenodd" d="M88.3392 30.7698C87.3501 30.7698 87.2329 30.3922 87.2329 29.5534C87.2329 28.8412 87.7165 28.8012 88.2534 28.6933C88.82 28.5793 89.3792 28.4473 89.999 28.4473C89.999 29.5053 89.7793 30.7698 88.3392 30.7698ZM86.9009 26.346C86.9009 27.1476 87.4388 26.1249 89.0031 26.1249C89.7453 26.1249 89.9989 26.7795 89.9989 27.452C89.9989 27.871 89.4485 27.826 89.0846 27.8653C88.4357 27.9353 88.4045 27.8745 87.85 28.0691C85.6268 28.8488 86.2502 31.4334 88.0072 31.4334C89.502 31.4334 89.1845 31.0938 89.9988 30.5488C89.9988 31.1376 89.9881 31.276 90.552 31.3229C90.6984 31.0625 90.9456 26.7331 90.2517 25.9827C89.3129 24.9673 86.9008 25.606 86.9008 26.3461L86.9009 26.346Z" fill="white"/>
<path fill-rule="evenodd" clip-rule="evenodd" d="M99.2849 15.3975C99.2849 12.286 101.997 12.3437 102.847 13.3856C103.617 14.3302 103.737 17.3371 101.473 17.4696C100.9 17.5033 99.8226 17.1117 99.5266 16.2618C99.4779 16.1218 99.4188 15.9297 99.3922 15.8432C99.3215 15.6121 99.2849 15.8124 99.2849 15.3976V15.3975ZM98.6211 14.9551C98.6211 16.1005 99.0247 17.4422 100.1 17.9011C103.514 19.3592 105.049 14.906 103.409 13.0447C101.661 11.0607 98.6212 12.3184 98.6212 14.9551H98.6211Z" fill="white"/>
<path fill-rule="evenodd" clip-rule="evenodd" d="M109.691 15.176C109.691 11.9234 113.785 11.9269 113.785 15.176C113.785 15.9055 113.398 16.8625 112.713 17.2013C111.008 18.0459 109.691 16.7688 109.691 15.176ZM109.027 14.9549C109.027 18.7229 112.595 18.691 113.695 17.2984C115.106 15.5132 114.523 12.0793 111.683 12.0793C110.294 12.0793 109.027 13.2521 109.027 14.9549Z" fill="white"/>
<path fill-rule="evenodd" clip-rule="evenodd" d="M128.174 27.1207C130.491 27.1207 130.719 27.6811 130.719 29.3326C130.719 30.2298 129.619 30.881 128.727 30.881C128.314 30.881 127.823 30.5936 127.289 30.5492V31.2128C128.389 31.4689 128.001 31.4338 129.17 31.4338C130.315 31.4338 131.383 30.3668 131.383 29.222C131.383 27.7889 130.969 26.7607 129.462 26.4972C129.081 26.4307 128.842 26.4926 128.492 26.4624C127.99 26.4193 128.12 26.3741 128.144 26.0121C128.191 25.2737 128.285 24.6849 128.285 24.024C129.88 24.024 131.051 24.2692 131.051 23.6922C131.051 23.1804 130.168 23.3585 129.613 23.3603C128.986 23.3624 128.359 23.3604 127.732 23.3604C127.696 23.7896 127.617 23.8842 127.617 24.4626L127.5 26.8014C127.574 27.4803 127.702 27.1207 128.174 27.1207V27.1207Z" fill="white"/>
<path fill-rule="evenodd" clip-rule="evenodd" d="M115.899 24.0233V24.355C116.625 24.3388 118.247 23.3062 118.905 24.8894C118.959 25.0198 118.997 24.7009 118.997 25.3504C118.997 26.986 117.447 27.0093 116.341 27.0093C116.341 27.9127 116.374 27.5419 117.104 27.5671C117.417 27.5778 117.76 27.7028 118.107 27.7883C120.054 28.2694 119.505 31.6376 116.271 30.6058C114.917 30.1736 115.525 31.433 117.116 31.433C120.186 31.433 120.281 28.9369 119.443 27.8899C119.198 27.5836 118.89 27.4448 118.443 27.341V27.1198C119.435 26.8888 119.673 25.8892 119.565 24.8998C119.322 22.6618 115.899 23.3192 115.899 24.0232L115.899 24.0233Z" fill="white"/>
<path fill-rule="evenodd" clip-rule="evenodd" d="M74.9453 25.6832C74.9976 26.3105 76.937 30.7985 76.937 31.1022C76.937 31.4453 76.507 32.3265 76.3419 32.609C75.8213 33.4999 75.7077 32.9486 74.9453 33.3144C74.9702 33.6129 74.9972 33.6151 75.0559 33.8672C76.7144 33.8672 76.9374 33.0632 77.7811 30.8403C77.9211 30.4713 77.91 30.5586 78.0574 30.2317L79.6838 26.0929C79.8639 25.5618 79.8573 26.0438 79.5924 25.5725C79.2284 25.6572 79.295 25.6069 79.109 25.8634L78.3603 27.7695C78.1998 28.1675 78.044 28.5916 77.8531 29.032C77.7293 29.3174 77.6988 29.3556 77.5911 29.6547C77.44 30.0748 77.5944 29.9791 77.2688 30.2175L75.8323 26.3447C75.64 25.8378 75.6018 25.4284 74.9453 25.6831V25.6832Z" fill="white"/>
<path fill-rule="evenodd" clip-rule="evenodd" d="M81.3787 26.2362C81.3629 25.5268 81.223 25.5648 80.7148 25.6832V31.213C81.6602 31.433 81.395 31.2023 81.3761 28.3348C81.3673 27.0028 81.8514 26.1256 83.2597 26.1256C84.9298 26.1256 84.4769 29.55 84.4769 31.213C85.4582 31.4414 85.1408 30.7611 85.1408 27.7844C85.1408 26.6787 84.5072 25.4619 83.4811 25.4619C81.979 25.4619 82.434 25.5298 81.3788 26.2361L81.3787 26.2362Z" fill="white"/>
<path fill-rule="evenodd" clip-rule="evenodd" d="M105.058 13.517C105.058 15.7459 107.713 15.2451 107.713 16.5031C107.713 17.3943 106.785 17.7598 105.551 17.2071C105.526 17.1957 105.498 17.1782 105.473 17.168C104.496 16.7707 104.903 18.162 106.385 18.162C107.026 18.162 107.64 17.8904 107.97 17.5341C108.685 16.7625 108.416 15.5927 106.993 14.9003C105.943 14.3894 105.722 14.4187 105.722 13.4064C105.722 12.8852 106.66 12.5794 107.493 12.8526C107.975 13.0106 107.635 13.0313 108.156 13.0746V12.4111C106.44 11.5882 105.058 12.4996 105.058 13.517Z" fill="white"/>
<path fill-rule="evenodd" clip-rule="evenodd" d="M108.145 27.0102C108.145 27.8928 108.723 28.2673 109.325 28.5948C109.664 28.7794 109.854 28.8667 110.188 29.0601C111.264 29.6839 111.017 30.7703 109.472 30.7703C108.781 30.7703 108.729 30.4873 108.145 30.4387C108.145 31.4188 108.495 31.4339 109.915 31.4339C110.275 31.4339 110.777 31.1614 110.977 30.9471C111.142 30.7696 111.464 30.1617 111.464 29.8856C111.464 27.9914 108.808 28.4598 108.808 27.0102C108.808 26.0984 109.709 26.1255 110.247 26.1255C110.867 26.1255 111.243 26.8475 111.243 26.0148C111.243 25.2653 108.145 24.9702 108.145 27.0103L108.145 27.0102Z" fill="white"/>
<path fill-rule="evenodd" clip-rule="evenodd" d="M103.18 28.1163C103.18 29.0778 103.186 29.8431 103.763 30.5198C104.465 31.3446 104.841 31.4341 105.835 31.4341C106.39 31.4341 107.274 31.2868 107.274 30.7705C107.274 30.0782 106.546 30.8812 105.725 30.8812C105.643 30.8812 105.133 30.6817 104.992 30.6178C104.679 30.4761 104.634 30.4267 104.418 30.1961C103.536 29.2515 103.269 26.1255 106.278 26.1255C106.791 26.1255 106.611 26.3319 107.274 26.3467C107.274 25.5875 107.114 25.4619 105.835 25.4619C104.17 25.4619 103.18 26.9891 103.18 28.1162V28.1163Z" fill="white"/>
<path fill-rule="evenodd" clip-rule="evenodd" d="M90.2239 14.5123C90.2239 15.8285 90.0442 16.4861 91.0209 17.476C91.6948 18.1591 92.9293 18.357 93.8504 17.9145C94.3234 17.6871 94.3169 17.527 94.2071 17.056C92.7326 17.8359 91.3887 17.4814 90.9936 16.176C90.2669 13.7749 91.9361 12.2784 93.7502 12.8868C94.0241 12.9787 94.3177 13.2288 94.3177 12.7428C94.3177 11.8574 91.5748 11.6251 90.5728 13.534C90.4578 13.7532 90.2239 14.2503 90.2239 14.5123H90.2239Z" fill="white"/>
<path fill-rule="evenodd" clip-rule="evenodd" d="M96.199 12.9643V12.3007C95.7507 12.3007 95.5352 12.2393 95.5352 12.6325V17.6094C95.5352 18.0026 95.7508 17.9411 96.199 17.9411C96.199 16.6779 95.8116 12.7431 97.6374 12.7431C98.0541 12.7431 97.8467 12.8159 98.3013 12.8538C98.3013 10.9321 96.1997 12.9639 96.199 12.9643Z" fill="white"/>
<path fill-rule="evenodd" clip-rule="evenodd" d="M101.277 25.6827V31.2125C101.601 31.2878 101.941 31.3663 101.941 30.8807V26.0144C101.941 25.5657 101.599 25.5579 101.277 25.6827Z" fill="white"/>
<path fill-rule="evenodd" clip-rule="evenodd" d="M88.3516 17.6089C88.3516 17.9767 88.5503 17.9327 88.9048 17.9407V12.3003H88.3516V17.6089Z" fill="white"/>
<path fill-rule="evenodd" clip-rule="evenodd" d="M101.078 23.913C101.94 25.1991 102.527 23.3601 101.631 23.3601C101.271 23.3601 101.205 23.674 101.078 23.913Z" fill="white"/>
<path fill-rule="evenodd" clip-rule="evenodd" d="M88.1172 10.5276L88.3507 10.9699C89.3094 10.9842 89.1417 10.66 89.0085 10.0884H88.3446L88.1173 10.5276H88.1172Z" fill="white"/>
</g>
</g>
<defs>
<clipPath id="clip0_3346_42211">
<rect width="161" height="45.21" fill="white"/>
</clipPath>
<clipPath id="clip1_3346_42211">
<rect width="98.3795" height="45.21" fill="white" transform="translate(33 -1)"/>
</clipPath>
</defs>
</svg>
