<svg width="161" height="46" viewBox="0 0 161 46" fill="none" xmlns="http://www.w3.org/2000/svg">
<g clip-path="url(#clip0_3346_41709)">
<g clip-path="url(#clip1_3346_41709)">
<path fill-rule="evenodd" clip-rule="evenodd" d="M43.1484 29.9866C43.1484 30.6563 43.1716 31.2724 43.1716 31.9213C43.1716 32.6019 43.1484 33.2035 43.1484 33.8793C43.1484 34.4974 43.1716 35.0361 43.1716 35.651C43.1716 36.2655 43.1484 36.8046 43.1484 37.4227L43.172 39.8477C43.1728 40.046 43.1343 40.2291 43.1472 40.431C43.1564 40.5776 43.1648 40.4802 43.1948 40.5932L44.7412 40.604C44.8482 40.6072 44.7164 40.5932 44.827 40.5932C44.8843 40.5932 44.9167 40.6064 44.9468 40.6072C45.0233 40.6092 44.9632 40.5932 45.0602 40.5932C45.1399 40.5932 45.1115 40.6064 45.1564 40.6076L45.4337 40.5932C45.5142 40.5932 45.5238 40.6104 45.5968 40.6164C45.743 40.3985 45.6188 40.2535 45.6641 39.8666C45.6761 39.7628 45.6589 39.7175 45.6496 39.6539C45.6248 39.4808 45.6833 39.4323 45.6641 39.2681C45.6376 39.0426 45.6669 39.0566 45.6669 38.8679C45.6669 38.733 45.6332 38.6989 45.644 38.5671C45.6901 38.0023 45.6901 37.1002 45.644 36.535C45.632 36.39 45.6785 36.3576 45.6665 36.2126C45.6557 36.0792 45.63 36.0656 45.6573 35.8977C45.6841 35.7287 45.6436 35.6991 45.6436 35.5581C45.6436 35.4407 45.6593 35.4375 45.6665 35.3462C45.6753 35.2384 45.6553 35.2084 45.6464 35.1347C45.632 35.0129 45.6669 34.8531 45.6669 34.6956C45.6669 34.4293 45.6428 32.9604 45.6641 32.7801C45.6789 32.6531 45.6521 32.6215 45.644 32.5258C45.6344 32.4068 45.6669 32.3583 45.6669 32.2482C45.6669 32.11 45.63 32.0667 45.6464 31.9257C45.6641 31.7763 45.6721 31.7663 45.6496 31.6121L45.6669 30.9427C45.6669 30.4765 45.6669 30.0102 45.6669 29.5439C45.7743 29.5528 45.7691 29.5764 45.7991 29.6681C45.8163 29.7214 45.8111 29.7138 45.8292 29.7546L46.0928 30.4232C46.1245 30.5177 46.0977 30.5305 46.1469 30.6255C46.1501 30.6319 46.161 30.6487 46.1642 30.6547C46.3305 30.9648 46.4379 31.3617 46.4451 31.3761L46.6366 31.8372C46.6707 31.9149 46.7007 31.9473 46.714 32.0395C46.7188 32.0711 46.7136 32.0663 46.7236 32.1L46.9127 32.517C46.9985 32.7453 46.9376 32.6475 47.0846 32.9744C47.1027 33.0141 47.1063 33.0321 47.1227 33.0761C47.1515 33.1539 47.1624 33.2103 47.194 33.2844C47.2225 33.3521 47.2016 33.2888 47.2281 33.367C47.283 33.5308 47.3743 33.6786 47.4204 33.8504C47.428 33.8797 47.4369 33.9169 47.4525 33.9582C47.4849 34.0431 47.4685 33.9914 47.499 34.0515C47.539 34.1308 47.5282 34.1629 47.5707 34.2362C47.5991 34.2851 47.5815 34.2114 47.6136 34.3099C47.6316 34.3648 47.6188 34.3768 47.6328 34.4309L47.9418 35.1943C47.9694 35.2668 47.9931 35.2861 48.0167 35.3758L48.5877 36.9032C48.6098 36.9524 48.5853 36.9008 48.6118 36.9488L48.7444 37.2825C48.7773 37.3915 48.7965 37.367 48.827 37.4563L48.9331 37.7468C48.9356 37.7516 48.9384 37.7576 48.9404 37.7628L49.0269 37.9791C49.0385 38.0075 49.0345 38.0047 49.0433 38.0324L49.271 38.6204C49.2974 38.7506 49.2818 38.7089 49.3387 38.8091C49.3876 38.8952 49.3779 39.0001 49.426 39.0947C49.4284 39.0995 49.4324 39.1047 49.4348 39.1091C49.5663 39.3346 49.5663 39.4492 49.842 39.891C49.947 40.0592 50.076 40.1626 50.2195 40.3064C50.3717 40.4594 50.389 40.4265 50.536 40.5263C50.6138 40.5792 50.6799 40.5804 50.7644 40.624L51.1299 40.725C51.1728 40.7302 51.2152 40.7306 51.2549 40.7398C51.3535 40.7626 51.2653 40.7786 51.3559 40.7786H52.1722C52.2459 40.7786 52.2211 40.7202 52.3593 40.7093C52.5264 40.6961 52.6294 40.6861 52.7736 40.6108C52.8558 40.568 52.8983 40.5732 52.9692 40.5267L53.3972 40.185C53.4212 40.1554 53.4336 40.1321 53.4573 40.1053C53.4605 40.1017 53.4653 40.0969 53.4685 40.0933C53.4717 40.0897 53.4769 40.0853 53.4801 40.0817L53.6384 39.8902C53.727 39.764 53.8784 39.5205 53.9193 39.3783C53.9405 39.3038 53.9157 39.3594 53.949 39.2913L54.3637 38.2374C54.3845 38.1726 54.3633 38.2154 54.401 38.1581C54.4563 38.074 54.4659 37.9607 54.5124 37.8497L54.5536 37.7512C54.5556 37.746 54.5585 37.7399 54.5605 37.7347C54.5625 37.7295 54.5649 37.7235 54.5673 37.7183C54.5777 37.6935 54.5769 37.6927 54.5877 37.6686L54.8137 37.079C54.8903 36.9036 54.9884 36.7129 55.0377 36.5338L55.4132 35.5573C55.432 35.5148 55.4256 35.5208 55.444 35.4715L55.8408 34.4229C55.8532 34.3988 55.864 34.3636 55.8704 34.3359C55.874 34.3203 55.8796 34.2859 55.882 34.2778C55.9165 34.1593 56.0291 33.975 56.0664 33.856L56.1633 33.5797C56.1794 33.4975 56.2154 33.4631 56.2415 33.3782L56.5132 32.7172C56.5544 32.6015 56.5172 32.6231 56.5837 32.5081C56.6194 32.4465 56.6294 32.3972 56.6566 32.3247C56.6871 32.243 56.6839 32.1921 56.7091 32.1208L56.8682 31.7439C56.8971 31.6545 56.9011 31.6377 56.9423 31.5616L57.0517 31.2748C57.0694 31.2379 57.0774 31.2043 57.0898 31.1731L57.2517 30.7985C57.2886 30.714 57.2805 30.6876 57.309 30.5994C57.3695 30.4124 57.4853 30.2265 57.5378 30.0358L57.6099 29.8279C57.6588 29.7066 57.6632 29.5095 57.8151 29.4971C57.8151 29.7202 57.7919 29.8532 57.7919 30.0799L57.8083 31.4494C57.7943 31.5728 57.8155 31.5127 57.8155 31.6181C57.8155 31.7118 57.7987 31.693 57.7987 31.7579C57.7987 31.8232 57.8155 31.8039 57.8155 31.8977C57.8155 31.9798 57.8015 31.9485 57.8007 31.9942C57.7991 32.1092 57.8155 31.9706 57.8155 32.0843C57.8155 32.1821 57.7987 32.1572 57.7967 32.2265C57.7931 32.3383 57.8155 32.2526 57.8155 32.3643C57.8155 32.4441 57.8023 32.4156 57.8011 32.4605C57.7991 32.5382 57.8155 32.4753 57.8155 32.5742C57.8155 32.6624 57.7955 32.6568 57.7999 32.7321C57.8159 33.0012 57.7923 33.0305 57.7923 33.2965C57.7923 33.7767 57.7578 34.3215 57.8123 34.7918L57.8015 35.0718C57.7995 35.1859 57.8159 35.0477 57.8159 35.1611C57.8159 35.2548 57.7991 35.236 57.7991 35.3009C57.7991 35.3662 57.8159 35.347 57.8159 35.4407C57.8159 35.5204 57.8027 35.492 57.8015 35.5368L57.7999 35.7724C57.7939 35.8837 57.8159 35.7932 57.8159 35.907C57.8159 35.9867 57.8027 35.9582 57.8015 36.0031C57.7995 36.0808 57.8159 36.0179 57.8159 36.1168C57.8159 36.2306 57.7915 36.1849 57.8023 36.2935C57.8227 36.495 57.7927 36.6576 57.7927 36.8863C57.7927 37.351 57.7602 37.8797 57.8127 38.3352C57.8203 38.4017 57.8187 38.473 57.8119 38.5391L57.8163 38.7049C57.8163 38.8026 57.7995 38.7778 57.7975 38.8471C57.7939 38.9589 57.8163 38.8732 57.8163 38.9849C57.8163 39.0646 57.8031 39.0362 57.8019 39.081C57.7999 39.1588 57.8163 39.0959 57.8163 39.1948C57.8163 39.2517 57.8031 39.2849 57.8027 39.3142L57.8035 39.5533C57.7951 39.6875 57.8167 39.5489 57.8167 39.6611C57.8167 39.7688 57.7951 39.732 57.7979 39.8221C57.7999 39.8806 57.8163 39.8958 57.8183 39.9875C57.8211 40.1229 57.7322 40.4322 57.846 40.5655C57.9149 40.6461 57.955 40.5936 58.0499 40.5936C58.1297 40.5936 58.1012 40.6068 58.1461 40.608C58.2238 40.61 58.1609 40.5936 58.2599 40.5936C58.3569 40.5936 58.2968 40.6096 58.3733 40.6076L59.965 40.6072C60.0271 40.6088 60.0127 40.5936 60.102 40.5936C60.1489 40.5936 60.3641 40.7786 60.3593 40.3613C60.3573 40.199 60.3473 40.0921 60.3364 39.9631C60.2928 39.4343 60.3585 38.0544 60.3585 37.4467C60.3585 36.8283 60.3352 36.2883 60.3352 35.675C60.3352 35.0606 60.3585 34.5214 60.3585 33.9033C60.3585 33.1747 60.3352 32.517 60.3352 31.7819C60.3352 31.4074 60.3585 31.1122 60.3585 30.7328C60.3585 30.3403 60.3933 29.7214 60.3412 29.3509C60.3264 29.2439 60.3521 29.1358 60.3444 29.0661L60.3116 28.7749C60.3088 28.706 60.306 28.6867 60.2883 28.6347C60.2595 28.5489 60.2635 28.601 60.2455 28.5145C60.2246 28.4155 60.233 28.3194 60.1986 28.2353C60.1794 28.1876 60.1721 28.1904 60.1489 28.1215C60.1096 28.0042 59.892 27.7242 59.8059 27.6485C59.7309 27.5824 59.6781 27.5175 59.5875 27.4706L58.6137 27.0929C58.4635 27.0676 58.3821 27.016 58.2146 27.0015C58.0984 26.9915 58.0644 26.9567 57.9329 26.9567C57.7294 26.9567 57.511 26.9423 57.3174 26.9939C57.2064 27.0236 57.1848 27.0112 57.0738 27.03C56.9351 27.0532 56.8402 27.1458 56.7035 27.1958L56.512 27.2839C56.5076 27.2868 56.5019 27.2904 56.4975 27.2928C56.3465 27.3849 56.207 27.5231 56.076 27.6409C56.0507 27.6637 56.0363 27.6705 56.0107 27.6921C55.8748 27.8043 55.5514 28.3595 55.4865 28.5201L55.4585 28.5854C55.4565 28.5906 55.4537 28.5966 55.4517 28.6018L55.3643 28.7941C55.3355 28.8842 55.3371 28.9491 55.291 29.0472L55.0061 29.7879C54.9888 29.832 54.992 29.8127 54.9696 29.868C54.9584 29.8956 54.9468 29.9329 54.9339 29.9722L54.7732 30.3475C54.7352 30.4336 54.7444 30.4837 54.7115 30.5654C54.6943 30.6083 54.6931 30.6002 54.6735 30.6443L54.4783 31.125C54.4386 31.1867 54.4366 31.2928 54.4054 31.3549L54.3453 31.5284C54.3369 31.5484 54.308 31.592 54.296 31.6189C54.2775 31.6601 54.2775 31.6722 54.2587 31.7214C54.2367 31.7799 54.2491 31.7387 54.2267 31.8059L53.9586 32.4937C53.9265 32.5758 53.9265 32.6267 53.9021 32.694L53.7426 33.0705C53.7145 33.1466 53.7037 33.2079 53.6729 33.2804C53.6192 33.4074 53.5518 33.5276 53.5202 33.6638L53.3667 34.0467C53.3351 34.1144 53.3254 34.1749 53.2974 34.2338L53.2473 34.3235C53.2333 34.3588 53.2289 34.3908 53.218 34.4341L53.0638 34.8158C53.0441 34.8623 53.0538 34.8326 53.0321 34.9007C52.9884 35.0357 52.9688 35.0181 52.9179 35.206C52.8983 35.2781 52.873 35.3081 52.8374 35.3818L52.6991 35.7796C52.6707 35.8605 52.6382 35.8957 52.6098 35.9702C52.5841 36.0379 52.5805 36.1044 52.5524 36.1697L52.4419 36.4553C52.4202 36.5066 52.4214 36.5126 52.407 36.5603C52.3745 36.6672 52.3497 36.6596 52.316 36.7489L52.2098 37.039C52.1918 37.0854 52.1914 37.1046 52.1746 37.1435C52.1726 37.1483 52.1694 37.1543 52.167 37.1591C52.1646 37.1639 52.1609 37.1695 52.1585 37.1739L52.054 37.4191C52.0351 37.4599 52.0331 37.4748 52.0183 37.5232C51.9466 37.7512 51.747 38.1349 51.7306 38.3312H51.614C51.614 38.2142 51.5715 38.1053 51.5322 38.0167C51.509 37.9643 51.5118 37.9583 51.4994 37.9098L51.313 37.4431C51.2822 37.333 51.1095 36.8407 51.0501 36.7501C51.0473 36.7461 51.0429 36.7409 51.0405 36.7365L50.6242 35.5673C50.5392 35.2897 50.427 35.0525 50.3252 34.7938C50.2968 34.7213 50.3056 34.6704 50.2683 34.5943C50.2255 34.5058 50.2122 34.5258 50.1778 34.4052C50.1489 34.3043 50.1337 34.2967 50.1093 34.2174L49.7366 33.238C49.7141 33.1859 49.6705 32.942 49.5346 32.6475L49.392 32.2305C49.3731 32.1777 49.3755 32.1953 49.3531 32.1296L49.1952 31.7515C49.1864 31.7298 49.1692 31.6678 49.1628 31.6441C49.1067 31.4422 48.9985 31.2624 48.9568 31.0577C48.9372 30.9604 48.9039 30.9515 48.8706 30.8642C48.8209 30.7324 48.7945 30.585 48.7348 30.464C48.7232 30.4408 48.6995 30.396 48.6955 30.3867L48.4395 29.6869C48.4098 29.5075 48.3305 29.4682 48.2928 29.2976C48.2539 29.1221 48.1706 29.0665 48.1429 28.9115C48.1165 28.7628 48.0544 28.6587 47.9943 28.5241C47.8444 28.1892 47.6693 27.8355 47.3832 27.5964L47.3575 27.5756C47.2589 27.493 47.1628 27.3861 47.0574 27.3164C46.9271 27.2307 46.6535 27.1233 46.502 27.0793C46.4242 27.0564 46.3729 27.04 46.284 27.0172C45.8692 26.9114 45.4128 26.9583 44.9957 27.0304C44.9151 27.0444 44.8895 27.0728 44.7368 27.0981C44.6551 27.1117 44.5781 27.1886 44.496 27.207C44.296 27.2519 44.1469 27.3412 43.9638 27.4209L43.7098 27.6096C43.6713 27.6541 43.6649 27.6625 43.62 27.7065L43.4749 27.8876C43.3683 28.0498 43.2854 28.1616 43.2565 28.3687L43.1884 28.6503C43.1572 28.8257 43.1804 29.0965 43.1736 29.3116C43.17 29.4354 43.1484 29.4871 43.1492 29.6369C43.15 29.7534 43.1496 29.8704 43.1496 29.987L43.1484 29.9866Z" fill="white"/>
<path fill-rule="evenodd" clip-rule="evenodd" d="M91.3467 30.6627C91.3467 30.5774 91.3699 30.5446 91.384 30.4668C91.4068 30.3407 91.3976 30.1276 91.5627 29.9229C91.6304 29.8392 91.7061 29.7458 91.7967 29.6909C91.9891 29.574 91.9466 29.5375 92.0872 29.4919C92.278 29.4302 92.3786 29.3785 92.6326 29.338C92.6811 29.33 92.6851 29.3348 92.7336 29.3224C92.8073 29.3032 92.7664 29.3016 92.8414 29.2904L94.5412 29.2643C94.8145 29.2643 94.9989 29.288 95.2641 29.2876C95.513 29.2876 95.7614 29.2876 96.0103 29.2876C96.2663 29.2876 96.9135 29.2439 97.1271 29.2667C97.2605 29.2808 97.3098 29.3384 97.4124 29.3545C97.5246 29.3721 97.6476 29.3569 97.7298 29.4101C97.7859 29.447 97.7458 29.4458 97.8388 29.4875L98.1934 29.6925C98.3633 29.8376 98.552 30.2553 98.552 30.4761V37.4223C98.552 37.6638 98.2796 38.3079 97.969 38.3079C97.9017 38.3079 97.864 38.233 97.8324 38.1882C97.6861 37.9819 97.7578 38.1365 97.5667 37.9178C97.5162 37.8601 97.4909 37.8128 97.4392 37.7656C97.2557 37.5977 97.3811 37.7451 97.17 37.4984C97.1451 37.4696 97.1367 37.4647 97.1107 37.4411C96.9207 37.2697 96.8726 37.1331 96.6438 36.952L96.5184 36.821C96.4166 36.7057 96.2243 36.4705 96.0748 36.4497L95.9105 36.4473C95.8424 36.4441 95.838 36.4521 95.7931 36.4549C95.6584 36.4637 95.7955 36.4429 95.6845 36.4429C95.6047 36.4429 95.6332 36.4561 95.5883 36.4573C95.5106 36.4593 95.5735 36.4429 95.4745 36.4429C95.3948 36.4429 95.4232 36.4561 95.3783 36.4573C95.3006 36.4593 95.3635 36.4429 95.2645 36.4429C95.1848 36.4429 95.2132 36.4561 95.1684 36.4573C95.0433 36.4605 95.21 36.4097 94.9223 36.4757C94.7801 36.5086 94.8626 36.4661 94.7745 36.4661C94.6947 36.4661 94.7232 36.4794 94.6783 36.4806C94.6005 36.4826 94.6635 36.4661 94.5645 36.4661C94.4823 36.4661 94.5136 36.4802 94.4679 36.481C94.3529 36.4826 94.4915 36.4661 94.3777 36.4661C94.2876 36.4661 94.3309 36.4802 94.2792 36.483C94.1429 36.4902 94.278 36.4661 94.1678 36.4661C94.088 36.4661 94.1165 36.4794 94.0716 36.4806C93.9939 36.4826 94.0568 36.4661 93.9578 36.4661C93.8756 36.4661 93.9069 36.4802 93.8612 36.481C93.7462 36.4826 93.8849 36.4661 93.7711 36.4661C93.634 36.4661 93.7246 36.507 93.5462 36.4589C93.4749 36.4397 93.3603 36.4197 93.2814 36.4197C93.3058 36.7153 93.519 36.8399 93.7073 37.0193L94.1902 37.5625C94.2587 37.6478 94.2716 37.6178 94.3793 37.7463C94.3958 37.7656 94.3834 37.7528 94.4114 37.7844L94.4687 37.8437C94.4719 37.8473 94.4767 37.8521 94.4803 37.8557C94.4835 37.8593 94.4883 37.8641 94.4915 37.8677C94.4948 37.8713 94.4996 37.8765 94.5028 37.8797C94.6282 38.0175 94.8482 38.2082 94.9508 38.3408C95.0986 38.5319 95.1656 38.5122 95.194 38.634H93.1652C92.8029 38.634 92.6715 38.6316 92.3048 38.4914C92.1566 38.4349 92.3325 38.475 92.0568 38.3897C91.9987 38.3716 91.9081 38.2935 91.8648 38.2551C91.6496 38.0636 91.7017 38.0876 91.5707 37.8729C91.4525 37.6787 91.5318 37.897 91.4789 37.615C91.4653 37.5437 91.4116 37.4443 91.3984 37.3458C91.3908 37.2909 91.3952 37.2484 91.3864 37.1944C91.3804 37.1567 91.3459 37.0822 91.3459 37.0486C91.3459 36.9464 91.3756 36.9396 91.3808 36.8555C91.3856 36.7774 91.3459 36.7642 91.3459 36.6524V34.8342C91.3459 34.7084 91.3723 34.7133 91.3832 34.6159C91.3936 34.5194 91.3459 34.541 91.3459 34.3215C91.3459 34.2178 91.3816 34.1941 91.3844 34.132C91.3884 34.0483 91.3459 34.0663 91.3459 33.8789C91.3459 33.7527 91.3639 33.7811 91.3788 33.6794C91.3928 33.5825 91.3459 33.5732 91.3459 33.5059C91.3459 33.4038 91.3756 33.397 91.3808 33.3129C91.3856 33.2348 91.3459 33.2211 91.3459 33.1098V31.012C91.3459 30.8979 91.3699 30.9279 91.3824 30.8394C91.3952 30.7504 91.3459 30.7264 91.3459 30.6623L91.3467 30.6627ZM88.595 30.1732V37.7724C88.595 37.8581 88.633 37.7784 88.6414 37.9358C88.643 37.9647 88.639 38.0007 88.6418 38.0287C88.6523 38.1261 88.6847 38.1109 88.7039 38.1766C88.7152 38.215 88.7112 38.2402 88.7156 38.2815C88.7412 38.5154 88.8891 38.7065 88.966 38.9168C89.0642 39.1848 89.2618 39.3298 89.4373 39.5413C89.5086 39.627 89.4593 39.5769 89.5475 39.6406L89.7298 39.7848C89.7602 39.8085 89.7618 39.8145 89.7915 39.8397C89.8969 39.9286 89.937 39.9655 90.058 40.0164L90.1782 40.1057C90.2251 40.1337 90.2615 40.1333 90.3249 40.169C90.4146 40.2194 90.3938 40.1994 90.4908 40.2363C90.5809 40.2707 90.5709 40.2928 90.6174 40.3208C90.6947 40.3681 90.7236 40.3392 90.7797 40.35C90.859 40.3653 90.8758 40.4081 90.9059 40.4269L91.426 40.5595C91.5254 40.5976 91.6 40.58 91.719 40.5932C91.8404 40.6068 91.8508 40.6416 91.9987 40.6396C92.0752 40.6388 92.1517 40.6352 92.2263 40.6453C92.2912 40.6541 92.322 40.6585 92.4198 40.6613C92.5853 40.6661 92.53 40.7085 92.6058 40.7085H95.0309C95.093 40.7085 95.0914 40.6625 95.176 40.6436C95.3046 40.6156 95.4549 40.6621 95.5827 40.6308C95.6725 40.6088 95.5963 40.5952 95.7518 40.5904C95.8897 40.586 96.0375 40.598 96.175 40.5932C96.3196 40.5884 96.2655 40.5719 96.3317 40.5583C96.415 40.5407 96.3689 40.592 96.4527 40.592H96.8257C96.9019 40.592 96.887 40.5223 97.0121 40.5223C97.1042 40.5223 97.2188 40.7033 97.279 40.7682C97.3463 40.8403 97.4268 40.8784 97.6392 41.1307L97.8023 41.2942C97.8059 41.2974 97.8107 41.3022 97.8143 41.3058C97.8175 41.3094 97.8223 41.3142 97.8255 41.3178L98.1181 41.6314C98.3096 41.8594 98.5388 42.0601 98.5769 42.1053L98.8121 42.3829C98.8742 42.4498 99.0485 42.5972 99.1339 42.5972C99.5679 42.5972 101.602 42.6345 101.862 42.574C101.862 42.3789 101.653 42.2471 101.466 42.0845L101.168 41.7756C101.136 41.7408 101.134 41.734 101.105 41.6995L100.93 41.5013C100.927 41.4973 100.923 41.4916 100.92 41.488C100.863 41.4143 100.789 41.3807 100.725 41.3102L100.133 40.6893C100.033 40.5808 99.9558 40.4434 99.8404 40.3528L99.8127 40.3336C99.7867 40.3156 99.8123 40.3384 99.7702 40.306C99.727 40.2727 99.7209 40.2567 99.6929 40.2198C99.644 40.1546 99.5963 40.1209 99.553 40.0564C99.6019 39.8734 99.6877 39.9415 99.8047 39.8417C100.013 39.6643 100.244 39.5024 100.423 39.2945L100.523 39.1379C100.548 39.0874 100.577 39.0538 100.611 38.9921C100.642 38.934 100.678 38.8952 100.7 38.8479C100.736 38.7658 100.709 38.767 100.762 38.6769C100.832 38.5563 100.796 38.632 100.816 38.4746C100.831 38.3504 100.889 38.2827 100.904 38.0964C100.917 37.9242 100.928 37.8201 100.962 37.6654C101.014 37.4311 100.952 36.1945 100.952 35.7908L100.976 33.2268C100.978 32.5842 100.902 31.8212 100.972 31.1955C100.991 31.0268 100.996 30.3731 100.97 30.1788C100.958 30.0863 100.913 29.9838 100.907 29.8924C100.889 29.6537 100.843 29.6669 100.814 29.4722C100.795 29.3437 100.743 29.2571 100.693 29.1502C100.691 29.1454 100.688 29.1394 100.686 29.1342L100.673 29.1001C100.619 28.9555 100.445 28.7051 100.349 28.5621L100.077 28.2978C100.003 28.2501 100.017 28.2277 99.9498 28.1688L99.8179 28.0674C99.8143 28.0642 99.8087 28.0598 99.8051 28.057L99.7201 28.0018C99.7161 27.999 99.7105 27.9949 99.7065 27.9921C99.6296 27.9345 99.7113 27.9713 99.6156 27.92C99.505 27.8608 99.6003 27.9365 99.511 27.8824C99.424 27.8295 99.4977 27.8539 99.4188 27.8143C99.3286 27.769 99.3755 27.8275 99.2922 27.7542C99.2148 27.6861 99.2922 27.7141 99.2076 27.6757C99.1663 27.6569 99.111 27.6653 99.0437 27.6529C98.9035 27.6268 98.9872 27.5539 98.8309 27.5391C98.6182 27.5187 98.7103 27.5603 98.5504 27.4698L98.433 27.4237C98.3565 27.4137 98.3393 27.4338 98.2619 27.4081C98.1469 27.3701 98.1625 27.3428 98.0023 27.318C97.8929 27.3012 97.7754 27.3168 97.6769 27.2928C97.5322 27.2575 97.5587 27.2563 97.41 27.2595C96.2603 27.2843 95.1071 27.2591 93.957 27.2591C93.3832 27.2591 92.8037 27.2823 92.2303 27.2595C92.0023 27.2503 92.1541 27.2307 91.9614 27.2915C91.7751 27.3504 91.5202 27.2635 91.3443 27.3745C91.291 27.4081 91.3824 27.3661 91.3014 27.4017C91.2349 27.4313 91.1403 27.4133 91.0678 27.4249C90.942 27.445 90.964 27.5263 90.8322 27.5387C90.5909 27.5619 90.7272 27.4914 90.5697 27.626C90.5028 27.6833 90.429 27.6717 90.3501 27.7093L89.933 27.9453C89.8805 27.9889 89.8059 27.9989 89.7382 28.0534L89.4825 28.2874C89.3768 28.3615 89.398 28.3446 89.3199 28.4508C89.2321 28.5706 89.2345 28.4884 89.0947 28.7384C88.9139 29.0609 88.8638 28.9807 88.8041 29.334C88.7733 29.5179 88.7164 29.3637 88.7104 29.59C88.7064 29.7422 88.6527 29.7322 88.641 29.8704C88.6362 29.9269 88.6454 29.9681 88.6342 30.027C88.621 30.0955 88.5938 30.0867 88.5938 30.1732H88.595Z" fill="white"/>
<path fill-rule="evenodd" clip-rule="evenodd" d="M89.9492 0.965441C89.9492 1.35679 89.9773 1.61756 90.0823 1.97447L90.2373 2.42551C90.2954 2.57892 90.4377 2.82848 90.5303 2.97188C90.7274 3.27631 90.9863 3.72975 91.1999 4.00414C91.365 4.21604 91.4872 4.46079 91.6358 4.68711C91.6471 4.70433 91.6511 4.71114 91.6635 4.72957L91.9184 5.12733C91.9456 5.16098 91.9272 5.13174 91.948 5.16779L92.065 5.40052C92.1235 5.54232 92.2357 5.68131 92.2578 5.8139C92.2978 6.05184 92.4008 6.26414 92.4189 6.51529C92.4281 6.64107 92.4112 6.61303 92.4501 6.71718L92.4918 6.83855C92.4938 6.84416 92.4958 6.85017 92.4978 6.85578L92.6841 7.4386C92.7074 7.51591 92.6966 7.56758 92.7206 7.63528C92.7482 7.71419 92.7667 7.70257 92.7875 7.80151C92.8228 7.97015 92.9342 8.20889 92.9694 8.34228C92.9899 8.41959 92.9823 8.46926 93.0091 8.53535C93.044 8.62027 93.0648 8.58342 93.0909 8.7104L93.1991 9.09174C93.2299 9.19388 93.2359 9.16504 93.276 9.24796C93.3786 9.46026 93.4014 9.74506 93.5413 9.93854C93.5525 9.95376 93.5773 9.9846 93.5894 10.007L93.7709 10.4316C93.8174 10.5542 93.8863 10.6379 93.9376 10.7545C93.9596 10.8042 93.9825 10.8743 94.0045 10.9207L94.1399 11.135C94.1428 11.139 94.1468 11.1446 94.1496 11.1487L94.3808 11.4535C94.5675 11.653 94.7767 11.9093 94.6136 12.1789C94.5988 12.2037 94.6148 12.1641 94.588 12.223C94.5711 12.2602 94.5779 12.255 94.5647 12.2931L94.5158 12.4076C94.4794 12.5098 94.517 12.5895 94.4713 12.6896C94.4225 12.7966 94.4257 12.8282 94.4096 12.9544C94.3816 13.1783 94.3179 13.264 94.3087 13.4832C94.3014 13.655 94.2325 13.7199 94.2117 13.8757L94.1436 14.1108C94.1287 14.1641 94.1303 14.1837 94.1215 14.2518C94.1083 14.3552 94.0851 14.4149 94.0626 14.5194L93.9833 15.093C93.9636 15.3358 93.9111 15.3614 93.9131 15.6522L93.8863 16.1149C93.8671 16.2334 93.8426 16.1433 93.8426 16.2342V16.8868C93.8426 16.9905 93.8426 16.8792 93.8671 16.9485C93.9444 17.166 93.8707 17.7488 93.92 17.9763L93.9568 18.1037C93.9753 18.1894 93.9748 18.185 93.9833 18.2843C93.9905 18.3729 93.9957 18.5591 94.0113 18.6525C94.0193 18.7017 94.0422 18.7486 94.0582 18.8155L94.1263 19.1672C94.1331 19.2177 94.1299 19.2077 94.1403 19.2465C94.1628 19.3286 94.1572 19.2894 94.1728 19.3306L94.7563 20.9621C94.7591 20.9661 94.7631 20.9718 94.7659 20.9758C94.8168 21.0575 94.7855 21.0274 94.834 21.1408C94.8797 21.2481 94.935 21.315 94.9875 21.4072L95.072 21.5558C95.0744 21.5602 95.0784 21.5658 95.0808 21.5702C95.2051 21.7789 95.3858 21.9443 95.5433 22.1338C95.5465 22.1374 95.5505 22.143 95.5537 22.1466L95.9612 22.4154C95.9648 22.4182 95.9696 22.4234 95.9732 22.4266L96.1888 22.4907C96.2618 22.5055 96.2942 22.5376 96.3443 22.5456C96.4353 22.5596 96.7538 22.4767 96.8244 22.431L97.0724 22.2596C97.1738 22.1666 97.2435 22.0353 97.3096 21.9143C97.3132 21.9079 97.3233 21.8907 97.3265 21.8846C97.3661 21.8089 97.407 21.6816 97.4371 21.599L97.5753 20.898C97.5761 20.7346 97.5681 20.6461 97.611 20.5123L97.6414 20.415C97.6963 20.2295 97.6346 19.9619 97.712 19.7861C97.7929 19.6014 97.7633 19.3382 97.8073 19.1484H97.8775L97.9552 19.3503C97.9756 19.4119 98.0033 19.4111 98.0369 19.4784C98.0578 19.5201 98.063 19.5541 98.0806 19.5978L98.2193 19.9022C98.2225 19.9086 98.2329 19.9255 98.2361 19.9319C98.3187 20.0933 98.3511 20.3244 98.4437 20.4702C98.4773 20.5231 98.4577 20.4787 98.4765 20.5307L98.5599 20.7739C98.6 20.894 98.7246 21.1015 98.7975 21.2121C98.8039 21.2221 98.8228 21.2485 98.826 21.2534C98.852 21.2934 98.8376 21.2722 98.8608 21.3118C98.8833 21.3499 98.8572 21.3094 98.8873 21.3555L99.078 21.6543C99.0816 21.6603 99.0916 21.678 99.0953 21.6836L99.3693 22.0389C99.3725 22.0425 99.3766 22.0481 99.3794 22.0521C99.4643 22.1594 99.5561 22.2424 99.6274 22.3637C99.6715 22.439 99.7176 22.4911 99.7757 22.5652L100.099 22.8949C100.165 22.9646 100.19 22.9954 100.251 23.0699L100.598 23.4216C100.602 23.4248 100.608 23.4292 100.611 23.4324L101.191 23.9712C101.195 23.9744 101.199 23.9796 101.203 23.9828L101.802 24.6894C101.901 24.8044 102.092 25.0031 102.227 25.0808C102.324 25.1364 102.348 25.1833 102.471 25.1861C102.468 25.0511 102.47 25.1232 102.415 25.0323C102.315 24.8653 102.127 24.7815 101.998 24.6329C101.95 24.5769 101.955 24.5596 101.915 24.5064C101.881 24.4611 101.848 24.4427 101.815 24.397L101.629 24.1627C101.309 23.8298 101.309 23.7373 101.057 23.3836C100.955 23.241 100.888 23.0779 100.795 22.9229L100.513 22.4823C100.454 22.3469 100.348 22.2131 100.288 22.0777L100.246 22.0028C100.215 21.9539 100.195 21.9191 100.167 21.8718C100.135 21.8165 100.126 21.7857 100.097 21.7324C99.9456 21.4536 100.024 21.6611 99.8759 21.3235L99.6406 20.8596C99.6126 20.8211 99.6178 20.8332 99.5925 20.7911L99.4503 20.4903C99.4475 20.4859 99.4439 20.4803 99.4411 20.4763L99.3934 20.3609C99.3918 20.3545 99.3914 20.3477 99.3898 20.3413C99.3882 20.3349 99.3874 20.3284 99.3854 20.3224C99.3497 20.2115 99.2375 20.0689 99.1938 19.9315L98.3988 17.9987C98.3736 17.9194 98.3663 17.9158 98.3467 17.8409C98.3191 17.7348 98.3279 17.776 98.2866 17.6915L98.1748 17.3835C98.1588 17.323 98.1343 17.2917 98.1139 17.2349C98.0922 17.1744 98.0914 17.1311 98.0714 17.0678C98.0237 16.918 97.9841 16.9184 97.97 16.7498L97.9171 16.5928C97.8903 16.5383 97.8799 16.4934 97.8783 16.4217C97.7837 16.4217 97.7665 16.4249 97.7072 16.507L97.6511 16.5908C97.6483 16.5948 97.6442 16.6004 97.6414 16.6044L97.5829 16.6857C97.5669 16.7101 97.5637 16.7177 97.5473 16.7434L97.0039 17.5986C96.9374 17.7396 96.8713 17.8698 96.8428 18.0204C96.8164 18.159 96.8136 18.0945 96.7715 18.1842C96.7262 18.2803 96.7595 18.3448 96.7166 18.4534C96.6717 18.5684 96.6392 18.6296 96.6228 18.7566C96.6132 18.8299 96.6124 18.8636 96.5984 18.9188C96.5683 19.0386 96.5635 18.9653 96.5503 19.0803C96.5375 19.1908 96.5395 19.339 96.5146 19.4412C96.4569 19.6775 96.4353 19.8986 96.4325 20.1514C96.4305 20.3489 96.3159 20.9481 96.3159 21.2469H96.1528C96.0834 21.2469 96.1191 21.2345 96.0662 21.1937L95.7717 20.9285C95.6871 20.8304 95.3698 20.2031 95.3429 20.0981L95.0596 19.2161C95.058 19.2097 95.0468 19.1424 95.046 19.1364L94.9494 18.5804C94.9302 18.5103 94.9097 18.4991 94.8993 18.4438C94.8701 18.2936 94.8941 18.1117 94.8468 17.9603C94.814 17.8553 94.8063 17.444 94.8015 17.2829C94.7971 17.1467 94.7791 17.1916 94.7671 17.1315C94.7514 17.0546 94.8003 17.0614 94.8003 16.9581C94.8003 16.8752 94.7539 16.9889 94.7539 16.6316C94.7539 16.5591 94.8003 16.5707 94.8003 16.4918C94.8003 16.4089 94.7539 16.5231 94.7539 16.1653C94.7539 16.1317 94.7995 16.0804 94.7999 15.885L94.8232 15.2557C94.822 15.1087 94.929 14.5391 94.9618 14.392C94.9815 14.3031 95.0175 14.1946 95.0275 14.1313C95.0536 13.969 95.0263 13.9799 95.0836 13.8377L95.1942 13.4587C95.268 13.2536 95.3217 13.0245 95.403 12.8282C95.4363 12.7477 95.4319 12.6508 95.4571 12.5562C95.4667 12.5206 95.4828 12.4681 95.4976 12.4337C95.5681 12.2666 95.5481 12.1649 95.5677 11.9906C95.5813 11.8669 95.6166 11.79 95.6166 11.6898C95.6166 11.6345 95.5693 11.5849 95.5525 11.5208C95.5369 11.4607 95.5457 11.4799 95.5268 11.4303L95.3076 11.0665C95.1762 10.9091 95.2672 10.982 95.0872 10.8206L94.7807 10.4048C94.713 10.2718 94.5739 10.0699 94.5262 9.93654L94.4745 9.80155C94.4721 9.79714 94.4685 9.79153 94.4661 9.78672C94.4637 9.78192 94.4601 9.77631 94.4577 9.7715C94.4417 9.73946 94.4369 9.71903 94.4225 9.69019C94.3992 9.64292 94.4028 9.65854 94.3788 9.61728C94.2702 9.43262 94.2361 9.26038 94.1624 9.08773L93.6779 7.45062C93.6178 7.30802 93.613 7.20467 93.5577 7.0813C93.5156 6.98716 93.5313 6.99597 93.5168 6.88902L93.3425 6.34065C93.2992 6.24731 93.3213 6.25092 93.3052 6.14477C93.2884 6.03461 93.2672 6.07227 93.2351 5.98174C93.2079 5.90523 93.2271 5.87719 93.1874 5.79628C93.0869 5.58998 93.1093 5.55514 93.0472 5.44698L93.0019 5.32922C92.9895 5.28716 92.9979 5.30999 92.9851 5.27634L92.7527 4.78605C92.6913 4.67429 92.6986 4.63423 92.6004 4.472C92.5675 4.41753 92.5423 4.35784 92.5126 4.30336C92.5014 4.28294 92.4838 4.24809 92.4709 4.22846C92.4509 4.19842 92.4421 4.19241 92.4205 4.16236L92.1408 3.71934C92.1383 3.71493 92.1347 3.70892 92.1323 3.70452C92.1299 3.70011 92.1267 3.6941 92.1239 3.6897L92.0462 3.58074C91.8066 3.25829 91.6234 2.89016 91.3802 2.56811L91.0897 2.04256C91.072 2.00731 91.0616 1.97647 91.048 1.94403L90.9266 1.59914C90.8468 1.4337 90.826 1.10684 90.9137 0.927787C90.9963 0.759148 90.9835 0.752739 91.1538 0.655001C91.1658 0.648191 91.2087 0.629765 91.2183 0.626561L91.5124 0.570882L91.8066 0.626561C91.9047 0.648191 91.8731 0.659407 91.9332 0.686245C92.0065 0.719092 92.0045 0.699464 92.0823 0.723498C92.2101 0.763154 92.3195 0.867302 92.4417 0.923782C92.4942 0.947816 92.5218 0.946614 92.5783 0.973452C92.6641 1.01471 92.7535 1.02633 92.8284 1.07279L93.0696 1.20458C93.1478 1.23342 93.2383 1.29511 93.3121 1.33516L94.1528 1.91679C94.1588 1.92039 94.1764 1.93041 94.1824 1.93361C94.3139 2.01012 94.2906 2.01412 94.3788 2.11026L94.4637 2.18837C94.511 2.23684 94.4974 2.24044 94.5503 2.28851C94.5928 2.32697 94.6068 2.32657 94.6545 2.37063C94.7823 2.4884 94.941 2.64422 95.0772 2.69429C95.1393 2.71712 95.3197 2.69148 95.4062 2.69148C95.5068 2.69148 95.5509 2.72393 95.6559 2.74516C95.7288 2.75998 95.8594 2.75678 95.9676 2.75998C96.063 2.76278 96.3251 2.83048 96.5014 2.83248C96.7322 2.83489 96.753 2.80284 96.9586 2.86493C97.0504 2.89257 97.169 2.85652 97.2592 2.89097L97.4928 2.9835C97.615 3.01915 97.5284 2.98189 97.6034 3.03637C97.6815 3.09285 97.7328 3.08083 97.8033 3.10527C97.8963 3.13771 98.0321 3.26149 98.271 3.34761L98.6424 3.55911C98.8031 3.65164 99.2315 3.87476 99.3529 3.96809L99.6611 4.14955C99.96 4.327 100.314 4.62342 100.589 4.85374L101.451 5.57677C101.457 5.58117 101.473 5.59239 101.478 5.59679L102.446 6.56336C102.45 6.56657 102.455 6.57137 102.458 6.57498L102.769 6.89423C102.865 6.98196 103.08 7.31162 103.201 7.4414C103.306 7.55396 103.42 7.65771 103.509 7.78669C103.525 7.81033 103.519 7.80512 103.535 7.83036L103.98 8.45724C104.047 8.56459 104.125 8.62468 104.191 8.73604L104.445 9.1346C104.474 9.17786 104.477 9.17986 104.503 9.21592L104.565 9.31766C104.607 9.39697 104.644 9.44504 104.692 9.51674C104.882 9.80034 105.037 10.0928 105.192 10.3928C105.274 10.5514 105.395 10.7092 105.456 10.8743C105.482 10.9424 105.471 10.9255 105.507 10.9864L105.942 11.8573C106.018 11.995 106.042 12.1208 106.103 12.255L106.16 12.3856C106.162 12.3916 106.163 12.398 106.164 12.404L106.413 13.1579C106.461 13.2949 106.436 13.2961 106.516 13.4519C106.529 13.4783 106.532 13.49 106.543 13.5176C106.635 13.7367 106.828 14.2178 106.897 14.4694C106.925 14.5687 107.06 14.7934 107.096 14.9L107.185 15.1375C107.185 15.1399 107.203 15.1872 107.203 15.1884C107.245 15.2825 107.252 15.2529 107.286 15.3622C107.348 15.5629 107.447 15.7524 107.522 15.9422C107.542 15.9931 107.549 15.9843 107.569 16.0588C107.588 16.1293 107.58 16.1285 107.603 16.1886L108.331 18.0488C108.353 18.1009 108.353 18.0889 108.381 18.1614L108.985 19.4232C109.167 19.7012 109.098 19.7016 109.365 19.9287C109.369 19.9319 109.374 19.9367 109.377 19.9399L109.488 20.0384C109.685 20.1734 109.737 20.1642 109.928 20.2515C109.933 20.2539 109.938 20.2571 109.943 20.2595L109.974 20.2756C109.978 20.278 109.984 20.2808 109.989 20.2832L110.597 20.4911C110.765 20.5235 110.714 20.5439 110.821 20.5936L111.021 20.6737C111.106 20.717 111.212 20.7178 111.294 20.7735C111.453 20.8808 111.383 20.8171 111.516 20.8788C111.587 20.9121 111.547 20.9133 111.621 20.9365C111.712 20.9649 111.789 20.9722 111.863 21.0206C111.942 21.0727 111.867 21.0362 111.976 21.0707L112.302 21.2345C112.349 21.2678 112.344 21.2738 112.395 21.3046L112.647 21.4725C112.651 21.4749 112.657 21.4785 112.661 21.4813C112.666 21.4841 112.671 21.4877 112.675 21.4905C112.68 21.4933 112.685 21.4973 112.689 21.4997L113.709 22.3217C113.713 22.3249 113.718 22.3297 113.722 22.3325L113.949 22.5011C113.954 22.5047 113.987 22.53 113.988 22.5316C113.992 22.5348 113.997 22.5396 114 22.5428L114.577 23.0158C114.767 23.1508 114.724 23.1448 114.909 23.2666C114.913 23.2694 114.919 23.273 114.923 23.2758C114.929 23.2798 114.944 23.2918 114.949 23.2962L115.167 23.4749C115.197 23.5045 115.179 23.4885 115.215 23.5206C115.293 23.5907 115.601 23.8743 115.601 23.9508C115.601 24.0137 115.589 24.0149 115.577 24.0673C115.405 24.0673 115.473 24.0209 115.391 24.0209H114.668C114.588 24.0209 114.656 24.0353 114.567 24.0597C114.426 24.099 114.351 24.0677 114.206 24.0934C114.034 24.1234 113.766 24.1138 113.593 24.1555C113.542 24.1679 113.598 24.1599 113.55 24.1651L113.251 24.2119C113.197 24.224 113.223 24.22 113.184 24.2388C113.056 24.2997 113.008 24.2624 112.882 24.3097C112.863 24.3169 112.859 24.3193 112.83 24.3281L112.282 24.526C112.159 24.5973 112.208 24.5696 112.059 24.6061C111.984 24.6245 111.948 24.6878 111.86 24.7098C111.71 24.7479 111.72 24.7098 111.573 24.7964C111.5 24.8396 111.278 24.9061 111.202 25.0976L111.194 25.1232C111.179 25.1645 111.171 25.1324 111.171 25.2098C111.171 25.2646 111.254 25.4132 111.291 25.4857L111.495 25.958C111.499 25.9636 111.51 25.9796 111.514 25.9856C111.595 26.1206 111.636 26.2869 111.74 26.4119L112.636 27.4509C112.64 27.4541 112.645 27.4585 112.649 27.4617L112.799 27.5911C112.804 27.5955 112.818 27.6091 112.823 27.614L113.092 27.8347C113.28 28.0017 113.517 28.2609 113.74 28.3758L115.128 29.179C115.206 29.2379 115.315 29.2655 115.389 29.3152L115.478 29.3656C115.482 29.3684 115.488 29.372 115.492 29.3748C115.811 29.598 116.136 29.7918 116.431 30.0454C116.481 30.0887 116.495 30.1031 116.541 30.1455L116.754 30.329C116.799 30.3703 116.75 30.3314 116.804 30.3715L117.201 30.7211C117.356 30.8509 117.467 31.0076 117.616 31.1454L117.675 31.2026C117.719 31.2427 117.741 31.2639 117.817 31.2703C117.914 31.1518 117.813 31.1606 117.764 30.9975L117.554 30.5545C117.483 30.4375 117.372 30.3234 117.283 30.2192C117.28 30.2156 117.276 30.2104 117.272 30.2068L116.196 28.812C116.168 28.7792 116.154 28.7556 116.124 28.7203L115.075 27.6949C115.071 27.6917 115.066 27.6873 115.062 27.6841L115.009 27.6436C115.006 27.6404 115 27.636 114.997 27.6328C114.994 27.6304 114.949 27.5879 114.949 27.5875C114.927 27.5695 114.944 27.5815 114.909 27.5571C114.883 27.5386 114.878 27.5374 114.852 27.5202C114.758 27.4545 114.671 27.3624 114.571 27.3115C114.468 27.2591 114.457 27.2575 114.372 27.1849C114.294 27.1197 114.262 27.1096 114.172 27.058L113.681 26.6862C113.59 26.6013 113.52 26.5969 113.427 26.4976L113.264 26.3333C113.153 26.2356 113.054 26.0982 112.974 25.9708C112.942 25.9208 112.936 25.9188 112.908 25.8731C112.711 25.543 113.034 25.6796 113.583 25.4753L114.083 25.3219C114.113 25.3135 114.179 25.3047 114.216 25.2919C114.331 25.2522 114.331 25.2394 114.482 25.2318C114.601 25.2258 114.536 25.2254 114.616 25.2021C114.739 25.1657 114.785 25.2057 114.913 25.1501L115.181 25.0916C115.294 25.0864 115.393 25.1052 115.492 25.076C115.645 25.0307 115.697 24.995 115.881 24.9754L115.991 24.945C115.996 24.9426 116.001 24.939 116.006 24.9366C116.301 24.7767 116.168 24.9462 116.495 24.7727C116.607 24.713 116.93 24.7118 116.93 24.5324C116.93 24.4158 116.81 24.2764 116.734 24.1927L116.253 23.4845C116.18 23.3599 116.091 23.2245 115.988 23.12C115.987 23.1188 115.944 23.0799 115.939 23.0763L114.866 22.0513C114.758 21.9415 114.954 22.1342 114.842 22.0285L114.356 21.6051C114.259 21.5077 114.248 21.4885 114.135 21.4056L113.57 20.9453C113.566 20.9421 113.56 20.9385 113.556 20.9353L112.854 20.3793C112.814 20.3493 112.772 20.3308 112.724 20.2992L112.438 20.1181C112.432 20.1145 112.415 20.1045 112.409 20.1009C112.372 20.0777 112.376 20.0765 112.341 20.0529C112.283 20.0132 112.268 20.0116 112.2 19.9836L111.886 19.8081C111.881 19.8057 111.875 19.8021 111.871 19.7997C111.867 19.7973 111.861 19.7937 111.856 19.7913L111.5 19.6347C111.386 19.5998 111.457 19.6102 111.374 19.5505L110.965 19.3298C110.897 19.2838 110.885 19.2946 110.818 19.2669C110.723 19.2273 110.767 19.2233 110.696 19.1796C110.608 19.1255 110.621 19.1652 110.529 19.1364L110.441 19.0847C110.274 18.9825 110.177 19.0238 109.979 18.6372C109.963 18.606 109.968 18.6152 109.945 18.5776C109.943 18.5732 109.939 18.568 109.936 18.5635L109.412 17.3158C109.345 17.2024 109.283 17.0105 109.227 16.8711L108.657 15.5525C108.62 15.4828 108.627 15.478 108.599 15.4007L108.162 14.2759C108.136 14.2014 108.156 14.2591 108.128 14.193L108.036 13.9819C108.019 13.933 108.028 13.9338 108.016 13.8857L107.613 12.8198C107.564 12.6948 107.542 12.6592 107.5 12.513C107.478 12.4341 107.461 12.4188 107.439 12.3636C107.413 12.2943 107.425 12.2622 107.399 12.1941C107.369 12.1152 107.362 12.1609 107.333 12.0503C107.293 11.9009 107.247 11.8532 107.213 11.7499C107.187 11.6674 107.13 11.4315 107.086 11.3642C107.06 11.3249 107.065 11.3577 107.037 11.2965C107.002 11.22 107.033 11.2312 106.984 11.1398C106.953 11.0834 106.928 11.0533 106.907 11.0064L106.707 10.5778C106.623 10.3788 106.51 10.2346 106.403 10.0423L106.303 9.8384C106.221 9.6261 106.065 9.43302 105.952 9.23434C105.791 8.95395 105.621 8.64551 105.413 8.39676C105.41 8.39315 105.406 8.38794 105.403 8.38434C105.399 8.38073 105.395 8.37553 105.392 8.37152C105.389 8.36792 105.384 8.36231 105.381 8.3583L105.354 8.31584C105.187 8.02223 105.202 8.09914 105.08 7.89084C104.913 7.60804 104.677 7.37491 104.493 7.10212L104.308 6.86779C104.293 6.84857 104.28 6.83334 104.266 6.81652L103.972 6.48165C103.967 6.47644 103.954 6.46202 103.95 6.45681L103.726 6.19164C103.675 6.14036 103.675 6.12955 103.631 6.07587L103.396 5.79788C103.298 5.68812 103.199 5.62523 103.102 5.50947L102.983 5.37168C102.98 5.36807 102.975 5.36326 102.972 5.36006L102.37 4.79646C102.366 4.79286 102.361 4.78805 102.358 4.78485L101.645 4.14474C101.64 4.14033 101.609 4.1135 101.608 4.11229C101.585 4.09066 101.581 4.08506 101.561 4.06583C101.368 3.87756 100.893 3.57273 100.652 3.36684L100.368 3.16135C100.354 3.15133 100.31 3.11488 100.303 3.10968L99.7693 2.71031C99.6643 2.635 99.5605 2.53686 99.4439 2.49961C99.3028 2.45475 99.1762 2.33177 99.0472 2.26648C98.9831 2.23404 98.9562 2.25286 98.8869 2.21681L98.8588 2.19839C98.725 2.10585 98.6837 2.15032 98.5703 2.09063C98.4252 2.01412 98.4585 2.01332 98.2782 1.98649C98.1752 1.97126 98.2028 1.95404 98.1343 1.92079C98.0754 1.89235 98.0285 1.89476 97.9688 1.87633C97.827 1.83187 97.817 1.80903 97.6499 1.77579C97.5633 1.75856 97.6026 1.75175 97.492 1.72371C97.4679 1.71771 97.4363 1.7129 97.4154 1.70729L97.1494 1.6468C97.0816 1.62197 97.0969 1.59593 97.0067 1.57791C96.8837 1.55347 96.9334 1.59513 96.8312 1.58912C96.7474 1.58432 96.7731 1.55788 96.6661 1.54706L95.8502 1.52343C95.7977 1.52383 95.6867 1.52984 95.6406 1.52343L95.4207 1.39365C95.3954 1.37081 95.413 1.38443 95.385 1.3596L94.9626 0.942608C94.8352 0.830049 94.709 0.708677 94.5647 0.617748C94.5587 0.614143 94.5415 0.604129 94.5355 0.600524L94.4665 0.552857C94.4629 0.549652 94.4577 0.545246 94.4541 0.542041C94.4505 0.538837 94.4457 0.53403 94.4421 0.530825L93.9817 0.245221C93.8618 0.185136 93.9011 0.157497 93.8041 0.119443C93.7649 0.103821 93.7701 0.114636 93.7244 0.0825911C93.5184 -0.0628147 93.6126 0.0245089 93.4555 -0.0684226L92.733 -0.395285C92.6998 -0.408103 92.6974 -0.406101 92.6629 -0.418118L92.5956 -0.444154C92.291 -0.559518 92.3824 -0.504239 92.2558 -0.545097L92.1868 -0.578745C92.0891 -0.617199 91.8442 -0.597972 91.7228 -0.597571C91.583 -0.597571 91.4191 -0.61039 91.3429 -0.604782C91.2752 -0.599574 91.2119 -0.601177 91.1534 -0.584353C91.0837 -0.564324 91.0724 -0.538688 91.0187 -0.509447L90.836 -0.435742C90.6705 -0.357231 90.6765 -0.348419 90.5467 -0.23586C90.3784 -0.0896527 90.2437 0.107426 90.1648 0.314519L90.1311 0.397437C90.1287 0.402243 90.1251 0.407851 90.1227 0.412258C89.9885 0.669021 90.0578 0.693456 89.9853 0.880921C89.95 0.972651 89.9508 0.862094 89.9508 0.963037L89.9492 0.965441Z" fill="white"/>
<path fill-rule="evenodd" clip-rule="evenodd" d="M71.62 31.3151C71.7294 31.7838 71.6008 32.4211 71.6449 32.9226L71.6665 33.4129C71.6665 33.5258 71.6457 33.5719 71.6457 33.646L71.6665 33.9024C71.6665 34.0153 71.6457 34.0614 71.6457 34.1355C71.6457 34.2096 71.6665 34.2557 71.6665 34.3686L71.6433 34.9282C71.6433 35.4189 71.6172 35.9841 71.6433 36.4668C71.6553 36.6895 71.6653 36.7015 71.6461 36.9371C71.6377 37.0404 71.6669 37.0644 71.6669 37.1894C71.6669 37.308 71.6473 37.342 71.6449 37.4237C71.6425 37.5115 71.6669 37.5563 71.6669 37.6789L71.6449 38.4027C71.6152 38.7805 71.7455 38.7044 71.154 38.7044L68.8927 38.7272C68.795 38.7272 68.7629 38.7044 68.6355 38.7044L67.7254 38.7036C67.5852 38.704 67.5563 38.7272 67.4241 38.7284C67.2149 38.7308 67.0029 38.7276 66.7934 38.7276C66.5329 38.7276 66.1722 38.7332 65.9194 38.6687C65.7872 38.6351 65.6681 38.6491 65.5531 38.5918C65.2967 38.4632 65.2626 38.436 65.1011 38.2978C65.0959 38.2934 65.0807 38.2814 65.0755 38.2766C65.0146 38.2213 64.9817 38.1488 64.9509 38.0747C64.8298 37.7839 64.8807 37.2463 64.8815 36.9086C64.8819 36.7941 64.8595 36.7163 64.8667 36.639C64.8767 36.5317 64.902 36.4584 64.9048 36.3506C64.9168 35.9372 64.902 35.5066 64.904 35.0908C64.9052 34.8817 64.8803 34.7359 64.8803 34.5084C64.8803 34.1235 64.9108 33.6212 64.8783 33.2502C64.8663 33.1088 64.8615 33.1465 64.8799 32.9935C64.9116 32.7299 64.9468 31.4529 64.8603 31.3347C64.8575 31.3307 64.8539 31.2766 64.7184 31.2666C64.6163 31.259 64.482 31.2931 64.4139 31.2971L62.9985 31.2967C62.9188 31.2843 63.0218 31.2682 62.9212 31.2682C62.7513 31.2682 62.4135 31.2041 62.3522 31.3772L62.3614 36.0005C62.3614 36.0574 62.3482 36.0907 62.3478 36.1199C62.3462 36.182 62.3614 36.1676 62.3614 36.2569L62.361 36.5129C62.3822 36.8786 62.3129 37.8656 62.375 38.1083C62.3878 38.1584 62.4003 38.1792 62.4207 38.2257C62.4588 38.3122 62.4399 38.2353 62.4564 38.3531C62.4824 38.5373 62.5742 38.6371 62.6383 38.8005C62.6744 38.8918 62.7104 38.9255 62.7753 38.99L63.0017 39.2531C63.0038 39.2551 63.0354 39.286 63.037 39.288C63.0402 39.2916 63.045 39.2968 63.0482 39.3004L63.1544 39.4041C63.1845 39.4306 63.2037 39.451 63.2382 39.4839L63.822 39.8792C63.826 39.8812 63.8697 39.8992 63.8713 39.9C63.907 39.9193 63.8797 39.9041 63.9134 39.9281C63.9739 39.9714 63.943 39.9633 64.0148 39.9898L64.361 40.1332C64.5477 40.2205 64.5465 40.1941 64.7272 40.2578L65.0586 40.3447C65.1244 40.3599 65.0839 40.3631 65.1781 40.3887C65.2217 40.4008 65.2646 40.3992 65.3179 40.4124C65.4317 40.4404 65.3039 40.4332 65.4413 40.452C65.61 40.4753 65.8833 40.4488 66.0264 40.4965C66.0957 40.5197 66.0011 40.4973 66.0773 40.5153C66.478 40.6099 67.7675 40.5233 68.2147 40.5233C68.809 40.5233 69.3239 40.5466 69.917 40.5466C70.492 40.5466 71.0254 40.5233 71.6192 40.5233C71.6252 40.5962 71.6425 40.6062 71.6425 40.6864C71.6425 40.9904 71.6521 41.3529 71.6228 41.6457C71.5992 41.8829 71.6477 41.7687 71.5459 41.9417C71.4682 42.0739 71.4269 42.1608 71.3079 42.2634L71.2566 42.3055C71.13 42.4 70.9893 42.4448 70.8555 42.5105C70.8402 42.5182 70.7368 42.561 70.7228 42.5642C70.5373 42.6095 70.5573 42.5678 70.288 42.6636C70.256 42.6752 70.2612 42.6744 70.2351 42.6804C70.1181 42.708 69.1708 42.7148 69.0318 42.6636C68.9765 42.6431 69.0883 42.6443 68.9841 42.6443H67.5848C67.5267 42.6443 67.483 42.6888 67.3536 42.6912C67.0795 42.6964 66.1903 42.7244 65.9963 42.6632L64.4391 42.6824C64.3041 42.7124 63.2987 42.7008 63.1067 42.6912C62.9669 42.6844 62.9721 42.6439 62.8054 42.6427C62.6888 42.6419 62.5714 42.6439 62.4544 42.6439C62.4103 42.8094 62.3842 42.6367 62.3842 42.9704C62.3842 43.2444 62.3862 43.5003 62.4063 43.7407C62.4159 43.8593 62.4071 44.0135 62.4079 44.136C62.4087 44.2995 62.3842 44.3576 62.3842 44.5086C62.5145 44.5959 62.468 44.5923 62.6363 44.5959C62.7661 44.5987 62.8479 44.6079 62.9773 44.5883C63.3568 44.531 64.7501 44.6019 65.2061 44.6019C65.7467 44.6019 66.2067 44.5787 66.7453 44.5787L68.8442 44.6023C69.3624 44.6051 70.0516 44.5118 70.5597 44.5887C70.7649 44.6199 70.916 44.6091 71.0702 44.543C71.245 44.4681 71.4153 44.5026 71.6501 44.4C71.6902 44.3824 71.7242 44.378 71.7627 44.3728L72.2147 44.2418C72.2977 44.2182 72.3149 44.1669 72.4123 44.136L72.7741 43.9382C73.0053 43.8112 73.0927 43.7483 73.2654 43.5668L73.6324 43.2111C73.7519 43.0769 73.8356 42.9111 73.9182 42.7509L74.0584 42.4016C74.0789 42.3395 74.066 42.3896 74.0837 42.3335L74.1614 41.8288C74.1598 41.6429 74.1842 41.4835 74.1842 41.2688V31.8983C74.1842 31.7433 74.1494 31.6408 74.1706 31.5122C74.1802 31.4541 74.1999 31.3948 74.1738 31.3271C74.157 31.2839 74.0945 31.2222 74.0444 31.2222H71.7591C71.701 31.2222 71.6713 31.2807 71.6192 31.3155L71.62 31.3151Z" fill="white"/>
<path fill-rule="evenodd" clip-rule="evenodd" d="M76.0536 30.1263V31.3848C76.0536 31.4465 76.1 31.4569 76.1 31.5479C76.1 31.5775 76.0536 31.6168 76.0524 31.8751C76.0516 32.0282 76.0992 32.0678 76.1 32.2236C76.1008 32.3919 76.1718 32.7159 76.2547 32.8613C76.3693 33.0624 76.3148 33.0196 76.3673 33.1217L76.6146 33.4574C76.6639 33.5038 76.6767 33.495 76.73 33.5515L77.063 33.8483C77.067 33.8511 77.073 33.8547 77.077 33.8575C77.1816 33.9329 77.1359 33.9353 77.2621 33.9753C77.3274 33.9961 77.3559 34.0526 77.4136 34.0803C77.4697 34.1071 77.3848 34.069 77.4481 34.0923C77.5206 34.1191 77.5671 34.176 77.6352 34.2084L77.9129 34.327C78.0459 34.3695 78.0351 34.4259 78.1754 34.4396C78.4427 34.4656 78.3076 34.5389 78.5957 34.5537C78.7127 34.5597 78.7829 34.6326 78.883 34.6647C78.8903 34.6671 78.9556 34.6811 78.9572 34.6811C79.055 34.6891 79.0429 34.6599 79.1423 34.6831C79.2798 34.7152 79.3439 34.752 79.4825 34.7624C79.5655 34.7684 79.6512 34.7548 79.7326 34.7696L80.0283 34.8013C80.1205 34.8069 80.0708 34.7889 80.1345 34.7837C80.1405 34.7833 80.1746 34.7865 80.1814 34.7877C80.3144 34.8069 80.3004 34.756 80.4198 34.7877C80.502 34.8093 80.4827 34.7873 80.5536 34.7873C80.6438 34.7873 80.6005 34.8013 80.6522 34.8041L80.9211 34.7877C80.9347 34.7841 80.9243 34.7704 80.9864 34.7768C81.0818 34.7865 80.9688 34.7821 81.0549 34.7965C81.1395 34.8109 81.1303 34.7712 81.2232 34.7837L81.281 34.7993C81.396 34.8101 81.2513 34.7873 81.3699 34.7873H81.5266C81.5939 34.7744 81.6472 34.8037 81.6929 34.7997C81.7542 34.7945 81.7526 34.764 81.8428 34.7877L82.0756 34.8025C82.0808 34.8025 82.0876 34.8021 82.0924 34.8017C82.1673 34.7957 82.0944 34.7752 82.1934 34.7845C82.3609 34.8001 82.3312 34.772 82.4775 34.7965C82.5613 34.8105 82.5721 34.7732 82.6558 34.7905C82.7396 34.8073 82.7532 34.7801 82.875 34.7961C83.0313 34.8165 83.1311 34.8049 83.2729 34.8429L83.5246 34.8946C83.7814 34.9715 83.6885 34.8598 83.9489 35.03C84.0419 35.0909 84.1593 35.1289 84.2367 35.2087C84.3144 35.2892 84.3753 35.334 84.3785 35.4634C84.4699 35.4734 84.4599 35.4706 84.4719 35.58L84.5184 37.5612C84.5184 37.6549 84.5007 37.5616 84.4791 37.6617C84.4535 37.7815 84.4991 37.7923 84.433 37.8953L84.108 38.293L83.8363 38.4408C83.5775 38.5334 83.8023 38.5201 83.3867 38.5486C83.2874 38.5554 83.3615 38.5398 83.2593 38.5398C83.1972 38.5398 83.2148 38.5626 83.1527 38.5971C83.0806 38.6371 83.0481 38.6099 82.9564 38.6099C82.9488 38.6099 82.9151 38.6119 82.9103 38.6115L82.7736 38.6359C82.6819 38.668 82.7392 38.6515 82.6442 38.6439C82.5068 38.6327 82.6041 38.6567 82.5136 38.6567C82.4234 38.6567 82.4667 38.6427 82.415 38.6399C82.2787 38.6327 82.4138 38.6567 82.3036 38.6567C82.2182 38.6567 82.2551 38.6431 82.205 38.6411C82.1509 38.6387 82.1481 38.6463 82.112 38.6475C82.0255 38.6507 82.0708 38.6431 82.0187 38.6411C81.8844 38.6359 82.0139 38.6563 81.9069 38.6563C81.8167 38.6563 81.86 38.6423 81.8083 38.6395C81.6721 38.6323 81.8071 38.6563 81.6969 38.6563L81.394 38.6331C81.2689 38.6331 81.3591 38.6804 81.2084 38.6339C81.0049 38.5714 80.1445 38.6131 79.8412 38.5999C79.7522 38.5958 79.8255 38.5858 79.765 38.6131C79.6408 38.6696 79.6817 38.6511 79.4585 38.6495C79.3395 38.6487 79.4781 38.6331 79.3651 38.6331L79.0622 38.6563C78.972 38.6563 79.0153 38.6423 78.9636 38.6395C78.8273 38.6323 78.9624 38.6563 78.8522 38.6563L78.5677 38.6411C78.4334 38.6359 78.5625 38.6563 78.4559 38.6563C78.3497 38.6563 78.4242 38.6391 78.3393 38.6391C78.2543 38.6391 78.3288 38.6563 78.2227 38.6563C78.1589 38.6563 78.1409 38.6007 78.0668 38.5987C77.7586 38.5902 77.0838 38.6375 76.8057 38.6123L76.7588 38.6071C76.7031 38.6151 76.6114 38.6563 76.4968 38.6563C76.417 38.6563 76.4599 38.6179 76.3789 38.6343C76.2199 38.6668 76.195 38.6119 76.054 38.6796C75.9939 38.9375 76.0307 40.0591 76.0307 40.4044C76.0307 40.4953 76.0488 40.5775 76.0772 40.6375C76.1766 40.6111 76.1333 40.5911 76.2171 40.5911C76.3281 40.5911 76.2066 40.6239 76.3104 40.6239C76.3882 40.6239 76.3212 40.5911 76.427 40.5911C76.538 40.5911 76.4166 40.6239 76.5204 40.6239C76.6242 40.6239 76.5028 40.5911 76.6138 40.5911H78.106C78.2283 40.5911 78.1309 40.6151 78.2275 40.6207C78.3036 40.6251 78.2683 40.5911 78.3393 40.5911C78.4402 40.5911 78.3341 40.6183 78.4362 40.6203C78.508 40.6215 78.4447 40.5911 78.5492 40.5911C78.6602 40.5911 78.5388 40.6239 78.6426 40.6239C78.7204 40.6239 78.6534 40.5911 78.7592 40.5911C78.8734 40.5911 78.7472 40.6223 78.849 40.6203C78.9512 40.6183 78.845 40.5911 78.946 40.5911C79.0469 40.5911 78.9407 40.6183 79.0429 40.6203C79.1147 40.6215 79.0513 40.5911 79.1559 40.5911C79.2669 40.5911 79.1455 40.6239 79.2493 40.6239C79.327 40.6239 79.2601 40.5911 79.3659 40.5911C79.4537 40.5911 79.3775 40.6151 79.4457 40.6231C79.5547 40.6367 79.4637 40.5911 79.529 40.5911C79.6516 40.5911 79.5538 40.6155 79.6504 40.6207C79.7234 40.6247 79.6861 40.5911 79.7855 40.5911H81.1848C81.2958 40.5911 81.1744 40.6239 81.2781 40.6239C81.3559 40.6239 81.289 40.5911 81.3948 40.5911C81.4825 40.5911 81.4064 40.6151 81.4745 40.6231C81.5835 40.6367 81.4925 40.5911 81.5578 40.5911C81.6801 40.5911 81.5827 40.6151 81.6793 40.6207C81.7554 40.6251 81.7201 40.5911 81.7907 40.5911C81.9017 40.5911 81.7803 40.6239 81.884 40.6239C81.9618 40.6239 81.8949 40.5911 82.0006 40.5911C82.1116 40.5911 81.9902 40.6239 82.094 40.6239C82.1718 40.6239 82.1048 40.5911 82.2106 40.5911C82.3252 40.5911 82.1986 40.6223 82.3004 40.6203C82.4026 40.6183 82.2964 40.5911 82.3974 40.5911C82.4979 40.5911 82.3921 40.6183 82.4943 40.6203C82.5661 40.6215 82.5027 40.5911 82.6073 40.5911C82.7195 40.5911 82.5965 40.6247 82.6999 40.6231C82.756 40.6223 82.7075 40.6119 82.7961 40.5955C83.1187 40.5362 83.7394 40.6656 84.0199 40.5578C84.1669 40.5013 84.4923 40.4625 84.5352 40.4437L84.5957 40.4112C84.6835 40.3672 84.7063 40.3704 84.8165 40.3523C84.99 40.3235 84.9183 40.2858 85.1191 40.2354C85.1896 40.2177 85.1599 40.2274 85.2092 40.1857L85.2329 40.1629C85.3042 40.1092 85.3294 40.1324 85.3992 40.0727C85.4629 40.0183 85.5025 40.0243 85.5815 39.9754L85.9794 39.7206C85.9838 39.7182 85.9898 39.715 85.9946 39.7126L86.2467 39.4983C86.2908 39.4447 86.3969 39.3806 86.5348 39.2271C86.5697 39.1883 86.5757 39.1875 86.6041 39.1566C86.6378 39.1206 86.6502 39.1046 86.6706 39.0601L86.8197 38.8126C86.8225 38.8082 86.8257 38.8021 86.8281 38.7977C86.8305 38.7933 86.8341 38.7873 86.8365 38.7825L86.9371 38.4869C86.9824 38.3559 87.0365 38.3623 87.0377 38.0046C87.0377 37.963 87.0337 37.9077 87.0409 37.868C87.0565 37.7791 87.0581 37.8388 87.0766 37.7639C87.1134 37.6141 87.0842 36.2958 87.0842 35.9533C87.0842 35.8616 87.1006 35.8468 87.1006 35.7903L87.0858 35.4157C87.083 35.314 87.0653 35.306 87.0441 35.2475C86.9948 35.1125 86.978 34.9447 86.9099 34.7989C86.8926 34.7624 86.853 34.7011 86.8321 34.6667C86.7548 34.5397 86.6827 34.4155 86.5845 34.3082C86.5813 34.3046 86.5765 34.2998 86.5733 34.2962C86.5701 34.2926 86.5652 34.2878 86.562 34.2841L86.4226 34.1435C86.3136 34.0614 86.3112 34.0001 86.1842 33.9156L85.7149 33.5924C85.6159 33.5451 85.6191 33.594 85.5041 33.4998C85.4308 33.4398 85.0529 33.2903 84.9403 33.2475C84.9335 33.2447 84.9131 33.2375 84.9063 33.2351C84.9011 33.2331 84.895 33.2307 84.8894 33.2287C84.8838 33.2267 84.8782 33.2238 84.8726 33.2222C84.8089 33.2002 84.7764 33.2006 84.7127 33.1726C84.7079 33.1706 84.7023 33.1666 84.6975 33.1646C84.6927 33.1622 84.6871 33.1586 84.6823 33.1566L84.3994 33.0897C83.961 33.0336 84.0888 32.9927 83.6801 32.9927C83.2809 32.9927 80.2379 33.0196 80.0684 32.9899C79.9658 32.9719 80.0399 32.9631 79.9349 32.937C79.8287 32.9106 79.8612 32.9643 79.654 32.8918C79.523 32.8457 79.4473 32.889 79.3034 32.7992C79.2505 32.7664 79.2946 32.786 79.2453 32.764C79.0566 32.6795 79.1058 32.7279 78.9283 32.5681C78.8378 32.4864 78.7432 32.327 78.7027 32.2108C78.6791 32.1423 78.6911 32.1155 78.6618 32.0418C78.6278 31.9557 78.635 32.0185 78.6118 31.8824C78.5625 31.5959 78.5965 30.5096 78.5965 30.1495C78.5965 30.0522 78.7131 29.7233 78.8165 29.5999C78.8197 29.5963 78.8241 29.5911 78.8273 29.5875C78.8362 29.5771 78.8454 29.5647 78.8594 29.5494L79.0493 29.3896C79.0534 29.3868 79.0586 29.3824 79.063 29.3796C79.0674 29.3772 79.073 29.3736 79.0778 29.3712C79.1471 29.3404 79.2168 29.3648 79.2918 29.352C79.3194 29.3472 79.3427 29.3379 79.3759 29.3199C79.3803 29.3175 79.3859 29.3135 79.3904 29.3111C79.3948 29.3087 79.4004 29.3047 79.4048 29.3023C79.4092 29.2999 79.4148 29.2959 79.4192 29.2935C79.521 29.2354 79.5615 29.239 79.6921 29.2402C80.2631 29.245 80.8806 29.2711 81.4481 29.2238L81.6981 29.241C81.7967 29.241 81.8279 29.2242 81.8868 29.2222C81.9582 29.2202 81.9886 29.241 82.0944 29.241C82.193 29.241 82.2242 29.2242 82.2832 29.2222L82.5376 29.241C82.6298 29.241 82.6442 29.2246 82.7007 29.2246C82.7576 29.2246 82.772 29.241 82.8638 29.241H84.3328C84.4314 29.241 84.4627 29.2242 84.5216 29.2222C84.5929 29.2202 84.623 29.241 84.7291 29.241C84.8277 29.241 84.8586 29.2242 84.9179 29.2222L85.1487 29.241C85.2473 29.241 85.2781 29.2242 85.3374 29.2222C85.4088 29.2202 85.4388 29.241 85.545 29.241C85.6436 29.241 85.6744 29.2242 85.7338 29.2222C85.8051 29.2202 85.8351 29.241 85.9413 29.241H87.0605C87.115 29.241 87.1771 29.1789 87.1771 29.1244V27.4929C87.1771 27.3267 87.113 27.3383 87.0838 27.2133C86.2391 27.2133 79.947 27.1809 79.654 27.2242C79.5326 27.2422 79.5534 27.2254 79.4765 27.221C79.3671 27.2145 79.0742 27.3035 78.9456 27.3071C78.8049 27.3107 78.663 27.3147 78.5677 27.3724C78.4362 27.4513 78.3341 27.3844 78.2395 27.4641C78.1646 27.527 78.2271 27.5262 78.1052 27.5394C77.9586 27.5554 78.0227 27.5038 77.9249 27.5923C77.7767 27.7273 77.8111 27.5891 77.6232 27.7337C77.5038 27.8254 77.3603 27.855 77.2405 27.9572L76.8462 28.262C76.7584 28.3281 76.6867 28.4339 76.6154 28.5208C76.6122 28.5244 76.6074 28.5296 76.6046 28.5332C76.6017 28.5372 76.5973 28.5424 76.5945 28.5464L76.4358 28.8308C76.3301 29.0588 76.3757 28.7904 76.2074 29.3948C76.1349 29.6544 76.1085 29.6488 76.1024 29.9424C76.0988 30.1086 76.0544 30.0498 76.0544 30.1275L76.0536 30.1263Z" fill="white"/>
<path fill-rule="evenodd" clip-rule="evenodd" d="M102.449 27.3292V29.4502C102.449 29.5419 102.466 29.5567 102.466 29.6132L102.449 29.9397C102.449 30.0314 102.466 30.0462 102.466 30.1027L102.449 30.4059C102.449 30.4976 102.466 30.5125 102.466 30.5689L102.449 30.8485C102.449 30.9471 102.466 30.9783 102.468 31.0372C102.47 31.1085 102.449 31.1385 102.449 31.2447V33.0164C102.449 33.1081 102.466 33.123 102.466 33.1794L102.449 33.4827C102.449 33.5744 102.466 33.5892 102.466 33.6457L102.449 33.9485C102.449 34.0403 102.466 34.0551 102.466 34.1116L102.449 34.438C102.449 34.5298 102.466 34.5446 102.466 34.6011C102.466 34.6579 102.449 34.6724 102.449 34.7641V36.559C102.449 36.6508 102.466 36.6656 102.466 36.7221L102.48 37.5536C102.501 37.6418 102.52 37.5817 102.521 37.7463C102.521 37.8488 102.51 37.9454 102.545 38.0479C102.547 38.0535 102.549 38.0595 102.551 38.0648L102.567 38.0964C102.629 38.225 102.612 38.3592 102.686 38.4906C102.715 38.5426 102.733 38.5763 102.752 38.634C102.774 38.7017 102.791 38.7525 102.817 38.8014L103.26 39.3846C103.264 39.3878 103.269 39.3922 103.273 39.3954L103.555 39.6494C103.614 39.6911 103.617 39.7211 103.686 39.7515L103.974 39.9298C104.156 40.0788 104.066 39.9266 104.262 40.0852C104.367 40.1697 104.335 40.094 104.442 40.1389C104.557 40.1878 104.43 40.1962 104.58 40.2338C104.65 40.2514 104.692 40.2358 104.768 40.2559C104.924 40.2967 104.844 40.3103 105.125 40.3648C105.156 40.3708 105.173 40.3728 105.217 40.39C105.223 40.3928 105.242 40.4013 105.249 40.4045L105.327 40.4425C105.333 40.4445 105.339 40.4461 105.345 40.4477L105.466 40.4665C105.542 40.4762 105.61 40.4702 105.677 40.489L105.866 40.5338C105.945 40.5555 105.972 40.5923 106.064 40.5923C106.167 40.5923 106.053 40.5679 106.167 40.5575C106.2 40.5547 106.315 40.5923 106.577 40.5923C106.724 40.5923 106.92 40.5903 107.039 40.6188L107.081 40.6236C107.16 40.6136 107.058 40.5923 107.16 40.5923H108.699C108.813 40.5923 108.687 40.6236 108.789 40.6216C108.891 40.6196 108.785 40.5923 108.886 40.5923C108.987 40.5923 108.881 40.6196 108.983 40.6216C109.055 40.6228 108.991 40.5923 109.096 40.5923C109.207 40.5923 109.075 40.5931 109.144 40.6132C109.227 40.6372 109.201 40.5923 109.306 40.5923C109.42 40.5923 109.294 40.6236 109.396 40.6216C109.498 40.6196 109.392 40.5923 109.493 40.5923C109.584 40.5923 109.497 40.6172 109.59 40.6228C109.665 40.6272 109.633 40.5923 109.703 40.5923C109.814 40.5923 109.692 40.6252 109.796 40.6252C109.874 40.6252 109.807 40.5923 109.913 40.5923C110.024 40.5923 109.902 40.6252 110.006 40.6252C110.11 40.6252 109.988 40.5923 110.099 40.5923H111.732C111.843 40.5923 111.721 40.6252 111.825 40.6252C111.903 40.6252 111.836 40.5923 111.942 40.5923C112.021 40.5923 111.953 40.6228 112.031 40.6212C112.123 40.6196 112.031 40.5923 112.152 40.5923C112.266 40.5923 112.14 40.6236 112.242 40.6216C112.344 40.6196 112.238 40.5923 112.339 40.5923C112.44 40.5923 112.333 40.6196 112.436 40.6216C112.507 40.6228 112.444 40.5923 112.549 40.5923C112.628 40.5923 112.56 40.6228 112.638 40.6212C112.73 40.6196 112.638 40.5923 112.759 40.5923C112.873 40.5923 112.747 40.6236 112.848 40.6216C112.95 40.6196 112.844 40.5923 112.945 40.5923C113.037 40.5923 112.948 40.618 113.043 40.6224C113.09 40.6244 113.083 40.6108 113.137 40.5999C113.231 40.5811 113.338 40.5923 113.435 40.5923C113.454 40.5222 113.435 40.5411 113.505 40.5226V38.914C113.505 38.8098 113.534 38.656 113.431 38.6179C113.429 38.6167 113.422 38.6151 113.419 38.6143C113.342 38.5883 113.429 38.5879 113.342 38.5879C113.271 38.5879 113.309 38.6179 113.211 38.6452C113.079 38.6812 113.145 38.6348 113.062 38.6348L112.759 38.658C112.668 38.658 112.712 38.644 112.66 38.6412C112.524 38.634 112.659 38.658 112.549 38.658L112.264 38.6428C112.13 38.6376 112.259 38.658 112.152 38.658C112.062 38.658 112.105 38.644 112.054 38.6412C111.917 38.634 112.052 38.658 111.942 38.658C111.836 38.658 111.91 38.6408 111.826 38.6412C111.76 38.6412 111.78 38.658 111.685 38.658C111.606 38.658 111.647 38.6147 111.561 38.6023L111.477 38.6155C111.285 38.6271 110.312 38.5695 110.207 38.6219C110.072 38.69 110.141 38.6472 110.024 38.6412C109.888 38.634 110.023 38.6576 109.913 38.6576C109.805 38.6576 109.886 38.6356 109.759 38.6448C109.631 38.6544 109.682 38.6344 109.61 38.6344L109.306 38.6576C109.216 38.6576 109.259 38.6436 109.208 38.6408C109.072 38.6336 109.207 38.6576 109.096 38.6576C109.011 38.6576 109.048 38.644 108.998 38.642L108.775 38.6424C108.742 38.644 108.712 38.6576 108.653 38.6576C108.574 38.6576 108.63 38.6484 108.565 38.6231L107.291 38.6151C107.288 38.6151 107.279 38.6155 107.275 38.6151C107.215 38.6111 107.221 38.5887 107.154 38.6211C107.046 38.6736 107.04 38.6412 106.951 38.6412C106.886 38.6412 106.905 38.6576 106.811 38.6576C106.704 38.6576 106.84 38.5899 106.511 38.6163C106.392 38.6259 106.489 38.6468 106.379 38.5787C106.279 38.517 106.122 38.5558 105.994 38.5418C105.862 38.527 105.939 38.5118 105.858 38.4685C105.737 38.404 105.742 38.4865 105.522 38.3375C105.517 38.3335 105.5 38.3227 105.494 38.3195C105.302 38.2106 105.283 38.2158 105.182 38.0019C105.136 37.9053 105.095 37.8941 105.086 37.7715C105.068 37.5328 104.991 37.5841 104.992 37.236V27.5855C104.992 27.3704 104.988 27.3957 104.945 27.2126H102.987C102.814 27.2126 102.45 27.1581 102.45 27.3292H102.449Z" fill="white"/>
<path fill-rule="evenodd" clip-rule="evenodd" d="M116.815 39.7071V39.8237H116.721C116.713 39.7271 116.697 39.7451 116.671 39.6638C116.651 39.5993 116.661 39.5517 116.641 39.4844C116.612 39.3882 116.611 39.4748 116.55 39.2725C116.511 39.1431 116.47 38.9949 116.402 38.8843C116.352 38.8038 116.372 38.8202 116.348 38.7289C116.29 38.5166 116.17 38.6576 116.045 38.6576C115.765 38.6576 115.812 38.4433 115.812 39.3101L115.814 40.0111C115.813 40.0604 115.691 40.4037 115.81 40.5715C115.87 40.6572 115.873 40.6388 116.045 40.6388C116.125 40.6388 116.134 40.5747 116.163 40.4766C116.227 40.2631 116.144 40.3921 116.148 40.2687C116.149 40.2118 116.185 40.2074 116.185 40.1493C116.185 40.0684 116.139 40.1137 116.139 40.0327V39.4267H116.255L116.365 39.8765C116.46 40.0924 116.39 39.9362 116.421 40.0996C116.446 40.2274 116.45 40.08 116.546 40.3941L116.604 40.5463C116.745 40.7622 116.933 40.5415 116.951 40.4493C116.969 40.3632 116.948 40.3784 116.981 40.2927L117.062 40.0936C117.064 40.0888 117.068 40.0832 117.07 40.0788L117.087 40.0492C117.09 40.0428 117.099 40.0243 117.102 40.0175L117.16 39.8657C117.172 39.7924 117.168 39.7235 117.181 39.677C117.213 39.5601 117.224 39.6318 117.234 39.5196H117.327V40.5218C117.327 40.5743 117.383 40.6228 117.42 40.6408L117.581 40.6336C117.766 40.5439 117.7 40.4077 117.7 40.3584V38.8899C117.7 38.8515 117.763 38.6744 117.569 38.6095C117.523 38.5943 117.602 38.6031 117.535 38.6031L117.443 38.6203C117.369 38.6211 117.403 38.5955 117.333 38.6103L117.31 38.6175C117.096 38.6884 117.149 38.6832 117.051 38.9765C117.008 39.1066 117.033 39.1231 116.997 39.2128C116.97 39.2797 116.907 39.3674 116.891 39.4335C116.877 39.492 116.89 39.5176 116.873 39.5785C116.847 39.671 116.814 39.6326 116.814 39.7059L116.815 39.7071Z" fill="white"/>
<path fill-rule="evenodd" clip-rule="evenodd" d="M95.5688 4.92834C95.5228 5.12101 95.54 4.98803 95.7099 5.30007C95.7852 5.43786 95.7464 5.36175 95.8285 5.4611L95.9391 5.6073C96.0369 5.75591 96.0321 5.69062 96.1487 5.93376C96.2224 6.08758 96.297 6.21216 96.3402 6.39522C96.3691 6.51739 96.3871 6.50537 96.4272 6.58829L96.4628 6.69244C96.5093 6.81301 96.5486 6.74331 96.5486 6.93318C96.6652 6.93318 96.7249 6.90193 96.8255 6.76694C96.8423 6.74411 96.8419 6.74171 96.8523 6.72368C96.9257 6.5979 97.0615 6.27024 97.0615 6.16369V5.83723C97.0615 5.78836 97.0215 5.76873 96.9714 5.62453C96.9305 5.50756 96.8948 5.49314 96.8564 5.41303L96.8051 5.30087C96.7209 5.16428 96.5394 5.06574 96.3803 4.90952C96.3098 4.84022 96.2745 4.82259 96.1395 4.84342C95.8638 4.88628 96.0421 4.80417 95.7404 4.91272L95.5692 4.92794L95.5688 4.92834Z" fill="white"/>
<path fill-rule="evenodd" clip-rule="evenodd" d="M114.082 38.7044C114.082 38.9304 114.055 38.9768 114.144 39.0193C114.146 39.0205 114.153 39.0225 114.156 39.0233C114.232 39.0533 114.242 39.073 114.421 39.0397L114.537 39.0277C114.636 39.0361 114.553 39.1607 114.566 39.2696C114.601 39.544 114.532 39.2841 114.571 39.488C114.587 39.5721 114.571 39.5637 114.563 39.6474V39.9702C114.664 40.4028 114.488 40.5995 114.705 40.6468C114.744 40.6552 114.744 40.6584 114.794 40.6496C115.014 40.6103 114.99 40.3452 115.002 40.1821C115.014 40.0151 114.945 40.1076 114.945 39.939C114.945 39.8581 114.992 39.9033 114.992 39.8224V39.3097C114.992 39.2724 114.841 39.0966 115.066 39.0313C115.193 38.9949 115.221 39.1078 115.361 39.0261C115.466 38.9652 115.435 38.9103 115.435 38.7269C115.435 38.67 115.381 38.6103 115.295 38.6103C115.196 38.6103 115.298 38.6335 115.196 38.6492C115.059 38.67 115.202 38.6335 115.085 38.6335C114.986 38.6335 115.044 38.6532 114.913 38.644C114.799 38.6359 114.85 38.6568 114.736 38.6568C114.642 38.6568 114.738 38.6576 114.659 38.6271C114.656 38.6259 114.65 38.6235 114.647 38.6223L114.284 38.6123C114.226 38.6083 114.253 38.5743 114.163 38.6171C114.069 38.6616 114.082 38.6508 114.082 38.7036L114.082 38.7044Z" fill="white"/>
</g>
</g>
<defs>
<clipPath id="clip0_3346_41709">
<rect width="161" height="45.21" fill="white"/>
</clipPath>
<clipPath id="clip1_3346_41709">
<rect width="74.7114" height="45.21" fill="white" transform="translate(43.1445 -0.60498)"/>
</clipPath>
</defs>
</svg>
