<svg width="169" height="19" viewBox="0 0 169 19" fill="none" xmlns="http://www.w3.org/2000/svg">
<path d="M68.5616 12.4017C68.6491 10.5621 68.0692 8.15234 69.0218 7.12679C69.9744 6.10124 72.3997 6.6669 74.1806 6.35877C76.1499 5.96974 78.1912 6.19283 80.0298 6.99802C80.9226 7.41652 81.6221 7.11299 82.4274 6.84626C84.8468 6.06953 87.4416 6.02314 89.8872 6.71289C91.9627 7.25556 92.9705 8.58003 93.012 10.6679C93.0534 12.7558 92.9475 14.9541 93.058 17.1063C93.1316 18.486 92.3953 18.5182 91.3691 18.5274C90.3428 18.5366 89.6663 18.3113 89.7215 17.0144C89.809 14.8759 89.7998 12.7328 89.7215 10.5759C89.6663 9.21928 89.1693 8.08795 87.6783 7.58667C85.9525 7.00262 84.351 7.43031 82.7864 8.04656C82.2249 8.26731 82.478 9.00773 82.4734 9.5182C82.4734 11.9648 82.386 14.416 82.4734 16.8764C82.5333 18.2561 82.0132 18.532 80.7615 18.5412C79.5097 18.5504 79.1508 18.1871 79.206 16.973C79.2935 14.9863 79.229 12.995 79.206 10.9944C79.206 9.64237 78.9805 8.38688 77.5585 7.77523C75.8236 7.00262 74.0978 7.31534 72.4273 7.93159C71.7416 8.18913 71.9671 8.98473 71.9395 9.57339C71.9395 11.9464 71.9395 14.3148 71.9395 16.6833C71.9395 17.7502 72.0223 18.6102 70.4484 18.5228C69.1507 18.4676 68.4604 18.2791 68.6076 16.766C68.7411 15.3266 68.6353 13.8595 68.6353 12.4063L68.5616 12.4017Z" fill="#070707"/>
<path d="M114.701 13.2663C114.701 12.1948 114.724 11.1232 114.701 10.0471C114.701 9.06751 115.161 7.77523 113.32 7.87641C112.695 7.9086 112.672 6.95663 112.92 6.92904C115.911 6.63011 114.554 4.36746 114.65 2.94641C114.747 1.52536 114.986 1.07467 116.491 1.21264C117.803 1.3368 118.185 1.82429 118.157 3.05219C118.116 4.91933 117.485 7.32454 120.877 6.73129C121.309 6.64851 121.59 6.93364 121.498 7.42112C121.406 7.9086 120.964 7.98678 120.61 7.9224C118.056 7.46251 117.978 8.92955 118.106 10.8335C118.24 12.8156 118.079 14.8161 118.157 16.812C118.208 18.0629 117.835 18.5826 116.491 18.578C115.147 18.5734 114.554 18.1457 114.696 16.7384C114.757 15.5819 114.758 14.423 114.701 13.2663Z" fill="#070707"/>
<path d="M11.5065 13.096C11.4605 9.50581 11.4145 5.91409 11.3685 2.32083C11.3454 0.522674 12.8733 1.16652 13.7339 0.941171C15.0362 0.573261 14.7509 1.69079 14.7555 2.37142C14.7739 7.19718 14.7739 12.0229 14.7555 16.8487C14.7555 17.4281 14.9856 18.1686 14.2125 18.4399C13.4393 18.7112 12.9515 18.1456 12.5466 17.5477C11.778 16.4118 10.9957 15.2851 10.218 14.1583C9.91883 12.8937 11.3823 13.8226 11.5065 13.096Z" fill="#070707"/>
<path d="M144.536 12.6039C144.536 17.1705 148.282 19.0423 152.746 16.7428C153.146 16.5359 153.464 16.1634 153.86 15.9472C154.06 15.8277 154.298 15.7887 154.527 15.8382C154.755 15.8878 154.955 16.0221 155.088 16.214C155.489 16.7796 154.909 17.005 154.582 17.2671C152.138 19.2308 145.194 19.2906 142.746 17.2303C140.445 15.2942 141.296 12.5763 141.365 10.1251C141.42 8.28551 142.654 7.25996 144.343 6.78168C147.596 5.8619 150.822 5.74693 153.965 7.24157C154.38 7.43472 155.143 7.5175 154.729 8.25332C154.666 8.37352 154.576 8.47744 154.466 8.55686C154.356 8.63627 154.229 8.689 154.095 8.71086C153.961 8.73273 153.824 8.72313 153.695 8.68282C153.565 8.64252 153.447 8.57262 153.349 8.47866C152.654 8.01494 151.871 7.70163 151.048 7.55889C146.492 6.45976 144.527 7.99118 144.536 12.6039Z" fill="#070707"/>
<path d="M3.8855 6.46437C3.94072 10.0469 3.96833 13.6294 4.06037 17.2119C4.10179 18.6606 3.13998 18.5226 2.21958 18.518C1.29918 18.5134 0.608887 18.5042 0.608887 17.2211C0.664111 12.259 0.608887 7.28757 0.636499 2.33458C0.641101 1.8333 0.489235 1.19865 1.24856 1.06069C1.50896 0.994397 1.78379 1.01361 2.03242 1.11548C2.28105 1.21734 2.49027 1.39646 2.62916 1.62635C3.32866 2.71168 4.05577 3.77862 4.75067 4.85016C5.16485 5.76534 4.00055 5.82972 3.8855 6.46437Z" fill="#070707"/>
<path d="M158.089 17.7409C158.494 16.8856 158.982 16.9361 159.663 17.1891C160.497 17.5793 161.417 17.7532 162.337 17.695C163.538 17.534 164.665 17.2121 164.84 15.7864C165.015 14.3608 163.8 14.2688 162.921 13.9009C161.725 13.395 160.418 13.1053 159.327 12.443C157.284 11.1921 157.274 8.72715 159.18 7.2923C161.085 5.85745 164.891 5.94483 167.159 7.45326C166.437 8.10171 165.705 7.697 165.015 7.59123C164.113 7.38736 163.173 7.43993 162.3 7.74299C161.577 8.04652 161.002 8.5294 160.997 9.44458C160.993 10.3598 161.563 10.6587 162.222 10.9116C163.505 11.4083 164.831 11.7992 166.087 12.3419C166.709 12.5617 167.239 12.9833 167.592 13.5393C167.946 14.0953 168.103 14.7537 168.038 15.4093C168.038 16.0658 167.82 16.7037 167.419 17.2236C167.018 17.7435 166.456 18.1162 165.82 18.2836C163.183 19.0976 160.588 19.1298 158.089 17.7409Z" fill="#070707"/>
<path d="M132.732 6.86479C127.463 8.29504 127.463 8.29504 127.463 14.1172C127.419 14.9582 127.419 15.801 127.463 16.642C127.605 17.9757 127.223 18.5551 125.737 18.5689C124.251 18.5827 123.97 17.9205 123.997 16.6282C124.062 13.7171 123.997 10.806 123.997 7.89034C123.997 7.32928 123.841 6.35432 124.729 6.55207C127.081 7.07174 129.267 5.99101 131.549 6.09218C132.088 6.10598 132.709 6.07838 132.732 6.86479Z" fill="#070707"/>
<path d="M41.1061 12.291C41.1061 10.4515 40.4802 8.24859 41.2994 6.92871C41.9667 5.85718 44.484 7.08967 46.0947 6.32166C46.3925 6.231 46.7058 6.20282 47.0151 6.23888C47.9354 6.23888 49.4495 5.53525 49.5876 6.67118C49.7256 7.8071 48.1471 7.08967 47.3648 7.30582C45.3767 7.85309 44.3965 9.07179 44.3643 11.0769C44.3321 13.082 44.2907 15.0503 44.3643 17.0278C44.4195 18.3247 43.8213 18.5593 42.7122 18.5271C41.709 18.4949 40.922 18.4949 41.0187 17.1014C41.1245 15.5056 41.0187 13.8822 41.0187 12.291H41.1061Z" fill="#070707"/>
<path d="M138.549 12.7051C138.549 14.0848 138.48 15.4644 138.572 16.8165C138.655 18.0628 138.282 18.5641 136.943 18.5457C135.686 18.5457 135.185 18.2146 135.226 16.8763C135.314 13.91 135.226 10.9391 135.277 7.97286C135.277 7.34741 134.881 6.1701 136.248 6.51961C137.168 6.74956 138.742 6.1563 138.576 8.14302C138.452 9.65145 138.553 11.1829 138.549 12.7051Z" fill="#070707"/>
<path d="M35.257 6.46436C38.3726 6.77248 38.368 6.77248 38.3588 9.86752C38.3588 12.2267 38.2805 14.5906 38.391 16.9452C38.4646 18.426 37.6777 18.4582 36.5778 18.5088C35.3537 18.564 35.0269 18.1041 35.0499 16.936C35.1236 13.6616 35.0822 10.3872 35.096 7.1128C35.1234 6.89098 35.1775 6.67327 35.257 6.46436Z" fill="#070707"/>
<path d="M3.88565 6.4643C3.83043 5.72388 4.38727 5.34218 4.75082 4.8501C6.51338 7.22312 8.25753 9.60074 10.0431 11.9508C10.4159 12.4382 10.5033 13.3304 11.4881 13.0959L10.1996 14.1398C8.6487 12.0059 7.10704 9.84908 5.48714 7.74739C5.08217 7.22772 4.95791 6.21136 3.88565 6.4643Z" fill="#070707"/>
<path d="M36.6515 1.25412C37.733 1.22193 38.681 1.37829 38.7454 2.75796C38.8052 4.02725 38.138 4.52852 36.923 4.52852C35.7081 4.52852 34.7141 4.42735 34.7003 2.92352C34.6911 1.65882 35.4826 1.21733 36.6515 1.25412Z" fill="#070707"/>
<path d="M136.874 1.23096C138.024 1.23096 138.922 1.58507 138.931 2.88195C138.931 4.3398 137.895 4.56514 136.731 4.55135C135.567 4.53755 134.821 4.14664 134.867 2.81297C134.913 1.4793 135.861 1.27695 136.874 1.23096Z" fill="#070707"/>
<path d="M60.1353 6.20217C59.3043 6.08979 58.4644 6.05745 57.6272 6.1056C52.2429 6.5241 50.8347 8.1291 51.1016 13.4638C51.2443 16.4209 52.1877 17.5108 55.0087 18.2558C57.6733 18.9641 60.2826 18.5088 62.9471 18.2558C66.1271 17.9431 66.1409 18.0903 66.1409 14.7975V14.3376C66.1409 13.8777 66.1409 13.4178 66.1409 12.9579C66.1133 8.09231 64.9582 6.77703 60.1353 6.20217ZM62.2154 16.7796C60.6599 17.7867 58.7087 17.8189 56.8817 17.3039C55.4413 16.8992 54.5025 15.9472 54.4427 14.3514C54.4104 13.5834 54.392 12.82 54.3966 12.0519C54.3966 8.65797 55.584 7.3059 58.5384 7.28751C61.4929 7.26911 62.6802 8.61658 62.74 11.9784C62.74 12.3601 62.74 12.7418 62.74 13.3028C62.4685 14.3606 63.4165 16.0254 62.2154 16.7842V16.7796Z" fill="#070707"/>
<path d="M32.551 15.8368C32.516 15.3775 32.516 14.9163 32.551 14.4571H32.459C32.459 13.3901 32.5464 12.314 32.459 11.2379C32.1461 8.01866 31.0784 6.89194 27.8248 6.31248C26.0949 5.99865 24.3244 5.97844 22.5877 6.25269C18.8095 6.84135 17.7004 8.00487 17.5578 11.7713C17.3783 16.3702 18.1606 17.3866 22.0493 18.3707C24.7461 19.056 27.3738 18.0902 29.9923 18.3017C32.1461 18.4857 32.8732 17.9246 32.551 15.8368ZM29.1686 13.2016C29.141 17.1014 27.3002 18.4627 23.4667 17.3498C23.0312 17.2213 22.6172 17.0291 22.238 16.7795C20.6687 15.7356 20.1533 10.6998 21.4096 8.88325C22.5693 7.20466 25.6987 6.76317 27.6683 7.99567C28.9523 8.80507 29.1916 9.63747 29.1686 13.2016Z" fill="#070707"/>
<path d="M108.083 6.93367C104.816 5.74716 101.489 5.65059 98.2444 7.08084C95.9664 8.08799 95.2117 10.8887 95.9434 14.761C96.0283 15.4454 96.3018 16.0929 96.7332 16.6313C97.1647 17.1696 97.7372 17.5777 98.3871 17.81C101.392 19.0322 104.748 19.0765 107.784 17.9342C108.594 17.6353 110.177 17.3225 109.588 16.1728C108.999 15.0231 108.093 16.4166 107.343 16.7017C104.986 17.6215 102.63 18.1181 100.329 16.6281C99.879 16.3215 99.5288 15.8897 99.3218 15.3861C99.1149 14.8826 99.0603 14.3294 99.1648 13.7952C99.3673 12.6225 100.545 13.3353 101.286 13.2341C102.432 13.1658 103.581 13.1551 104.729 13.2019C106.256 13.2019 107.789 13.2019 109.331 13.2019C109.883 13.2019 110.495 13.3859 110.711 12.4569C111.236 10.2449 110.187 7.69709 108.083 6.93367ZM105.824 11.9097C104.914 11.8422 104.001 11.8345 103.09 11.8867C102.478 11.8867 101.871 11.8867 101.25 11.8867C98.9255 11.8867 98.4883 11.3072 99.4777 9.2837C100.329 7.51313 101.99 7.18661 103.716 7.34297C105.373 7.49474 106.882 8.07879 107.269 9.96893C107.508 11.0681 107.54 12.135 105.824 11.9097Z" fill="#070707"/>
</svg>
