<svg width="161" height="49" viewBox="0 0 161 49" fill="none" xmlns="http://www.w3.org/2000/svg">
<g clip-path="url(#clip0_3313_18410)">
<path fill-rule="evenodd" clip-rule="evenodd" d="M126.302 40.3129C123.064 42.3089 122.005 44.63 115.483 45.9549C89.8361 51.1643 78.9673 14.9797 101.751 4.42997C105.887 2.5146 110.92 1.8542 115.763 2.96116C122.415 4.48129 123.579 6.91036 126.418 8.68102L127.956 6.94267C124.138 1.05041 109.95 -2.71298 100.531 2.04595C96.2646 4.2013 92.9811 6.91487 90.6322 10.5885C88.1959 14.3985 86.5259 19.1334 86.5551 24.5987C86.614 35.7017 93.1924 43.302 100.787 46.8921C114.47 53.3598 127.513 43.4734 127.795 42.1071C127.824 41.9711 127.907 41.9411 128.03 41.777L126.302 40.3129Z" fill="white"/>
<path fill-rule="evenodd" clip-rule="evenodd" d="M2.48492 14.0167C5.42671 17.7044 19.8519 40.0641 21.6674 41.1413L24.2571 40.9468L24.2614 9.74719L21.3135 9.70312L21.4619 36.1864C20.0578 35.0635 17.5885 30.9996 16.4624 29.3949C14.7487 26.9526 13.4157 24.9613 11.8103 22.6592C10.5013 20.7819 3.74683 10.3243 2.39114 9.64917H-0.375L-0.368499 41.1088H2.48701L2.48503 14.0167H2.48492Z" fill="white"/>
<path fill-rule="evenodd" clip-rule="evenodd" d="M118.136 26.5557C119.205 21.5982 116.986 17.1467 112.77 16.1361C107.599 14.8963 103.8 17.7493 102.851 21.9984C100.123 34.2205 115.876 37.0281 118.136 26.5557H118.136Z" fill="white"/>
<path fill-rule="evenodd" clip-rule="evenodd" d="M36.1405 12.283L48.5496 12.1386L48.5915 9.91828C46.7652 9.35161 35.4743 9.46534 33.209 9.78356L33.2031 40.9676L49.2958 41.1087L49.0791 38.4855H36.1404L36.1472 26.5016L47.6531 26.5013L47.604 23.864H36.1405V12.2831V12.283Z" fill="white"/>
<path fill-rule="evenodd" clip-rule="evenodd" d="M144.954 23.0128C145.436 18.8019 147.613 15.6268 151.871 15.4872C156.59 15.3323 158.214 18.5124 158.438 22.9957L144.954 23.0128ZM159.942 32.1969C159.02 32.3328 157.238 33.6233 155.52 34.1062C149.874 35.6929 144.627 32.7059 144.884 25.4495L161.379 25.4461C161.3 8.38168 146.098 10.8145 142.694 20.1347C138.999 30.2483 146.659 42.3015 159.928 34.577L159.942 32.197L159.942 32.1969Z" fill="white"/>
<path fill-rule="evenodd" clip-rule="evenodd" d="M62.338 41.0152L65.2457 41.0286L65.2402 12.2726L74.2726 12.2759L74.3601 9.6438L53.2148 9.75808L53.3748 12.2552L62.3417 12.2726L62.338 41.0152Z" fill="white"/>
<path fill-rule="evenodd" clip-rule="evenodd" d="M130.83 36.1859C130.83 28.3137 128.994 12.9371 139.386 16.3004L139.158 13.3533C137.039 12.9941 135.524 13.0088 133.875 14.1166C132.506 15.0364 132.436 15.6601 131.731 16.6838L130.824 17.817L130.833 13.6378L128.008 13.706L128.008 36.3252L130.83 36.1858V36.1859Z" fill="white"/>
</g>
<defs>
<clipPath id="clip0_3313_18410">
<rect width="161" height="48.9527" fill="white"/>
</clipPath>
</defs>
</svg>
