<svg width="161" height="46" viewBox="0 0 161 46" fill="none" xmlns="http://www.w3.org/2000/svg">
<g clip-path="url(#clip0_3313_18382)">
<path fill-rule="evenodd" clip-rule="evenodd" d="M76.2076 33.3235V28.7703C76.2076 28.5012 76.806 28.2604 77.1445 28.0575C77.6121 27.7772 80.2163 26.2416 80.3757 26.2342C80.608 26.2235 82.1977 27.2238 82.5217 27.4048L84.1551 28.3448C84.3231 28.4434 84.5874 28.5504 84.5874 28.7703V33.3235C84.5874 33.5456 84.0152 33.7985 83.6359 34.0214L80.4306 35.831C80.1917 35.831 78.6216 34.8714 78.2494 34.647L76.666 33.7228C76.4941 33.6267 76.2077 33.5573 76.2077 33.3235H76.2076ZM85.44 -0.000123273H85.4457C85.7076 0.00229408 90.9231 2.97999 91.5852 3.36169C92.1886 3.70967 93.0994 4.03094 93.0994 4.94881V37.6786C93.0994 38.5663 92.016 39.0415 91.1198 39.5262L87.1076 41.8484C86.5525 42.1821 86.0397 42.4527 85.4735 42.7877L82.2554 44.6505C81.9659 44.8087 81.7388 44.9353 81.4575 45.1063C81.1036 45.3213 80.8199 45.4325 80.5651 45.465H80.2459C79.7564 45.4009 79.3153 45.0481 78.5627 44.6275C75.3839 42.8507 72.0754 40.8115 68.9037 39.0438C68.3921 38.7588 67.7617 38.4403 67.7617 37.6785V24.4149C67.7617 23.945 68.0756 23.553 68.3533 23.3568L71.4949 21.5496C72.2099 21.1292 72.877 20.7594 73.5808 20.3364C73.9366 20.1225 74.2881 19.9385 74.6277 19.7336L78.7682 17.3416C78.9488 17.233 79.083 17.1674 79.2715 17.0531C79.8289 16.7155 80.2745 16.4028 81.0466 16.738C81.5169 16.9423 83.8671 18.4761 84.1915 18.4761C84.8521 18.4761 84.6533 17.1601 84.6533 16.4965V1.84734C84.6533 0.658122 84.4323 0.00205235 85.4399 -0.000244141L85.44 -0.000123273Z" fill="white"/>
<path fill-rule="evenodd" clip-rule="evenodd" d="M33.8477 24.5471V37.1507C33.8477 38.4828 35.0906 38.7985 36.4997 39.6456L44.7383 44.4059C46.8739 45.6354 46.3401 45.6252 49.9097 43.5136L56.5233 39.7016C57.0983 39.3874 57.5768 39.0697 58.1522 38.7572C58.7605 38.4266 59.2512 38.1256 59.2512 37.2167V24.3493C59.2512 23.4614 58.7457 23.1825 58.1835 22.8435L51.6428 19.0907C50.9093 18.6825 47.1422 16.3647 46.6484 16.3647C46.2254 16.3647 45.9688 16.4854 45.6863 16.6563L34.8411 22.901C34.2072 23.2795 33.8478 23.5622 33.8478 24.547L33.8477 24.5471Z" fill="white"/>
<path fill-rule="evenodd" clip-rule="evenodd" d="M-0.00390625 23.9532V41.7037C-0.00390625 42.1423 0.333295 42.3636 0.787852 42.3636C1.02111 42.3636 1.69624 41.9202 1.92998 41.7901L5.27855 39.8598C5.64584 39.6384 5.98196 39.4627 6.36847 39.2341C6.76175 39.0014 7.10185 38.8014 7.49815 38.5822C8.62469 37.9591 8.44195 37.5751 8.44195 35.9628C8.44195 34.8822 8.37234 29.5278 8.47688 28.937C8.63569 28.0397 9.28641 27.779 10.2691 27.2321C10.9267 26.8661 12.0608 26.0647 12.6649 26.0647C13.2234 26.0647 14.5009 26.9061 15.0116 27.2153C17.2001 28.5407 16.8879 27.833 16.8879 32.3334C16.8879 33.5212 16.8879 34.7088 16.8879 35.8967C16.8879 38.3715 16.6787 37.9737 20.0094 39.8356C20.7732 40.2625 21.4832 40.6836 22.2291 41.1131C22.6942 41.3808 24.1477 42.3636 24.6739 42.3636C25.0868 42.3636 25.3338 41.9976 25.3338 41.5717V24.0852C25.3338 23.0375 23.7657 22.4762 22.5756 21.7624C22.038 21.4402 21.5177 21.1567 20.9823 20.8484L14.5405 17.1285C13.2037 16.3377 12.803 15.9277 11.5395 16.6908L9.15515 18.0678C8.87874 18.2338 8.64512 18.3607 8.35566 18.5219C8.06487 18.6836 7.86231 18.817 7.5639 18.9838L2.79559 21.7378C2.24603 22.0628 1.76706 22.3508 1.20651 22.656C0.961891 22.7893 0.633392 22.9733 0.440256 23.1436C0.263921 23.2992 -0.00390625 23.6566 -0.00390625 23.9533L-0.00390625 23.9532Z" fill="white"/>
<path fill-rule="evenodd" clip-rule="evenodd" d="M101.477 24.613V37.2165C101.477 38.4156 102.407 38.7101 103.476 39.3078L112.673 44.5615C113.489 45.0176 113.967 45.4337 114.851 44.9825C115.021 44.8955 115.016 44.8758 115.18 44.7842C116.917 43.8163 119.259 42.6005 120.823 41.6506C121.512 41.2316 121.932 41.2255 121.932 40.45C121.932 40.0866 120.899 39.6028 120.543 39.3977L118.191 38.0543C117.903 37.8931 117.665 37.7666 117.391 37.6006C116.855 37.2761 116.338 36.9959 115.799 36.6853L110.303 33.5366C110.02 33.3657 109.857 33.1608 109.857 32.7295V28.9683C109.857 28.3668 110.227 28.2464 110.621 28.0164L113.376 26.4174C114.29 25.9151 114.252 26.0534 116.006 27.1079C116.614 27.4736 117.183 27.7832 117.804 28.1466C118.175 28.3633 118.304 28.4686 118.306 29.0306L118.298 31.942C118.307 32.4283 118.559 32.7295 119.028 32.7295C119.333 32.7295 122.654 30.6783 123.208 30.3766C123.577 30.1755 123.898 29.9866 124.254 29.7728C127.267 27.9611 126.814 28.9077 126.814 24.3492C126.814 23.3364 125.817 22.9795 124.939 22.4634L117.63 18.2254C117.078 17.8949 116.558 17.606 116.006 17.2754C115.728 17.1086 115.491 16.9805 115.215 16.8134C114.069 16.1205 113.735 16.4531 112.484 17.2106C111.918 17.553 111.388 17.8319 110.809 18.1745L102.487 22.9839C101.834 23.3474 101.477 23.6119 101.477 24.6133L101.477 24.613Z" fill="white"/>
<path fill-rule="evenodd" clip-rule="evenodd" d="M135.129 24.6792V36.6889C135.129 38.5432 136.588 38.9821 138.227 39.9256C139.788 40.8241 140.076 41.044 141.86 41.044C143.592 41.044 144.697 39.6299 144.697 37.8765V25.5369C144.697 25.1173 143.854 25.2729 142.981 25.2729C142.665 25.2729 142.711 25.6114 142.715 25.9307L142.718 36.4908C142.718 37.1153 142.764 37.8146 142.577 38.2636C142.143 39.3078 140.91 39.1886 140.034 38.7128L137.532 37.255C137.36 37.1564 137.109 37.0733 137.109 36.8866V24.481C137.109 24.2995 137.216 24.2716 137.347 24.1914L141.113 22.019C141.601 21.7478 142.024 21.5121 142.499 21.2267L146.598 18.8594C148.518 17.705 147.742 17.9229 150.108 19.2021L158.734 24.1684C158.873 24.2494 159.015 24.2861 159.015 24.481V36.8866C159.015 37.1037 158.714 37.2179 158.442 37.369L155.716 38.9323C154.546 39.5651 148.3 43.2874 148.062 43.2874C147.908 43.2874 145.956 42.0968 145.666 41.9224C144.7 41.3429 145.301 41.5644 143.774 42.1663C143.585 42.2407 143.239 42.385 143.047 42.4296C143.078 42.8005 143.494 42.908 144.075 43.2492C144.872 43.7177 147.02 45.1067 147.668 45.2008C148.697 45.3504 149.371 44.8595 150.318 44.29C152.574 42.9335 155.135 41.5828 157.353 40.2401C159.597 38.8819 160.995 38.7034 160.995 36.4248V24.8111C160.995 22.9823 159.97 22.6015 158.574 21.8213L155.143 19.8411C154.852 19.6662 154.607 19.5202 154.308 19.3568L149.998 16.8699C149.127 16.3946 148.317 15.7098 147.004 16.3629L136.799 22.2579C135.93 22.7435 135.129 23.2022 135.129 24.6791L135.129 24.6792Z" fill="white"/>
<path fill-rule="evenodd" clip-rule="evenodd" d="M154.529 33.1253C154.529 33.8277 154.24 34.2122 153.76 34.4679C152.743 35.0099 149.427 35.0399 148.447 34.2586C148.154 34.0252 147.986 33.7908 147.855 33.399C147.522 32.4037 148.079 32.4655 146.149 32.4655C145.75 32.4655 145.688 32.6762 145.688 32.9273C145.688 37.413 152.721 37.3494 155.128 35.9015C156.086 35.3246 156.707 34.3176 156.707 33.1254C156.707 30.9003 155.112 30.3052 153.227 29.9408C152.336 29.7687 151.288 29.6588 150.362 29.5062C149.907 29.4311 149.411 29.3469 149 29.2192C147.603 28.7859 147.936 26.8568 150.438 26.8568C152.055 26.8568 153.359 26.7259 154.047 28.1973C154.493 29.1524 153.806 29.0344 155.915 29.0344C156.76 29.0344 155.907 26.6095 154.887 25.905C153.429 24.898 152.156 24.9432 150.372 24.9432C148.067 24.9432 145.911 26.3329 146.027 28.4308C146.117 30.0614 146.958 30.8561 148.472 31.265C149.186 31.4577 149.931 31.5766 150.714 31.6622C151.535 31.752 152.332 31.8192 153.026 31.9893C153.674 32.1477 154.529 32.3647 154.529 33.1257L154.529 33.1253Z" fill="white"/>
<path fill-rule="evenodd" clip-rule="evenodd" d="M111.708 29.5621C111.708 32.8141 111.371 31.9786 112.875 32.8822C113.184 33.0678 113.911 33.5163 114.215 33.5872L115.426 32.884C115.626 32.7746 116.591 32.3393 116.591 32.0695C116.591 28.7091 116.997 29.6827 114.821 28.3621C113.877 27.7892 114.208 27.9828 112.232 29.0966C112.057 29.1956 111.708 29.3105 111.708 29.562V29.5621Z" fill="white"/>
</g>
<defs>
<clipPath id="clip0_3313_18382">
<rect width="161" height="45.4651" fill="white"/>
</clipPath>
</defs>
</svg>
