<svg width="161" height="46" viewBox="0 0 161 46" fill="none" xmlns="http://www.w3.org/2000/svg">
<g clip-path="url(#clip0_3346_41724)">
<g clip-path="url(#clip1_3346_41724)">
<path fill-rule="evenodd" clip-rule="evenodd" d="M16.4856 28.4963C15.7031 28.4963 15.3679 28.3901 14.8121 28.3608C14.2344 28.3299 13.8073 28.4963 13.0233 28.4963C12.4064 28.4963 12.2852 28.4007 11.8943 28.3773C10.8587 28.3163 11.7323 28.7206 9.34477 28.2975C8.25567 28.104 7.16582 27.909 6.37047 27.1178C6.36294 27.1102 6.20477 26.9469 6.16636 26.907C4.77901 25.4765 4.79633 25.024 4.33237 23.4799C3.99495 22.3558 4.15989 20.8516 4.15989 19.6379L4.73306 17.9959C4.73532 17.9906 4.87993 17.7369 4.8837 17.7309L7.31947 15.1824C8.39878 14.6042 9.28376 14.684 10.4888 14.6215L26.3944 14.7149C28.2902 15.2012 29.6233 16.5956 30.3524 18.3716L30.7177 19.391C30.9903 20.7289 30.9557 22.9227 30.4315 24.305C29.7566 26.0856 28.5764 27.4566 26.7567 28.1063L26.1881 28.2298C25.3935 28.3841 25.6526 28.6228 24.5582 28.4631C23.198 28.2644 18.4439 28.497 16.4849 28.497L16.4856 28.4963ZM0.421875 21.4366C0.421875 22.0464 0.501712 23.111 0.593599 23.7569L1.50419 26.584C2.72735 29.6339 6.15506 31.9565 9.97744 31.9565H24.9333C26.5857 31.9565 27.8729 31.6538 28.9688 31.1456C29.914 30.7067 31.0461 29.859 31.736 29.067C32.8123 27.83 33.0804 27.4882 33.6355 26.121C33.7522 25.8334 33.6551 26.1059 33.7824 25.7136L34.1604 24.5693C34.1717 24.5361 34.1876 24.5023 34.1989 24.4691C34.6109 23.2563 34.6274 21.746 34.6274 20.4676L33.866 17.4915C33.3304 15.8615 32.8356 14.8557 31.5115 13.6157C29.5533 11.7817 28.1614 11.2343 25.4289 10.9738C25.0719 10.94 21.8068 11.1839 19.6482 10.9332C18.9048 10.8466 18.5486 11.0386 17.876 11.0589L9.97819 11.0544C7.39027 11.0529 5.99237 11.5528 4.08156 13.0503C3.72154 13.3326 3.3909 13.6669 3.08737 13.9944C1.29707 15.927 0.423381 18.7751 0.423381 21.4366H0.421875Z" fill="white"/>
<path fill-rule="evenodd" clip-rule="evenodd" d="M135.426 21.1605C135.426 24.0734 136.022 26.6949 138.023 28.946C138.424 29.397 138.827 29.8427 139.308 30.1529L142.167 31.5871C143.297 31.8988 143.602 31.9582 144.981 31.9582C146.635 31.9582 158.279 32.0847 158.89 31.8807C159.374 31.7188 159.075 31.886 159.583 31.1896C159.741 30.9742 159.747 30.9983 159.891 30.8048L161.045 29.016C161.345 28.2518 160.427 28.4965 158.967 28.4973L153.15 28.4995C152.073 28.5056 151.521 28.355 150.382 28.3587C148.428 28.3655 146.772 28.4973 144.704 28.4973L142.822 27.8874C141.093 27.0359 139.607 25.357 139.442 23.3755C140.272 23.3755 141.119 23.395 141.945 23.383C142.13 23.3807 142.293 23.3807 142.476 23.3491C143.083 23.2445 142.576 23.0939 143.4 23.2768C144.687 23.5629 144.905 23.1624 146.124 23.3341C147.284 23.4974 156.589 23.3747 157.238 23.0299C157.74 22.7626 157.956 22.1227 158.255 21.6928C159.82 19.4402 159.44 19.6261 157.584 19.6374C154.822 19.6532 147.985 19.7556 145.812 19.6389C145.079 19.599 144.546 19.4266 143.605 19.5072C141.465 19.6886 142.13 19.6397 140.242 19.5305C139.485 19.4869 139.034 19.9559 139.854 17.9736C140.006 17.6077 139.949 17.6958 140.185 17.3351C140.322 17.1258 140.44 16.9595 140.587 16.7675L142.091 15.3649C143.492 14.5646 144.428 14.6549 146.228 14.6549L157.861 14.6557C159.785 14.6654 159.568 14.7874 161.069 12.0469C161.421 11.404 161.89 11.0562 161.184 11.0562H143.597C141.563 11.0562 138.46 13.1454 137.267 14.9719L136.474 16.394C136.337 16.7155 136.215 16.9835 136.097 17.2629C135.684 18.2386 135.427 19.8257 135.427 21.1605H135.426Z" fill="white"/>
<path fill-rule="evenodd" clip-rule="evenodd" d="M47.5169 19.9145C47.0476 20.2179 44.2669 20.0598 43.3706 20.0936C43.6501 20.9557 45.6211 22.1957 46.055 23.0984C47.1975 24.1373 48.6105 25.75 49.5858 26.5714C49.6077 26.5902 49.6393 26.6166 49.6612 26.6346L52.5097 29.3239C53.2659 30.2763 53.7419 30.4939 54.6826 31.4425C55.3966 32.163 55.7672 31.9582 57.0762 31.9567C58.0455 31.9552 59.0149 31.9567 59.9842 31.9567C59.924 31.2339 58.8514 30.4796 58.1495 29.7764C57.4234 29.0498 56.7968 28.4287 56.0707 27.7014L54.6638 26.201C54.0868 25.6484 54.0657 25.8268 53.702 25.5015L52.8878 24.6546C52.5104 24.2774 52.1933 23.98 51.8145 23.651C55.1209 23.651 53.3992 23.8204 55.667 23.3498L58.2406 21.7695C60.6056 19.3912 60.8941 16.2412 58.9629 13.4601C58.4914 12.781 57.9167 12.2969 57.2163 11.8835C55.7627 11.026 54.7233 10.8506 52.9179 10.9116C51.4018 10.9628 49.0134 11.2346 47.4415 10.9966C45.6904 10.7316 43.4414 11.0644 41.9855 11.0584L37.8152 10.9183C37.126 10.8694 37.0545 11.0418 36.4429 11.0554V29.7425C36.4421 31.9544 36.1974 31.9657 37.2578 31.9733C41.1043 32.0011 40.1643 32.0779 40.4272 31.0969C40.681 30.1483 40.7375 26.2921 40.5229 25.369C40.309 24.452 40.614 25.2335 40.5997 23.5155C40.5937 22.731 40.5952 21.9442 40.5974 21.1597C40.5989 20.8315 40.6253 20.3519 40.5967 20.0417C40.5379 19.3995 40.3888 19.6419 40.4656 19.215C40.5251 18.8845 40.5967 18.8717 40.6042 18.2604C40.6095 17.8486 40.5974 17.4209 40.5974 17.0069C40.5974 16.2224 40.5974 15.4379 40.5974 14.6534L53.8985 14.6458C55.481 14.6511 56.7501 15.8685 56.4767 17.643C56.3095 18.7264 55.6421 19.465 54.6766 19.7353C53.9445 19.9401 53.8737 19.8008 53.1988 19.7729C52.4555 19.7428 52.2348 19.916 51.4033 19.9175C50.1085 19.919 48.8116 19.913 47.5169 19.913V19.9145Z" fill="white"/>
<path fill-rule="evenodd" clip-rule="evenodd" d="M88.348 19.7764C88.348 21.3732 88.2034 22.5823 88.5326 23.8833C88.815 25.0021 88.7442 25.1948 89.3618 26.5154C89.5049 26.8218 89.6028 26.9648 89.7603 27.2246C89.9357 27.5144 90.0186 27.729 90.2084 28.0219L91.2704 29.3138C91.7283 29.7497 91.9339 29.9711 92.4943 30.3053C92.7248 30.4431 92.9138 30.5854 93.1736 30.7337C94.6228 31.5574 95.8821 31.9579 97.9036 31.9579H111.474C112.298 31.9579 112.399 31.4173 112.695 30.9633L113.669 29.5841C113.968 29.0834 114.067 28.9532 114.105 28.4969C113.36 28.4969 112.937 28.4578 112.4 28.3908C111.7 28.3034 111.563 28.4969 110.781 28.4969C108.548 28.4969 106.643 28.3584 104.55 28.3584L98.0414 28.4969L94.7207 27.3872L93.3371 26.0019C92.7398 25.1572 92.3098 24.0045 92.2141 22.9716C92.135 22.1186 91.9482 22.5522 91.9482 21.1609L92.2322 19.5061C92.303 18.8315 92.2533 19.3051 92.4709 18.7758C92.9146 17.6977 93.1157 16.6707 94.5301 15.7123L95.1101 15.3231C95.4151 15.1243 95.3744 15.1499 95.7691 15.0129C97.524 14.4061 99.4228 14.6545 101.642 14.6545C103.999 14.6545 109.7 14.7743 111.762 14.6651C112.502 14.6259 112.656 14.3007 112.975 13.8015C113.417 13.1096 114.367 11.8004 114.383 11.0558C112.496 11.0558 111.037 10.9165 109.259 10.9173C107.382 10.918 104.385 11.1522 102.612 11.0566C101.996 11.0234 101.947 10.921 101.233 10.912C100.242 10.8992 96.1216 11.0852 95.4882 11.2711C94.4789 11.5678 93.0998 12.1384 92.2668 12.7581C91.6809 13.194 90.4321 14.6448 90.0367 15.235C88.992 16.7942 88.9438 17.6517 88.577 19.1748C88.4384 19.7508 88.348 19.2539 88.348 19.7771V19.7764Z" fill="white"/>
<path fill-rule="evenodd" clip-rule="evenodd" d="M61.7648 31.9554C66.2304 31.9554 65.2399 32.3559 66.6574 30.2019L68.4922 27.3297C68.8582 26.7281 69.0698 26.0039 69.9352 26.0039H75.0591C75.7302 26.0039 76.4517 26.1876 76.8494 26.1409C77.5905 26.0543 78.6555 24.0193 79.0118 23.3101C79.2008 22.9336 79.2445 23.0052 79.3522 22.5429C76.6378 22.5429 74.3813 22.4044 71.7361 22.4044C71.7896 21.7614 73.0308 20.2127 73.4187 19.5178C73.8292 18.7815 75.3235 16.2782 75.8906 15.898C75.9991 16.3625 78.1215 19.5788 78.7045 20.5606L82.3416 26.3374C82.6436 26.7944 82.8296 27.0699 83.0978 27.5194L84.2298 29.2947C84.6079 29.9429 85.6895 31.8063 86.3025 31.929L90.0157 32.0931C90.0157 31.0933 89.9758 31.5563 89.8982 31.3802L86.8396 26.2704C86.5466 25.8172 86.2935 25.4641 86.0005 25.0327L78.4499 13.2005C77.214 10.9486 76.7726 11.0525 75.0591 11.0525C74.2841 11.0525 73.4323 12.4717 73.4323 12.4717C73.4164 12.4965 73.3953 12.5319 73.3795 12.5575L71.2488 15.965C71.1908 16.0652 71.1441 16.1419 71.0944 16.2263L70.992 16.4002C69.4035 19.0985 66.4488 23.5322 64.6871 26.2937L63.6071 27.9824C63.4188 28.2723 63.3939 28.3784 63.2041 28.6871C63.0151 28.9958 62.9684 29.047 62.7778 29.3685L61.709 31.0783C61.5351 31.3094 61.5479 31.2002 61.4507 31.3967C61.3031 31.6971 61.273 31.9539 61.764 31.9539L61.7648 31.9554Z" fill="white"/>
<path fill-rule="evenodd" clip-rule="evenodd" d="M117.039 11.7473V31.542C117.039 32.4537 118.355 31.9914 118.977 31.9568C122.486 31.7618 128.835 32.1119 132.695 31.9658C133.753 31.9259 133.368 31.7287 134.171 30.6716C134.397 30.3742 134.546 30.1702 134.736 29.8525C135.172 29.1207 135.18 29.0785 135.18 28.4966L128.67 28.4838C128.256 28.5071 127.84 28.4973 127.425 28.4966H122.579C121.817 28.4988 120.64 28.7262 120.64 27.9425V11.0547H117.178C117.106 11.3649 117.04 11.3732 117.04 11.7466L117.039 11.7473Z" fill="white"/>
<path fill-rule="evenodd" clip-rule="evenodd" d="M46.0262 23.0993C45.5924 22.1966 43.6213 20.9566 43.3419 20.0946C44.2389 20.0607 47.0189 20.2188 47.4881 19.9154C46.5098 19.6842 43.7682 19.6067 42.9231 20.0539C43.2041 20.8301 42.6535 19.6752 43.0135 20.2406L43.122 20.4093C43.1378 20.4318 43.1664 20.4635 43.1837 20.486L45.1729 22.3735C45.5487 22.7198 45.5668 22.8561 46.027 23.0993H46.0262Z" fill="white"/>
</g>
</g>
<defs>
<clipPath id="clip0_3346_41724">
<rect width="161" height="45.21" fill="white"/>
</clipPath>
<clipPath id="clip1_3346_41724">
<rect width="161.14" height="21.21" fill="white" transform="translate(0.429688 10.895)"/>
</clipPath>
</defs>
</svg>
