<svg width="161" height="46" viewBox="0 0 161 46" fill="none" xmlns="http://www.w3.org/2000/svg">
<g clip-path="url(#clip0_3346_41667)">
<g clip-path="url(#clip1_3346_41667)">
<path fill-rule="evenodd" clip-rule="evenodd" d="M72.9988 36.4083C71.6601 36.4083 71.0349 36.1318 70.4009 34.871C69.4092 32.8989 69.7236 29.2626 70.2522 27.1403C70.2921 26.9805 70.3541 26.7469 70.3879 26.5868C70.4319 26.3786 70.4916 26.2035 70.5071 26.0168L75.707 26.8605C77.3092 26.9946 76.4917 26.6977 78.4518 29.1521L80.3005 31.3326C80.5091 31.5401 80.6533 31.6403 80.7916 31.9017C80.3034 32.6309 78.1566 34.205 77.4309 34.6908C76.4998 35.3141 74.4728 36.4083 72.9988 36.4083ZM90.2279 36.4613C89.5394 36.4613 88.4017 36.1488 87.7714 35.843C87.5854 35.7528 87.4267 35.6966 87.258 35.6142C87.0622 35.5185 86.9503 35.4333 86.7469 35.3301C86.5454 35.2278 86.4329 35.1561 86.2352 35.0465C85.6908 34.7448 83.9763 33.4759 83.5619 33.0546C83.4012 32.8913 83.2948 32.8416 83.1364 32.6848C82.8724 32.4236 82.5674 32.1531 82.329 31.9018C82.4546 31.7141 82.6811 31.5233 82.8513 31.3107L84.3659 29.4854C84.5369 29.2661 84.7161 29.0884 84.8636 28.8697L85.7973 27.5768C85.9675 27.3415 86.0986 27.1471 86.252 26.9181C87.2054 26.9181 90.0151 26.4785 91.0187 26.2775C91.2575 26.2297 91.5292 26.1819 91.7659 26.1235C91.9975 26.0663 92.3003 25.9855 92.5605 25.9638C92.6862 26.2258 92.7786 26.7509 92.8562 27.0996C93.4366 29.7084 93.7444 33.5061 92.0838 35.6666C92.0005 35.7751 91.9429 35.8494 91.8277 35.9405C91.4728 36.2217 90.8489 36.4613 90.2279 36.4613L90.2279 36.4613ZM78.1941 27.0241C80.345 27.2031 82.1387 27.1046 84.2396 27.0793C84.505 27.0761 84.6077 27.0241 84.8736 27.0241C84.7613 27.2364 84.6341 27.3678 84.5029 27.5546C83.7287 28.657 82.9254 29.6152 82.0521 30.6175C81.8798 30.8154 81.809 30.9577 81.5869 31.1065C81.2621 30.889 80.7685 30.2532 80.4854 29.9283C80.3896 29.8183 80.3589 29.7786 80.2694 29.6671L79.8238 29.1585C79.6303 28.9414 78.3506 27.32 78.1941 27.0241H78.1941ZM72.6277 20.0258C72.815 20.1631 72.9076 20.5046 73.0348 20.732L74.2605 22.9523C74.4071 23.1967 74.5208 23.4033 74.672 23.6542C74.8305 23.9173 74.97 24.1304 75.1163 24.3763L76.0205 25.8047C74.9352 25.8047 71.8014 25.2369 70.8252 25.0094C70.904 24.0623 72.5351 20.4233 72.6277 20.0258V20.0258ZM87.0472 25.8047C87.0983 25.5855 87.7666 24.5963 87.8983 24.3762L89.1513 22.2362C89.3288 21.9188 90.2851 20.1825 90.334 19.9728C90.5067 20.0994 90.7828 20.8681 90.8868 21.1165C90.9766 21.3309 91.0562 21.4966 91.1446 21.7069C91.1934 21.823 91.2076 21.8941 91.2572 22.0184C91.3159 22.1652 91.3465 22.202 91.4009 22.3519L92.2954 24.9034C92.1363 24.9798 91.8729 25.0108 91.7012 25.0514C90.6031 25.311 88.1949 25.7092 87.0471 25.8047H87.0472ZM69.765 24.7444C69.0398 24.5754 67.7682 24.1011 67.1144 23.8431C66.2388 23.4975 65.5054 23.1196 64.7309 22.6746C64.0394 22.2773 63.2881 21.6865 62.7276 21.1259C61.0563 19.4545 60.9658 18.0902 62.701 16.3544C63.0078 16.0475 63.2799 15.8038 63.6472 15.5511C63.851 15.4108 63.9682 15.3099 64.1815 15.184C65.8621 14.1919 66.5537 13.8827 68.4066 13.2595C68.6939 13.1628 69.5456 12.8745 69.8181 12.8684C70.0865 14.0208 70.9825 16.191 71.4235 17.3069C72.2299 19.3471 72.2365 18.1429 71.4235 20.2C70.903 21.5168 70.4477 22.548 70.0237 23.9428L69.765 24.7444V24.7444ZM93.1967 12.8684C93.7768 12.9167 96.5076 13.9643 97.0668 14.2467C98.5898 15.0158 99.0175 15.2551 100.3 16.368C100.564 16.5968 100.898 17.0221 101.096 17.321C102.043 18.7457 101.448 19.7574 100.536 20.845C100.492 20.898 100.533 20.85 100.489 20.9033L99.9165 21.4444C98.6987 22.5844 96.287 23.6673 94.6957 24.2288C94.4033 24.332 93.5746 24.6157 93.3027 24.6383L92.8063 23.1201C92.7169 22.8575 92.6297 22.648 92.5299 22.3892L91.3259 19.5109C90.8365 18.366 90.8591 19.0947 91.5609 17.3825C91.9528 16.4265 92.3814 15.453 92.7129 14.4522C92.818 14.1348 93.1746 13.1348 93.1967 12.8684L93.1967 12.8684ZM82.2231 26.0698L79.9417 26.0716C79.5946 26.0712 79.4313 26.014 79.0426 26.0165L77.5225 25.9462C77.2269 25.872 76.8208 25.1148 76.6012 24.7469L75.1819 22.455C74.7896 21.8096 73.2639 18.9334 73.2639 18.7534C73.2639 18.588 73.9939 17.2412 74.1474 16.9332C74.2642 16.6987 74.3487 16.5676 74.4657 16.3502L77.1777 11.852C77.4949 11.4036 77.6336 11.5848 78.1912 11.5402C80.3125 11.3704 83.0923 11.4036 85.2429 11.545C85.686 11.5741 85.6475 11.6002 85.8512 11.8909C86.4204 12.7035 86.7803 13.3623 87.2809 14.1192L87.9487 15.254C88.0527 15.4558 88.155 15.6366 88.2692 15.8347L89.5564 18.2587C89.8833 18.9111 89.9074 18.4933 89.1147 20.0789C88.7451 20.8183 86.0801 25.5474 85.7074 25.8434C85.5515 25.9673 84.2389 26.0192 84.0261 26.0175C83.4167 26.0126 82.887 26.0699 82.2231 26.0699V26.0698ZM87.0472 11.7021L89.691 12.08C90.0625 12.1431 91.955 12.4909 92.1895 12.6034C92.0011 13.4119 91.006 16.0892 90.6343 16.88C90.546 17.068 90.434 17.2792 90.387 17.481L88.7538 14.5548C88.3315 13.8522 87.7134 12.7622 87.2484 12.084C87.2249 12.0497 87.1592 11.9577 87.1407 11.9266C87.0672 11.8029 87.0908 11.7997 87.0472 11.7021ZM72.6277 17.481C72.5743 17.2518 72.4938 17.1126 72.4081 16.9054C71.987 15.8862 71.0661 13.584 70.8253 12.5503L75.9675 11.7021C75.9156 11.9252 75.6804 12.2036 75.5536 12.4015L72.6277 17.481ZM78.1941 10.4827C78.2337 10.3343 78.8104 9.59508 78.9432 9.42928C79.2261 9.07602 79.4793 8.75658 79.7678 8.39829L81.0433 6.917C81.2023 6.75985 81.4198 6.62888 81.4809 6.40034C81.6556 6.51737 81.7973 6.66767 81.9356 6.84683C82.1082 7.07038 82.2224 7.14646 82.395 7.34178C82.5395 7.50529 82.6488 7.68191 82.7938 7.8442C83.1633 8.25769 84.7353 10.1629 84.8207 10.4827C84.4588 10.3983 84.1623 10.4682 83.7749 10.4152C83.1997 10.3363 78.4647 10.3528 78.1941 10.4827L78.1941 10.4827ZM82.2761 5.65807C82.4729 5.36407 82.8618 5.09985 83.059 4.90355C83.3375 4.62629 83.5987 4.41295 83.903 4.1572C84.1865 3.91896 84.452 3.67993 84.7569 3.47369C86.2828 2.44172 88.0912 1.04553 90.387 1.04553C91.4863 1.04553 92.0835 1.71727 92.4856 2.44593C93.3786 4.06377 93.3014 6.8421 93.0747 8.55807L92.6776 10.8119C92.622 11.0464 92.5266 11.3138 92.5075 11.543C92.0722 11.543 91.4585 11.3375 90.9926 11.2554C89.7472 11.0361 87.38 10.5887 86.199 10.5887C86.1207 10.2958 84.6322 8.41343 84.3435 8.04385C84.1777 7.83144 84.0201 7.65457 83.8439 7.43017L82.276 5.65804L82.2761 5.65807ZM70.5603 11.543C70.4053 11.22 70.1013 9.64044 70.0296 9.21082C69.7162 7.33505 69.5889 5.21917 70.1131 3.35528C70.2041 3.03148 70.253 2.9434 70.3704 2.65828C70.7319 1.78 71.4917 1.09856 72.5217 1.09856C74.3637 1.09856 75.9265 1.90902 77.3453 2.8487C77.5059 2.955 77.6221 3.01943 77.7928 3.14341L79.1182 4.15066C79.2645 4.26557 79.4008 4.36236 79.5322 4.47882C79.84 4.75172 80.583 5.49462 80.7917 5.60508L77.1655 10.0372C76.6343 10.8092 76.8074 10.5271 75.785 10.6713C74.4594 10.8583 72.7157 11.0355 71.4403 11.3628C71.1905 11.4269 70.8027 11.5229 70.5603 11.5431V11.543ZM81.5339 4.86283C81.2681 4.68478 80.8941 4.28455 80.6731 4.08013C80.5651 3.98025 80.5424 3.98206 80.4363 3.89279L79.9847 3.49619C79.8808 3.40559 79.8727 3.39456 79.7545 3.3022C77.7111 1.70547 75.3702 0.0382285 72.5217 0.0382285C69.5376 0.0382285 68.7048 3.4851 68.7048 5.87016C68.7048 7.6812 68.8527 8.86178 69.2135 10.5572C69.2816 10.8774 69.4937 11.5804 69.5 11.8611C69.2115 11.8676 68.2745 12.1903 67.9694 12.292C67.3715 12.4913 66.396 12.825 65.8241 13.1156L64.4806 13.7867C60.986 15.7271 58.7722 18.4076 61.8605 21.7812C61.8678 21.7892 61.8786 21.8006 61.886 21.8087C61.8934 21.8166 61.9041 21.8281 61.9117 21.8359L63.2362 22.9501C63.4359 23.0974 63.6284 23.2147 63.8381 23.3555C65.1652 24.2458 66.7641 24.8864 68.3089 25.4055C68.469 25.4593 68.538 25.4944 68.7043 25.5402C68.918 25.5991 69.2854 25.7338 69.5 25.7517C69.4104 26.1362 69.2999 26.4932 69.2134 26.8966C68.6105 29.7098 68.0281 35.1089 70.7077 36.897C72.8851 38.35 76.0187 36.8 77.9067 35.6437C78.5749 35.2344 79.6174 34.4329 80.2457 33.9006L81.5869 32.697C81.7502 32.8064 81.819 32.9231 81.9737 33.0525L83.5606 34.4345C84.2605 35.0057 84.9862 35.5246 85.7649 35.9941C86.1105 36.2025 86.3882 36.3438 86.7644 36.532C87.4999 36.8998 88.1076 37.1383 88.9654 37.3528C90.2074 37.6634 91.491 37.5328 92.4859 36.7578C94.7722 34.977 94.5656 29.7343 93.8964 26.9076C93.8448 26.6893 93.8152 26.5264 93.7589 26.3028C93.7046 26.0869 93.6258 25.8693 93.6208 25.6457C94.0992 25.6059 96.157 24.8055 96.5822 24.631C97.6635 24.1875 98.8204 23.5595 99.7706 22.8892C101.899 21.3878 103.7 19.1582 101.838 16.5268L100.914 15.4887C100.285 15.0026 100.042 14.7124 99.1847 14.1963C97.5232 13.1965 96.1124 12.639 94.3034 12.0798C94.0931 12.0148 93.7341 11.8794 93.5147 11.8612L93.9997 9.5362C94.4018 7.12949 94.4962 3.89236 93.3201 1.77043C93.1761 1.51064 93.0105 1.31068 92.8336 1.09064C90.9818 -1.21286 86.9887 0.672813 85.2765 1.81958C84.3737 2.42412 82.7596 3.65333 81.9707 4.45152C81.8207 4.60326 81.7033 4.74937 81.5338 4.86289L81.5339 4.86283Z" fill="white"/>
<path fill-rule="evenodd" clip-rule="evenodd" d="M77.6641 18.5415V18.8595C77.6641 20.8663 79.4375 22.5708 81.534 22.5708C85.1533 22.5708 86.8509 17.7954 83.6935 15.5335C82.584 14.7388 81.2819 14.6729 80.0034 15.1551C79.6152 15.3015 79.1504 15.6207 78.8428 15.903C78.1706 16.5203 77.6641 17.561 77.6641 18.5415L77.6641 18.5415Z" fill="white"/>
<path fill-rule="evenodd" clip-rule="evenodd" d="M81.2695 40.8087V44.9971C81.2695 45.2033 81.4055 45.1562 81.7467 45.1562C82.0019 45.1562 81.9062 44.6565 81.9057 44.4139V41.551C82.0842 41.6817 83.4649 44.435 83.6381 44.7491C83.9237 45.267 83.7376 45.1562 84.6624 45.1562V40.6497H84.0793V44.2549C83.9415 44.1539 83.8922 44.0066 83.8024 43.8425L82.3292 41.0744C82.0762 40.5817 82.2731 40.6497 81.4286 40.6497C81.3064 40.6497 81.2695 40.6866 81.2695 40.8087V40.8087Z" fill="white"/>
<path fill-rule="evenodd" clip-rule="evenodd" d="M63.668 42.7173H62.7667V41.1798C63.4201 41.1798 64.4101 41.0344 64.4101 41.9751C64.4101 42.3503 64.1682 42.7173 63.668 42.7173V42.7173ZM62.1836 45.1561H62.7667V43.2475C63.7021 43.2475 63.9848 43.1633 64.4109 43.989C64.5143 44.1892 64.602 44.3734 64.7105 44.5906C65.0147 45.1993 64.8632 45.1561 65.4704 45.1561C65.7769 45.1561 65.3522 44.5501 65.1169 44.0781C64.9567 43.7565 64.694 43.1785 64.3571 43.0885C64.5337 42.8474 65.0463 42.8279 65.0463 41.9751C65.0463 41.4823 64.907 41.1437 64.6013 40.9356C64.0467 40.5582 62.9312 40.6496 62.1836 40.6496V45.1562L62.1836 45.1561Z" fill="white"/>
<path fill-rule="evenodd" clip-rule="evenodd" d="M67.5402 42.1871C68.0733 42.1871 68.3884 42.6073 68.3884 43.1414H66.4799C66.5304 42.5344 66.8834 42.1871 67.5402 42.1871ZM65.8438 43.4595C65.8438 44.4338 66.4673 45.2091 67.4341 45.2091C67.9718 45.2091 68.407 45.1867 68.8654 44.944V44.4669C68.7893 44.4732 66.4799 45.43 66.4799 43.6186H68.8124C69.0131 43.6186 68.9715 43.495 68.9715 43.1945C68.9715 42.4566 68.4158 41.71 67.6992 41.71C66.8826 41.71 66.2602 41.9096 65.9723 42.7399C65.9242 42.879 65.8438 43.306 65.8438 43.4595Z" fill="white"/>
<path fill-rule="evenodd" clip-rule="evenodd" d="M98.712 42.1873C99.2079 42.1873 99.5205 42.664 99.5602 43.1416H97.6518C97.6518 42.5071 98.0773 42.1873 98.712 42.1873ZM97.0156 43.4067C97.0156 44.7221 97.7011 45.2093 98.9241 45.2093C99.4302 45.2093 99.6218 45.0275 99.9844 44.9973V44.4141C99.093 44.8858 97.7135 44.9973 97.5988 43.6188L99.7224 43.622C100.052 43.6275 100.177 43.6866 100.127 43.3291C100.045 42.7359 100.092 42.6276 99.7899 42.2228C99.344 41.6252 98.4652 41.5897 97.8623 41.8677C97.3646 42.0971 97.0156 42.7126 97.0156 43.4068V43.4067Z" fill="white"/>
<path fill-rule="evenodd" clip-rule="evenodd" d="M70.9326 44.732C70.4334 44.732 70.1119 44.4141 70.2177 43.9685C70.363 43.3568 71.2646 43.4596 71.8868 43.4596C71.8868 44.1143 71.6971 44.732 70.9326 44.732ZM69.8723 41.9221V42.4523C70.0764 42.4047 70.1117 42.3364 70.3291 42.2729C70.9516 42.0912 71.8868 42.0793 71.8868 43.0355C71.1736 43.0355 69.6603 42.8683 69.6603 43.9898C69.6603 44.3665 69.6449 44.689 69.9675 44.955C70.2913 45.2221 70.4926 45.2092 70.8796 45.2092C71.5005 45.2092 71.5474 44.9593 71.8868 44.732C71.8868 45.2041 71.7911 45.1562 72.47 45.1562C72.47 44.1687 72.6284 42.7108 72.1621 42.124C71.8204 41.6941 71.287 41.71 70.8265 41.71C70.4722 41.71 70.1673 41.8534 69.8723 41.9221H69.8723Z" fill="white"/>
<path fill-rule="evenodd" clip-rule="evenodd" d="M86.9428 44.732C86.4331 44.732 86.2007 44.5604 86.2007 44.0428C86.2007 43.3516 87.2703 43.4596 87.8971 43.4596C87.8971 44.129 87.602 44.732 86.9428 44.732ZM85.8296 42.0811C85.8296 42.4698 85.8187 42.4466 85.9865 42.406C86.1445 42.3679 87.5293 41.8013 87.8237 42.6354C88.1322 43.5095 87.0288 42.6683 86.0814 43.2343C85.3344 43.6806 85.4318 45.2091 86.6777 45.2091C87.0345 45.2091 87.158 45.2294 87.4725 45.0496C87.8401 44.8395 87.6863 44.8082 87.8971 44.7319V45.1561H88.4272V42.8763C88.4272 42.2804 87.8676 41.71 87.2609 41.71C86.9413 41.71 85.8296 41.7177 85.8296 42.0811L85.8296 42.0811Z" fill="white"/>
<path fill-rule="evenodd" clip-rule="evenodd" d="M94.5239 45.1561H95.266L96.1977 42.6417C96.2843 42.416 96.4803 41.9851 96.4853 41.763H95.9022C95.847 41.9998 95.7455 42.2187 95.6575 42.4726L95.1374 43.8611C95.0076 44.1996 94.9905 44.411 94.8419 44.5199C94.8267 44.3372 94.6706 43.9933 94.5992 43.8083L94.0843 42.4147C93.801 41.6907 93.9942 41.763 93.4105 41.763C93.1516 41.763 93.3326 42.0161 93.5098 42.512L94.3424 44.7013C94.4167 44.8975 94.4377 44.9934 94.5238 45.1561H94.5239Z" fill="white"/>
<path fill-rule="evenodd" clip-rule="evenodd" d="M76.9218 41.7632H76.5508V42.2404H76.9218C76.9218 44.9462 76.6744 45.1563 78.6182 45.1563C78.6182 44.2576 78.5793 44.7987 77.611 44.5731C77.4208 44.1766 77.505 42.8562 77.505 42.2404H78.6182V41.7632H77.505V40.8088H76.9218V41.7632Z" fill="white"/>
<path fill-rule="evenodd" clip-rule="evenodd" d="M89.5391 40.9677V41.763H89.168V42.2402H89.5391C89.5391 44.9034 89.29 45.1561 91.2355 45.1561C91.2355 44.2574 91.1965 44.7985 90.2283 44.5729C90.0485 44.1982 90.1222 42.7807 90.1222 42.2402H91.2355V41.763H90.1222V40.8086C89.7053 40.8086 89.5391 40.7513 89.5391 40.9677V40.9677Z" fill="white"/>
<path fill-rule="evenodd" clip-rule="evenodd" d="M74.8564 45.2093C75.2917 45.2093 75.6298 45.2052 76.0227 44.9973V44.5201C75.7065 44.5464 73.9552 45.4142 73.9552 43.3537C73.9552 42.3905 74.6941 42.0191 75.5323 42.2536C75.7026 42.3012 75.7906 42.3801 76.0227 42.3994V41.9222C75.1659 41.4688 73.3477 41.5707 73.3477 43.4597C73.3477 44.4321 73.9115 45.2093 74.8564 45.2093V45.2093Z" fill="white"/>
<path fill-rule="evenodd" clip-rule="evenodd" d="M91.9258 41.922V44.997C91.9258 45.2135 92.092 45.1561 92.5089 45.1561V41.763C92.092 41.763 91.9258 41.7056 91.9258 41.9221V41.922Z" fill="white"/>
<path fill-rule="evenodd" clip-rule="evenodd" d="M91.9258 41.1799H92.509V40.4907H91.9258V41.1799Z" fill="white"/>
</g>
</g>
<defs>
<clipPath id="clip0_3346_41667">
<rect width="161" height="45.21" fill="white"/>
</clipPath>
<clipPath id="clip1_3346_41667">
<rect width="42.2244" height="45.21" fill="white" transform="translate(60.3867)"/>
</clipPath>
</defs>
</svg>
