<svg
  width="142"
  height="93"
  viewBox="0 0 142 93"
  fill="none"
  xmlns="http://www.w3.org/2000/svg"
>
  <path
    d="M50.296 89.976C46.1147 91.768 41.592 92.664 36.728 92.664C31.864 92.664 27.2987 91.768 23.032 89.976C18.8507 88.0987 15.0533 85.368 11.64 81.784C8.312 78.1147 5.66667 73.2933 3.704 67.32C1.74133 61.2613 0.76 54.3493 0.76 46.584C0.76 38.8187 1.74133 31.9067 3.704 25.848C5.66667 19.7893 8.312 14.968 11.64 11.384C15.0533 7.71466 18.8507 4.984 23.032 3.19199C27.2987 1.31466 31.864 0.375999 36.728 0.375999C41.592 0.375999 46.1147 1.31466 50.296 3.19199C54.5627 4.984 58.36 7.71466 61.688 11.384C65.1013 14.968 67.7893 19.7893 69.752 25.848C71.7147 31.9067 72.696 38.8187 72.696 46.584C72.696 54.3493 71.7147 61.2613 69.752 67.32C67.7893 73.2933 65.1013 78.1147 61.688 81.784C58.36 85.368 54.5627 88.0987 50.296 89.976ZM22.52 68.344C25.6773 73.6347 30.4133 76.28 36.728 76.28C43.0427 76.28 47.736 73.592 50.808 68.216C53.9653 62.84 55.544 55.6293 55.544 46.584C55.544 37.5387 53.9653 30.328 50.808 24.952C47.736 19.4907 43.0427 16.76 36.728 16.76C30.4133 16.76 25.6773 19.448 22.52 24.824C19.448 30.2 17.912 37.4533 17.912 46.584C17.912 55.7147 19.448 62.968 22.52 68.344ZM111.682 92.664C105.538 92.664 100.162 91.4267 95.554 88.952C90.946 86.4773 87.3193 83.192 84.674 79.096C84.0767 77.9867 84.2047 77.048 85.058 76.28L93.506 68.6C94.4447 67.6613 95.3833 67.7467 96.322 68.856C100.418 73.8907 105.154 76.408 110.53 76.408C114.626 76.408 117.869 75.2133 120.258 72.824C122.647 70.4347 123.842 67.4907 123.842 63.992C123.842 60.664 122.69 57.8053 120.386 55.416C118.082 52.9413 114.754 51.704 110.402 51.704H106.946C105.581 51.704 104.898 51.0213 104.898 49.656V39.288C104.898 38.008 105.581 37.368 106.946 37.368H110.274C113.943 37.368 116.717 36.344 118.594 34.296C120.471 32.248 121.41 29.816 121.41 27C121.41 23.928 120.343 21.4533 118.21 19.576C116.077 17.6133 113.389 16.632 110.146 16.632C104.855 16.632 100.802 19.0213 97.986 23.8C97.3033 24.9947 96.3647 25.08 95.17 24.056L87.234 16.248C86.21 15.3947 86.082 14.4987 86.85 13.56C89.3247 9.63466 92.738 6.47733 97.09 4.088C101.527 1.61333 106.519 0.375999 112.066 0.375999C119.49 0.375999 125.762 2.552 130.882 6.904C136.002 11.1707 138.562 16.8453 138.562 23.928C138.562 28.6213 137.367 32.632 134.978 35.96C132.589 39.288 129.602 41.7627 126.018 43.384C130.541 45.176 134.295 47.992 137.282 51.832C140.269 55.5867 141.762 60.3227 141.762 66.04C141.762 73.8907 138.903 80.2907 133.186 85.24C127.469 90.1893 120.301 92.664 111.682 92.664Z"
    fill="#2B93AA"
  />
</svg>
