<svg
  width="118"
  height="93"
  viewBox="0 0 118 93"
  fill="none"
  xmlns="http://www.w3.org/2000/svg"
>
  <path
    d="M50.296 89.976C46.1147 91.768 41.592 92.664 36.728 92.664C31.864 92.664 27.2987 91.768 23.032 89.976C18.8507 88.0987 15.0533 85.368 11.64 81.784C8.312 78.1147 5.66667 73.2933 3.704 67.32C1.74133 61.2613 0.76 54.3493 0.76 46.584C0.76 38.8187 1.74133 31.9067 3.704 25.848C5.66667 19.7893 8.312 14.968 11.64 11.384C15.0533 7.71466 18.8507 4.984 23.032 3.19199C27.2987 1.31466 31.864 0.375999 36.728 0.375999C41.592 0.375999 46.1147 1.31466 50.296 3.19199C54.5627 4.984 58.36 7.71466 61.688 11.384C65.1013 14.968 67.7893 19.7893 69.752 25.848C71.7147 31.9067 72.696 38.8187 72.696 46.584C72.696 54.3493 71.7147 61.2613 69.752 67.32C67.7893 73.2933 65.1013 78.1147 61.688 81.784C58.36 85.368 54.5627 88.0987 50.296 89.976ZM22.52 68.344C25.6773 73.6347 30.4133 76.28 36.728 76.28C43.0427 76.28 47.736 73.592 50.808 68.216C53.9653 62.84 55.544 55.6293 55.544 46.584C55.544 37.5387 53.9653 30.328 50.808 24.952C47.736 19.4907 43.0427 16.76 36.728 16.76C30.4133 16.76 25.6773 19.448 22.52 24.824C19.448 30.2 17.912 37.4533 17.912 46.584C17.912 55.7147 19.448 62.968 22.52 68.344ZM101.6 91C100.32 91 99.68 90.36 99.68 89.08V16.376H84.96C83.68 16.376 83.04 15.736 83.04 14.456V3.31999C83.04 2.03999 83.68 1.39999 84.96 1.39999H115.424C116.704 1.39999 117.344 2.03999 117.344 3.31999V89.08C117.344 90.36 116.704 91 115.424 91H101.6Z"
    fill="#2B93AA"
  />
</svg>
