<svg
  width="143"
  height="93"
  viewBox="0 0 143 93"
  fill="none"
  xmlns="http://www.w3.org/2000/svg"
>
  <path
    d="M50.296 89.976C46.1147 91.768 41.592 92.664 36.728 92.664C31.864 92.664 27.2987 91.768 23.032 89.976C18.8507 88.0987 15.0533 85.368 11.64 81.784C8.312 78.1147 5.66667 73.2933 3.704 67.32C1.74133 61.2613 0.76 54.3493 0.76 46.584C0.76 38.8187 1.74133 31.9067 3.704 25.848C5.66667 19.7893 8.312 14.968 11.64 11.384C15.0533 7.71466 18.8507 4.984 23.032 3.19199C27.2987 1.31466 31.864 0.375999 36.728 0.375999C41.592 0.375999 46.1147 1.31466 50.296 3.19199C54.5627 4.984 58.36 7.71466 61.688 11.384C65.1013 14.968 67.7893 19.7893 69.752 25.848C71.7147 31.9067 72.696 38.8187 72.696 46.584C72.696 54.3493 71.7147 61.2613 69.752 67.32C67.7893 73.2933 65.1013 78.1147 61.688 81.784C58.36 85.368 54.5627 88.0987 50.296 89.976ZM22.52 68.344C25.6773 73.6347 30.4133 76.28 36.728 76.28C43.0427 76.28 47.736 73.592 50.808 68.216C53.9653 62.84 55.544 55.6293 55.544 46.584C55.544 37.5387 53.9653 30.328 50.808 24.952C47.736 19.4907 43.0427 16.76 36.728 16.76C30.4133 16.76 25.6773 19.448 22.52 24.824C19.448 30.2 17.912 37.4533 17.912 46.584C17.912 55.7147 19.448 62.968 22.52 68.344ZM89.252 91C87.972 91 87.332 90.36 87.332 89.08V78.072C87.332 77.1333 87.6307 76.3227 88.228 75.64L115.108 47.48C115.193 47.3947 115.705 46.8827 116.644 45.944C117.583 44.92 118.18 44.2373 118.436 43.896C118.692 43.5547 119.204 42.9147 119.972 41.976C120.825 40.952 121.423 40.184 121.764 39.672C122.105 39.0747 122.575 38.264 123.172 37.24C123.769 36.216 124.196 35.32 124.452 34.552C124.708 33.784 124.921 32.888 125.092 31.864C125.348 30.84 125.476 29.816 125.476 28.792C125.476 25.208 124.281 22.3067 121.892 20.088C119.503 17.784 116.345 16.632 112.42 16.632C106.873 16.632 101.967 19.5333 97.7 25.336C96.7613 26.36 95.78 26.36 94.756 25.336L86.948 17.528C86.0947 16.6747 86.0093 15.736 86.692 14.712C93.2627 5.15467 102.308 0.375999 113.828 0.375999C122.361 0.375999 129.316 2.936 134.692 8.056C140.068 13.0907 142.756 19.4907 142.756 27.256C142.756 31.1813 141.903 35.0213 140.196 38.776C138.489 42.5307 137.039 45.1333 135.844 46.584C134.735 47.9493 133.028 49.8267 130.724 52.216L108.452 76.024H140.836C142.116 76.024 142.756 76.664 142.756 77.944V89.08C142.756 90.36 142.116 91 140.836 91H89.252Z"
    fill="#2B93AA"
  />
</svg>
