<svg
  width="147"
  height="93"
  viewBox="0 0 147 93"
  fill="none"
  xmlns="http://www.w3.org/2000/svg"
>
  <path
    d="M50.296 89.976C46.1147 91.768 41.592 92.664 36.728 92.664C31.864 92.664 27.2987 91.768 23.032 89.976C18.8507 88.0987 15.0533 85.368 11.64 81.784C8.312 78.1147 5.66667 73.2933 3.704 67.32C1.74133 61.2613 0.76 54.3493 0.76 46.584C0.76 38.8187 1.74133 31.9067 3.704 25.848C5.66667 19.7893 8.312 14.968 11.64 11.384C15.0533 7.71466 18.8507 4.984 23.032 3.19199C27.2987 1.31466 31.864 0.375999 36.728 0.375999C41.592 0.375999 46.1147 1.31466 50.296 3.19199C54.5627 4.984 58.36 7.71466 61.688 11.384C65.1013 14.968 67.7893 19.7893 69.752 25.848C71.7147 31.9067 72.696 38.8187 72.696 46.584C72.696 54.3493 71.7147 61.2613 69.752 67.32C67.7893 73.2933 65.1013 78.1147 61.688 81.784C58.36 85.368 54.5627 88.0987 50.296 89.976ZM22.52 68.344C25.6773 73.6347 30.4133 76.28 36.728 76.28C43.0427 76.28 47.736 73.592 50.808 68.216C53.9653 62.84 55.544 55.6293 55.544 46.584C55.544 37.5387 53.9653 30.328 50.808 24.952C47.736 19.4907 43.0427 16.76 36.728 16.76C30.4133 16.76 25.6773 19.448 22.52 24.824C19.448 30.2 17.912 37.4533 17.912 46.584C17.912 55.7147 19.448 62.968 22.52 68.344ZM113.7 92.664C107.471 92.664 102.009 91.3413 97.316 88.696C92.708 85.9653 89.2947 82.7653 87.076 79.096C86.564 77.9013 86.8627 76.8773 87.972 76.024L97.06 69.112C98.2547 68.2587 99.3213 68.4293 100.26 69.624C103.588 74.1467 107.983 76.408 113.444 76.408C118.052 76.408 121.764 74.9573 124.58 72.056C127.481 69.0693 128.932 65.4427 128.932 61.176C128.932 56.824 127.481 53.24 124.58 50.424C121.764 47.608 118.18 46.2 113.828 46.2C109.22 46.2 105.423 47.8213 102.436 51.064C101.497 52.088 100.431 52.3867 99.236 51.96L89.636 48.12C88.5267 47.608 88.1 46.84 88.356 45.816L97.956 3.064C98.212 1.95466 98.8947 1.39999 100.004 1.39999H138.404C139.684 1.39999 140.324 2.03999 140.324 3.31999V14.456C140.324 15.736 139.684 16.376 138.404 16.376H111.012L107.172 33.4C111.097 32.0347 114.724 31.352 118.052 31.352C126.159 31.352 132.857 34.2533 138.148 40.056C143.439 45.7733 146.084 52.9413 146.084 61.56C146.084 70.8613 142.969 78.3707 136.74 84.088C130.596 89.8053 122.916 92.664 113.7 92.664Z"
    fill="#2B93AA"
  />
</svg>
