<svg width="161" height="46" viewBox="0 0 161 46" fill="none" xmlns="http://www.w3.org/2000/svg">
<g clip-path="url(#clip0_3346_41645)">
<path fill-rule="evenodd" clip-rule="evenodd" d="M23.6547 20.6209C24.0027 20.1011 25.9821 18.7403 26.7768 17.6908C27.1477 17.2019 27.2345 16.9196 27.8567 16.753C28.1718 17.3486 28.5088 17.8883 28.5288 18.7713C27.5306 18.8541 24.7426 20.3675 23.6547 20.6209ZM19.4527 24.1526C20.2614 22.9445 21.3683 22.0336 22.5788 21.2275C23.0225 20.9322 23.3586 20.577 23.8222 20.4533C23.2389 21.3253 20.5147 23.8683 19.4527 24.1526ZM22.142 20.7895C22.3554 19.8737 22.8899 19.5424 22.9826 18.4351C23.3735 18.6416 23.919 18.9987 24.3268 19.1075C24.0237 19.5604 22.6376 20.6568 22.142 20.7885V20.7895ZM27.3521 21.4619C27.5595 20.8883 27.3342 21.3472 27.7999 20.9003C29.1649 19.5883 30.527 17.9522 31.5541 16.4168C32.5612 16.9495 34.3182 18.2156 34.9155 19.1075C33.9074 19.1913 30.4892 20.3905 29.2228 20.8105C28.6813 20.99 27.8816 21.3382 27.3531 21.4619H27.3521ZM30.0414 16.9216C29.8271 17.7257 27.0181 21.022 26.344 21.7981C26.3171 20.58 25.8764 19.9884 25.6719 19.1075C26.5554 18.902 28.6923 17.2359 30.0414 16.9216ZM36.5957 18.6027C37.5569 17.167 38.1612 17.7197 40.6291 13.0537C41.7818 13.6643 42.3642 14.0374 43.3713 14.8505C44.2278 15.5419 45.0814 16.2083 45.6707 17.0892C43.9556 17.4893 41.1467 17.5791 38.8123 18.1308C38.2789 18.2565 37.172 18.5548 36.5957 18.6027ZM22.9836 18.6037C23.222 17.5821 24.0506 16.5634 24.1603 15.2406C24.6678 15.3593 24.971 15.5568 25.4825 15.7673C25.9751 15.9698 26.3979 16.2971 26.8486 16.4178C26.4358 16.9815 25.6121 17.168 24.946 17.5412C24.4066 17.8424 23.5201 18.46 22.9826 18.6037H22.9836ZM21.807 19.4447C20.9056 19.2042 21.2705 18.7024 20.1268 18.436C20.3332 17.6639 23.0584 15.5239 23.4882 15.4092L22.3006 18.4241C22.0982 18.8052 21.9297 18.9199 21.808 19.4447H21.807ZM19.7908 13.7281C20.8627 13.8169 21.9646 14.4843 22.9836 14.5691V14.9053C22.3844 15.065 22.3345 15.3473 21.446 16.0576C20.8836 16.5076 20.5416 17.0363 19.9583 17.4274L19.7898 13.7281H19.7908ZM36.4292 13.8967C36.3394 14.2329 32.6789 19.4038 31.8911 19.6133C31.7017 18.903 31.0635 18.3363 30.53 17.7806L29.9168 17.2169C29.6007 16.9246 29.4242 16.749 29.2028 16.4178C30.2967 15.8392 35.0501 14.0104 36.4292 13.8957V13.8967ZM21.6395 17.2588C21.8329 16.4278 22.8161 14.7727 22.8161 13.0547C23.5022 13.1116 27.9564 14.4275 28.6983 15.072C25.4157 15.8372 22.3106 17.1012 21.6395 17.2578V17.2588ZM15.9258 11.7099C16.0575 13.2951 16.2619 11.9303 16.2619 15.4092L12.733 14.4005C13.2395 13.6443 15.2468 11.8914 15.9258 11.7099ZM20.6314 17.4264C19.7988 16.9855 18.679 16.1704 17.606 16.0816V15.7454C18.4257 15.5269 21.0422 13.351 22.3116 13.0547C22.2747 14.7228 20.8139 16.741 20.6314 17.4264ZM16.2619 11.7099C17.6539 11.8256 20.6772 12.6387 21.6395 12.7185C21.6096 12.7444 21.5597 12.7424 21.5458 12.7923L19.2324 14.0085C18.2781 14.4843 17.7377 14.8704 16.935 15.4092C16.935 13.8578 16.7575 12.7404 16.2629 11.7099H16.2619ZM10.8843 10.7012C12.0779 10.9796 14.0063 11.4385 15.2538 11.5422L14.4471 12.081C13.3023 12.8123 12.7041 13.4647 12.0599 13.8967L10.8833 10.7022L10.8843 10.7012ZM8.531 10.1964C9.21604 10.2114 10.2052 10.3271 10.5293 10.8878C10.646 11.0903 11.1475 12.7444 11.2203 13.0557C10.8324 12.915 11.0837 13.0477 10.8244 12.7793L9.92003 11.666C9.41049 11.1601 8.91291 10.7671 8.531 10.1974V10.1964ZM4.16151 6.83431C4.60125 8.72387 9.32174 10.7501 9.69667 14.9163C10.1992 20.5082 7.61263 23.0981 3.78559 26.971C3.23018 27.5327 1.62278 28.7229 1.30469 29.1978L10.3079 24.7542C16.3885 22.3299 24.617 19.6991 31.0745 18.6276C31.8891 18.4929 32.5752 18.2684 33.4048 18.2684C28.5866 11.0684 22.3265 10.6005 13.3333 9.09201L5.17062 7.50673C5.19156 6.55297 5.12675 7.14558 6.01122 5.82568C4.99014 6.09804 5.09484 6.75749 4.16251 6.83431H4.16151Z" fill="white"/>
<path fill-rule="evenodd" clip-rule="evenodd" d="M72.7311 29.7015C69.0037 29.7015 66.6804 26.6966 66.6804 23.4801V21.7991C66.6804 18.6644 69.1693 15.5777 72.2265 15.5777C73.8469 15.5777 74.513 15.4739 76.0426 16.299C80.2705 18.5806 80.5716 29.7015 72.7301 29.7015H72.7311ZM64.3281 22.6391C64.3281 26.5629 65.9315 29.8322 69.6379 31.1142C70.4855 31.4075 71.5963 31.4983 72.3113 31.8016C72.9026 32.052 73.7851 32.9688 74.1729 33.4706C74.5329 33.9375 74.5688 33.9615 74.9597 34.3645C76.3836 35.8321 74.9936 35.5857 78.9493 35.5857C78.4567 34.8494 77.635 34.187 76.9749 33.5255C76.4105 32.9608 75.2888 32.1467 75.0843 31.3815C76.7536 30.9925 78.3131 30.0577 79.2883 28.6939C81.2407 25.9643 81.134 24.6005 81.134 21.4609C81.134 18.5946 79.3232 15.5418 76.9849 14.5142C73.8449 13.1354 69.4744 13.332 66.7801 16.0107C66.6944 16.0955 66.5408 16.2661 66.458 16.3608C65.1408 17.8603 64.3291 19.9165 64.3291 22.6381L64.3281 22.6391Z" fill="white"/>
<path fill-rule="evenodd" clip-rule="evenodd" d="M115.249 20.4533C117.267 20.4533 118.442 21.9457 118.442 23.984H111.887C112.022 22.3698 113.258 20.4533 115.249 20.4533ZM109.535 24.9936C109.535 28.0015 110.467 29.921 112.894 31.0494C115.308 32.1727 117.826 31.6689 119.954 30.5425V28.6929C119.406 28.8206 118.762 29.1807 118.158 29.4182C114.798 30.7391 111.796 29.09 111.72 25.666H120.627V23.6487C120.627 16.4427 109.535 17.0074 109.535 24.9936Z" fill="white"/>
<path fill-rule="evenodd" clip-rule="evenodd" d="M148.018 20.4532C150.199 20.4532 151.172 22.2101 151.211 23.984H144.657C144.809 22.1602 146.068 20.4532 148.018 20.4532ZM142.305 24.4888C142.305 26.4172 142.331 28.3128 143.853 29.8332C146.139 32.1128 149.907 31.9442 152.556 30.5415V28.6919C151.675 28.8974 150.483 29.8691 148.523 29.8691C146.192 29.8691 144.489 27.9407 144.489 25.665H153.397C153.397 23.2327 153.232 20.4922 150.938 19.2142C147.278 17.175 142.305 20.13 142.305 24.4888Z" fill="white"/>
<path fill-rule="evenodd" clip-rule="evenodd" d="M52.7305 18.0987C52.7305 19.7967 53.2001 20.8113 54.8404 22.0404C56.9265 23.6037 60.0485 24.7071 60.3656 26.9249C60.4683 27.6403 60.222 28.3775 59.7593 28.8295C58.4431 30.1164 56.1317 29.8391 54.5752 29.1996C53.8213 28.8893 53.5242 28.589 52.7305 28.5232V30.8776C53.9181 31.155 55.3101 31.7187 56.7639 31.7187C62.5344 31.7187 65.4241 26.0071 59.2329 22.3547C57.9206 21.5805 54.9152 20.0182 54.9152 18.2663C54.9152 15.7153 57.778 15.1845 60.1871 15.85C60.8871 16.0435 61.3189 16.3618 61.974 16.4166V14.2308C59.6686 13.693 56.2534 13.1054 54.279 14.9391C53.5671 15.6005 52.7305 16.7947 52.7305 18.0987Z" fill="white"/>
<path fill-rule="evenodd" clip-rule="evenodd" d="M98.2734 18.4349C98.2734 22.2699 103.649 23.3693 105.363 25.634C107.132 27.9715 104.804 30.6233 100.956 29.5408C100.126 29.3074 99.0891 28.5921 98.2734 28.5242V30.8787C100.972 31.5072 103.131 32.5498 106.272 30.6422C108.888 29.053 108.838 25.3317 106.247 23.4062C104.034 21.7621 100.358 20.2337 100.521 18.1596C100.737 15.4001 103.579 15.3621 105.706 15.8759C106.455 16.0565 106.866 16.3648 107.517 16.4187V14.2328C105.153 13.6821 105.752 13.728 103.315 13.728C100.62 13.728 98.2734 15.7243 98.2734 18.4359V18.4349Z" fill="white"/>
<path fill-rule="evenodd" clip-rule="evenodd" d="M83.9883 31.2151H93.3993V29.1968H86.173V13.8958H83.9883V31.2151Z" fill="white"/>
<path fill-rule="evenodd" clip-rule="evenodd" d="M134.913 31.2149H137.266C137.321 30.5514 139.299 26.052 139.692 25.0663C140.122 23.9869 140.461 23.1408 140.89 22.0614C141.274 21.0986 141.922 19.8725 142.14 18.9397H139.955L137.17 26.2416C136.837 27.0736 136.453 27.8528 136.258 28.6918C136.077 28.4843 136.061 28.4683 135.921 28.188C135.786 27.9196 135.812 27.9296 135.679 27.5884L132.56 18.9387H130.207L134.913 31.2139V31.2149Z" fill="white"/>
<path fill-rule="evenodd" clip-rule="evenodd" d="M125.166 20.7894V18.9398H122.812V31.2149H125.166V24.3211C125.166 22.5333 126.185 20.6218 128.359 20.6218C128.938 20.6218 129.01 20.7465 129.535 20.7904V18.7722C128.029 18.7722 126.752 18.6335 125.737 20.0173L125.166 20.7904V20.7894Z" fill="white"/>
<path fill-rule="evenodd" clip-rule="evenodd" d="M157.767 20.7894V18.9397H155.582V31.2149H157.767C157.767 27.3569 156.989 21.808 160.194 20.6846C161.262 20.3105 161.267 20.7036 162.304 20.7904V18.6045C161.493 18.7761 160.823 18.5077 159.673 18.9986C158.682 19.4216 158.468 20.3205 157.767 20.7904V20.7894Z" fill="white"/>
<path fill-rule="evenodd" clip-rule="evenodd" d="M53.4023 12.0461H54.0744V7.00192L54.6488 8.27692C54.8552 8.77974 55.0436 9.096 55.253 9.522C55.634 10.2942 55.9391 11.5652 56.5952 12.0471C57.1446 11.644 57.9015 9.42123 58.2744 8.68297C58.5047 8.22604 58.7261 7.98062 58.78 7.33913H59.116C59.116 8.01155 58.774 11.218 59.116 12.0471H59.7881V5.82568C58.751 5.82568 58.9086 5.84663 58.4409 6.83132C58.2255 7.28426 57.9912 7.72522 57.7688 8.17716C57.5405 8.64107 57.3999 9.06308 57.1556 9.58186C56.9293 10.0607 56.8016 10.5955 56.4267 10.8698C56.3369 9.79336 54.4872 6.75251 54.4105 5.82568H53.4023V12.0471V12.0461Z" fill="white"/>
<path fill-rule="evenodd" clip-rule="evenodd" d="M20.1231 34.0734H19.6185V33.5686C19.103 33.7821 19.5298 33.7771 19.0611 33.4669C18.8078 33.2983 18.6094 33.0728 18.4419 32.8962L17.2463 31.3249C16.7068 30.3033 17.2652 28.7659 17.2652 27.8521C16.7467 28.2322 15.588 29.9761 16.1006 31.3688C16.9581 33.6943 19.4699 34.9863 21.6806 35.8772C22.5731 36.2373 24.7668 36.7641 25.6682 36.7641L25.028 36.396C24.5733 36.2184 24.706 36.3221 24.2084 36.2064L20.1221 34.0734H20.1231Z" fill="white"/>
<path fill-rule="evenodd" clip-rule="evenodd" d="M79.7864 9.86008C79.7864 7.83085 82.6432 7.54851 82.6432 9.35527C82.6432 10.0606 82.8087 11.5411 81.299 11.5411C80.4973 11.5411 79.7864 10.6672 79.7864 9.86008ZM79.1143 9.35527C79.1143 11.4124 79.4563 12.0459 81.6351 12.0459C83.9235 12.0459 84.4979 7.50562 81.1305 7.50562C80.2251 7.50562 79.1133 8.41149 79.1133 9.35527H79.1143Z" fill="white"/>
<path fill-rule="evenodd" clip-rule="evenodd" d="M72.5597 8.178C75.4764 8.178 73.4991 13.1314 71.5257 11.0612C70.8885 10.3928 70.8068 8.178 72.5597 8.178ZM70.375 9.69144C70.375 13.0246 74.7445 12.8021 74.7445 9.69144C74.7445 6.67852 70.375 6.84014 70.375 9.69144Z" fill="white"/>
<path fill-rule="evenodd" clip-rule="evenodd" d="M84.6604 7.16943V7.67425H83.9883C84.0082 8.55518 83.9265 8.23992 84.6604 8.17906V12.046H85.5009V8.17906H86.5091V7.67425H85.5009C85.5009 6.25358 85.3394 5.84953 86.6776 6.1608V5.48838C85.6076 5.48838 84.6614 5.40658 84.6614 7.16943H84.6604Z" fill="white"/>
<path fill-rule="evenodd" clip-rule="evenodd" d="M75.5859 8.85039C75.5859 10.4087 77.4715 9.63156 77.6022 11.2049C77.0318 11.587 76.7885 11.7825 75.5859 11.2049C75.6009 11.8713 75.4932 11.8713 76.0496 12.1008C76.3727 12.2334 76.8214 12.1796 77.1415 12.1047C77.9093 11.9232 78.4358 11.4453 78.374 10.7439C78.2972 9.88696 77.5982 9.80415 76.976 9.47692C76.2899 9.11577 75.4503 7.72803 78.1077 8.34757V7.67515C77.9831 7.66518 75.5869 6.95884 75.5869 8.85239L75.5859 8.85039Z" fill="white"/>
<path fill-rule="evenodd" clip-rule="evenodd" d="M63.1484 9.86016C63.1484 11.619 64.6033 12.2964 65.731 12.1139C66.6803 11.9602 66.3622 11.8634 66.6773 11.205C66.2047 11.3147 65.8238 11.5412 65.3332 11.5412C63.7517 11.5412 63.0707 8.17811 65.6692 8.17811C66.1229 8.17811 66.1329 8.25792 66.5098 8.34671C66.4899 7.45381 66.3104 7.50569 65.3332 7.50569C64.2104 7.50569 63.1484 8.70188 63.1484 9.86016Z" fill="white"/>
<path fill-rule="evenodd" clip-rule="evenodd" d="M87.6843 6.49695V7.67419H86.8438V8.179H87.6843C87.6843 12.019 87.3423 12.0459 89.533 12.0459C89.4991 10.5325 89.1531 12.1816 88.521 11.2209C88.2318 10.7819 88.3564 8.96316 88.3564 8.179H89.533V7.67419H88.3564V6.32935C88.0204 6.49595 88.171 6.44607 87.6843 6.49795V6.49695Z" fill="white"/>
<path fill-rule="evenodd" clip-rule="evenodd" d="M68.5281 8.34679L68.3596 7.67437H67.6875V12.0461H68.3596C68.3596 9.98195 67.9936 7.86991 70.0398 8.34679C70.0049 6.80242 68.7156 7.64145 68.5271 8.34679H68.5281Z" fill="white"/>
<path fill-rule="evenodd" clip-rule="evenodd" d="M61.3018 11.7097H62.1424C61.7335 10.8567 61.9739 9.00007 61.9739 7.8418H61.4693C61.4693 9.00007 61.7106 10.8557 61.3008 11.7097H61.3018Z" fill="white"/>
<path fill-rule="evenodd" clip-rule="evenodd" d="M61.6368 6.49703C62.2231 6.49703 62.1414 6.16082 62.1414 5.82461C61.6957 5.61011 61.9619 5.67097 61.3008 5.65601C61.3088 6.02713 61.2489 6.49703 61.6368 6.49703Z" fill="white"/>
<path fill-rule="evenodd" clip-rule="evenodd" d="M18.9492 32.7274H19.4538V32.5588C18.5653 32.5588 19.2035 32.5598 18.9492 32.7274Z" fill="white"/>
<path fill-rule="evenodd" clip-rule="evenodd" d="M18.946 32.7273C18.1482 32.7273 18.6269 32.7233 18.4414 32.8959C19.2391 32.8959 18.7605 32.8999 18.946 32.7273Z" fill="white"/>
<path fill-rule="evenodd" clip-rule="evenodd" d="M17.9414 32.3912L18.3113 32.0889C17.8407 32.1707 18.09 31.9931 17.9414 32.3912Z" fill="white"/>
</g>
<defs>
<clipPath id="clip0_3346_41645">
<rect width="161" height="45.21" fill="white"/>
</clipPath>
</defs>
</svg>
