<svg width="108" height="25" viewBox="0 0 108 25" fill="none" xmlns="http://www.w3.org/2000/svg">
<path fill-rule="evenodd" clip-rule="evenodd" d="M11.661 19.0317C10.9983 19.1604 7.30032 19.2327 6.64331 19.1104C6.16668 19.0217 4.33059 17.2143 4.03407 16.7902C3.27652 15.7062 3.71067 9.12792 3.67949 7.19119L6.83605 7.19361C7.16617 7.73544 7.01375 7.80452 7.15139 8.5963L11.6706 8.69521C11.8214 10.3148 12.033 10.747 10.4873 10.7838C9.34636 10.8109 8.25896 10.7029 7.10542 10.8233C7.12881 11.8003 7.13015 12.7794 7.11832 13.7566C7.09198 15.9481 6.84304 16.219 7.742 16.129C8.8157 16.0215 7.93448 13.7684 8.36084 12.1432C9.0563 11.857 10.7351 11.8728 11.7333 12.0916L11.6612 19.0317H11.661ZM12.4099 10.8115C12.4099 9.35046 12.5562 9.53913 13.4384 8.80701C14.8573 7.62955 13.593 6.61227 20.4804 7.19442C20.4841 8.27459 20.6739 11.1316 20.2774 12.0432L18.8384 12.0491C16.4515 12.054 17.2114 12.09 17.0805 11.4694C16.7982 10.1331 17.6579 10.2584 16.3474 10.1022C15.6826 10.3651 16.1289 9.96835 15.8974 10.6131L15.8616 16.473L17.0509 16.4832L17.07 12.8369L20.4642 12.8151C20.5825 15.187 20.853 16.3964 19.5521 17.6373C17.8757 19.2359 18.5268 19.115 15.4417 19.115L12.4997 19.1193L12.4102 10.8115H12.4099ZM0.0419922 24.8491H18.9244C19.6422 24.2108 23.8912 20.0836 24.0695 19.1803L24.0783 0.849121H0.0419922V24.8491Z" fill="#1A1A1A"/>
<path fill-rule="evenodd" clip-rule="evenodd" d="M12.4094 10.8113L12.499 19.1191L15.441 19.1148C18.5261 19.1148 17.8747 19.2358 19.5514 17.6371C20.8525 16.3962 20.5818 15.1868 20.4635 12.8149L17.0693 12.8367L17.0502 16.4831L15.8609 16.4728L15.8967 10.6129C16.1281 9.9679 15.6819 10.3649 16.3467 10.102C17.6575 10.2582 16.7978 10.1329 17.0798 11.4692C17.2107 12.0898 16.4507 12.0538 18.8376 12.049L20.2767 12.043C20.6729 11.1314 20.4831 8.27414 20.4796 7.19424C13.5923 6.61209 14.8566 7.62964 13.4377 8.80683C12.5554 9.53895 12.4092 9.35028 12.4092 10.8113H12.4094Z" fill="white"/>
<path fill-rule="evenodd" clip-rule="evenodd" d="M11.6616 19.0314L11.7337 12.0913C10.7355 11.8726 9.05667 11.857 8.36122 12.1429C7.93486 13.7679 8.81607 16.0212 7.74238 16.1287C6.84315 16.2188 7.09236 15.9479 7.1187 13.7563C7.13053 12.7788 7.12918 11.7997 7.1058 10.823C8.25933 10.7026 9.34674 10.8107 10.4876 10.7835C12.0334 10.7467 11.8218 10.3142 11.671 8.69493L7.15177 8.59603C7.0144 7.80451 7.16682 7.73517 6.83643 7.19334L3.67987 7.19092C3.71105 9.12765 3.2769 15.7057 4.03445 16.7899C4.33097 17.214 6.16705 19.0215 6.64368 19.1102C7.3007 19.2324 10.9987 19.1601 11.6613 19.0314H11.6616Z" fill="white"/>
<path fill-rule="evenodd" clip-rule="evenodd" d="M89.214 15.0519C87.8623 15.1497 87.6077 14.8245 87.5077 13.5137C87.4308 12.5088 87.4779 11.3007 88.2978 10.9647C90.3014 10.1439 90.0449 13.8258 89.2142 15.0519H89.214ZM84.4912 17.4065L86.7792 17.3778L87.3935 16.5244C88.1672 17.3788 89.9054 17.9865 91.2737 17.1267C92.4756 16.3715 92.9224 14.7272 92.9337 13.0754C92.9552 9.87598 90.9745 6.68734 87.4134 9.75611L87.5037 5.43408L84.5536 5.43623L84.4912 17.4063V17.4065Z" fill="#1A1A1A"/>
<path fill-rule="evenodd" clip-rule="evenodd" d="M55.5117 17.4064L58.5559 17.3978C58.5094 15.6398 57.814 10.0398 60.5076 11.0359C61.4754 12.1058 61.0826 15.7094 61.0482 17.2949L64.0658 17.3852C63.9429 13.3881 65.1545 8.89246 61.3896 8.5428C59.8482 8.39955 59.1248 9.15397 58.4395 9.74472L58.5382 5.43506L55.5813 5.44124L55.5117 17.4072V17.4064Z" fill="#1A1A1A"/>
<path fill-rule="evenodd" clip-rule="evenodd" d="M97.4873 15.2754C96.8265 13.6999 97.8849 13.6112 99.4374 13.5091C99.4357 14.8828 99.007 15.6702 97.4873 15.2754ZM95.1033 9.19755C95.2974 9.98342 95.5988 10.7228 96.0644 11.2055C97.2284 10.8131 99.4094 9.82109 99.3793 11.8613C96.5437 11.9701 93.592 12.0537 94.2676 15.524C94.5047 16.7424 95.2695 17.418 96.5674 17.5124C98.5691 17.658 98.6922 17.153 99.6414 16.2978C100.137 16.73 100.082 16.7647 100.302 17.4062L102.46 17.3992C102.373 11.6874 104.156 6.81387 95.1033 9.19728V9.19755Z" fill="#1A1A1A"/>
<path fill-rule="evenodd" clip-rule="evenodd" d="M79.458 13.5817C79.4424 14.2026 79.4394 14.7748 79.0711 15.1032C78.688 15.4448 77.8539 15.6308 77.4383 15.1701C76.371 13.9876 78.3708 13.5065 79.4582 13.5817H79.458ZM75.0911 9.17155L75.9006 11.2728C76.9108 10.9567 77.9641 10.5546 79.1784 10.7715L79.4442 11.8017C76.6678 12.1809 73.6392 12.0119 74.2658 15.5631C74.682 17.9218 77.5044 18.2303 79.8104 16.2984L80.3897 17.3743L82.4535 17.3883C82.372 15.1124 83.071 11.2677 81.7962 9.6814C80.2892 7.80595 77.3006 8.76114 75.0911 9.17182V9.17155Z" fill="#1A1A1A"/>
<path fill-rule="evenodd" clip-rule="evenodd" d="M39.9691 11.886C40.4071 10.1259 42.2754 10.0442 42.5824 11.9236L41.7122 11.9406L40.8055 11.9516L39.9691 11.8863V11.886ZM44.7424 17.0063L44.7276 14.8317C43.2246 15.2512 40.017 16.2226 39.9823 13.8367L45.3263 13.8297C45.2484 11.1579 45.1169 9.43783 42.8528 8.75275C36.7865 6.91734 35.3781 14.3111 38.2486 16.5478C39.9686 17.8878 42.6174 17.521 44.7427 17.0063H44.7424Z" fill="#1A1A1A"/>
<path fill-rule="evenodd" clip-rule="evenodd" d="M35.6839 17.1753L35.7022 14.9478C34.7242 15.1289 34.6352 15.306 33.6779 14.9975C33.1841 13.9853 33.3252 12.1569 33.4806 10.9593L35.6089 10.9117L35.6105 8.69035L33.4658 8.67342L33.4228 6.92725L31.4023 6.9337C30.3081 10.1876 28.461 9.49208 29.72 10.7736C30.1544 11.2159 30.4012 9.52487 30.377 13.5332C30.3509 17.8469 31.9432 17.8244 35.6841 17.175L35.6839 17.1753Z" fill="#1A1A1A"/>
<path fill-rule="evenodd" clip-rule="evenodd" d="M53.7161 16.9054L53.7599 14.5169C48.6307 16.6936 49.624 12.2442 50.0009 11.615C50.7208 10.4125 52.116 11.0345 53.3158 11.3787L54.0183 9.24581C52.3782 8.14468 46.8344 7.60419 46.6452 12.8462C46.4841 17.3088 49.8808 18.3898 53.7158 16.9054H53.7161Z" fill="#1A1A1A"/>
<path fill-rule="evenodd" clip-rule="evenodd" d="M72.855 16.6984L72.8983 14.4993C71.9241 14.8845 70.9329 15.2761 69.62 15.0398C68.9092 14.4096 68.4043 13.0547 69.0675 11.662C69.7073 10.3184 71.0488 11.1277 72.2846 11.2706L73.2145 9.20598C70.4036 7.80894 65.7588 8.26073 65.7559 13.0762C65.7524 18.5187 71.3155 17.9868 72.8553 16.6986L72.855 16.6984Z" fill="#1A1A1A"/>
<path fill-rule="evenodd" clip-rule="evenodd" d="M104.537 17.4466L107.431 17.3974L107.389 5.46826L104.575 5.48869L104.537 17.4466Z" fill="#1A1A1A"/>
<path fill-rule="evenodd" clip-rule="evenodd" d="M104.536 17.4464L104.574 5.48848L107.388 5.46806L107.43 17.3972L107.613 17.3881V5.43043C106.611 5.16435 105.461 5.20144 104.429 5.36431L104.536 17.4464Z" fill="#1A1A1A"/>
</svg>
