<svg width="94" height="19" viewBox="0 0 94 19" fill="none" xmlns="http://www.w3.org/2000/svg">
<path fill-rule="evenodd" clip-rule="evenodd" d="M38.4054 12.6005L38.4033 10.2698C34.6962 10.1115 28.9638 11.2481 28.9628 6.84492C28.9615 2.05343 34.3019 3.82085 38.2888 3.26556L38.3797 0.946206C34.7556 1.01633 26.6869 -0.524854 26.4618 6.53006C26.2186 14.1531 35.3554 12.5754 38.4054 12.6006V12.6005Z" fill="black"/>
<path fill-rule="evenodd" clip-rule="evenodd" d="M52.3673 6.83429C52.3673 13.9984 61.0664 12.5758 64.2545 12.6008V10.2236C61.3041 10.2506 57.1288 10.9077 55.5414 8.88276C53.7496 6.59679 55.3033 3.37265 58.5359 3.37265H64.2545L64.1742 0.943792C60.4349 1.01837 52.3672 -0.544104 52.3672 6.83429H52.3673Z" fill="black"/>
<path fill-rule="evenodd" clip-rule="evenodd" d="M25.386 12.4641L25.3799 10.3484C22.4583 9.90261 16.0864 11.5807 16.036 6.82929C15.9858 2.0801 21.6153 3.73607 25.3982 3.27763L25.3511 1.01392C19.3707 0.570502 13.7938 0.688766 13.5077 6.52459C13.2131 12.53 19.6864 13.4223 25.386 12.4641Z" fill="black"/>
<path fill-rule="evenodd" clip-rule="evenodd" d="M86.5701 10.6741C86.3293 12.982 86.653 12.5721 89.0605 12.6002L89.1042 10.6817C93.6362 9.2115 93.8096 6.42604 93.5821 1.05354L91.3288 0.9375C91.0971 2.74944 92.1445 8.34804 87.7988 8.32953C83.8 8.31256 84.6498 4.40262 84.2494 0.945431L81.9541 0.976736C81.6548 5.19276 81.7454 9.48351 86.5701 10.6742V10.6741Z" fill="black"/>
<path fill-rule="evenodd" clip-rule="evenodd" d="M0.615234 3.37167L5.25216 3.40451L5.23811 12.5928L7.82941 12.5697L7.80631 3.37209H12.3674L12.2956 0.947266L0.723756 0.959788L0.615234 3.37167Z" fill="black"/>
<path fill-rule="evenodd" clip-rule="evenodd" d="M68.873 3.37169L73.6415 3.37197L73.8467 12.6017L75.9186 12.5826L76.0363 3.37197L80.8171 3.3518L80.7536 1.00239L68.9863 0.956055L68.873 3.37169Z" fill="black"/>
<path fill-rule="evenodd" clip-rule="evenodd" d="M39.3271 12.6003L41.9151 12.5954L41.9339 7.90519L47.5475 7.87069V5.50249L41.9592 5.50166L41.871 0.944336L39.4245 0.956023L39.3271 12.6003Z" fill="black"/>
<path fill-rule="evenodd" clip-rule="evenodd" d="M65.4606 0.992697C65.42 1.15479 65.3772 1.18929 65.3656 1.32217L65.1748 12.4933L67.763 12.6134L67.7391 0.94873L65.4606 0.992558V0.992697Z" fill="black"/>
<path fill-rule="evenodd" clip-rule="evenodd" d="M48.8037 12.5895L51.2985 12.5918L51.2543 0.971244L48.8965 0.964844L48.8037 12.5895Z" fill="black"/>
<path fill-rule="evenodd" clip-rule="evenodd" d="M19.125 5.88978L19.1246 7.87981L25.387 7.83932L25.3749 6.8338L25.3839 5.62793L19.123 5.49756L19.125 5.88978Z" fill="black"/>
<path d="M38.4129 18.8494C39.4328 18.8494 40.2595 18.0227 40.2595 17.0028C40.2595 15.983 39.4328 15.1562 38.4129 15.1562C37.3931 15.1562 36.5664 15.983 36.5664 17.0028C36.5664 18.0227 37.3931 18.8494 38.4129 18.8494Z" fill="#999999"/>
<path d="M47.204 18.7366C48.2238 18.7366 49.0505 17.9099 49.0505 16.89C49.0505 15.8702 48.2238 15.0435 47.204 15.0435C46.1841 15.0435 45.3574 15.8702 45.3574 16.89C45.3574 17.9099 46.1841 18.7366 47.204 18.7366Z" fill="#999999"/>
<path d="M55.829 18.8035C56.8488 18.8035 57.6755 17.9768 57.6755 16.9569C57.6755 15.9371 56.8488 15.1104 55.829 15.1104C54.8091 15.1104 53.9824 15.9371 53.9824 16.9569C53.9824 17.9768 54.8091 18.8035 55.829 18.8035Z" fill="#999999"/>
</svg>
