<svg width="36" height="41" viewBox="0 0 36 41" fill="none" xmlns="http://www.w3.org/2000/svg">
<path fill-rule="evenodd" clip-rule="evenodd" d="M35.46 10.74L35.18 10.24C34.8188 9.63538 34.3094 9.13286 33.7 8.78L20.28 1.04C19.6724 0.6875 18.9826 0.50124 18.28 0.5H17.7C16.9974 0.50124 16.3076 0.6875 15.7 1.04L2.28 8.8C1.67394 9.15052 1.17052 9.65394 0.82 10.26L0.54 10.76C0.1875 11.3677 0.00124 12.0575 0 12.76V28.26C0.00124 28.9626 0.1875 29.6524 0.54 30.26L0.82 30.76C1.17958 31.359 1.68098 31.8604 2.28 32.22L15.72 39.96C16.3246 40.3198 17.0164 40.5066 17.72 40.5H18.28C18.9826 40.4988 19.6724 40.3126 20.28 39.96L33.7 32.2C34.312 31.8574 34.8174 31.352 35.16 30.74L35.46 30.24C35.8082 29.6306 35.9942 28.942 36 28.24V12.74C35.9988 12.0375 35.8126 11.3477 35.46 10.74ZM17.7 4.5H18.28L30 11.26L18 18.18L6 11.26L17.7 4.5ZM20 35.5L31.7 28.74L32 28.24V14.72L20 21.66V35.5Z" fill="black"/>
</svg>
