<svg width="174" height="42" viewBox="0 0 174 42" fill="none" xmlns="http://www.w3.org/2000/svg">
<path fill-rule="evenodd" clip-rule="evenodd" d="M46.4935 1.041C45.9749 1.05107 45.7081 1.04855 45.3104 1.31285L45.1644 1.41606C44.5955 1.78356 44.3765 2.24168 43.9562 2.90118C43.9486 2.91376 43.9411 2.92887 43.9335 2.94145C43.8781 3.02955 43.9209 2.97669 43.863 3.05221C43.571 3.43985 43.0147 4.55495 42.8159 4.66067C42.7504 4.9879 41.361 6.9689 41.0111 7.55288C40.9104 7.72153 40.8424 7.83984 40.7216 8.011L40.0923 8.93983C39.969 9.14624 39.8733 9.25196 39.7651 9.42313L38.869 10.8353C38.504 11.4998 38.0408 12.1291 37.6154 12.7634C37.4921 12.9471 37.4141 13.0655 37.2907 13.2492L34.8264 17.0174C34.766 17.1055 34.7484 17.1483 34.683 17.2464L29.0395 26.0011C29.0319 26.0112 29.0194 26.0263 29.0118 26.0364C28.886 26.21 28.7853 26.3434 28.6745 26.5096L25.5709 31.262C25.2562 31.7327 25.0171 32.2235 24.6823 32.6791L23.751 34.1164C23.5848 34.3807 23.1896 34.8212 23.1141 35.1006H22.8649C22.8347 34.7231 22.5931 34.4437 22.4018 34.129C22.2784 33.9226 22.2256 33.8697 22.1249 33.6583L20.2446 30.4288C20.1565 30.2702 20.0835 30.1217 19.9803 29.9455L17.7979 26.205C17.7274 26.0917 17.7098 26.0741 17.6494 25.9785L17.2592 25.3089C17.1636 25.1402 17.1006 24.9968 16.9949 24.8231L10.3647 13.3751C10.2968 13.2618 10.2766 13.2492 10.2137 13.151L8.8796 10.805C8.71347 10.4703 8.51965 10.1607 8.3359 9.85356C7.60592 8.63778 6.8105 7.38172 6.15856 6.11055C6.05787 5.91673 6.0176 5.82863 5.88419 5.63733C5.75581 5.45357 5.66519 5.3982 5.66016 5.11376C5.93201 4.98287 7.01943 4.83687 7.29128 5.10369C7.34666 5.15907 7.58075 5.57943 7.64368 5.68515L8.26793 6.74488C8.30317 6.80529 8.31828 6.84304 8.35604 6.90849L9.38052 8.75105C10.0601 9.99452 10.843 11.1398 11.4471 12.4185C11.4924 12.5142 11.5453 12.6098 11.6006 12.7005L12.8391 14.8275C13.0908 15.2403 13.3098 15.6128 13.5464 16.0533L15.9125 20.2947C16.1466 20.7604 16.3732 21.2814 16.7482 21.6414L17.4505 22.1247C17.813 22.2959 18.2686 22.3034 18.6864 22.3764C19.1823 22.3336 19.8997 21.8252 20.1892 21.4551C20.3201 21.289 20.3276 21.1279 20.3931 20.8913C20.6322 20.0405 20.3931 19.7636 20.2018 19.2023C20.0608 18.7895 19.8368 18.6863 19.9123 18.4547C19.7009 18.427 19.7109 18.3565 19.6002 18.1652C19.4793 17.9588 19.4441 17.9538 19.3308 17.7499C19.1622 17.4453 19.0313 17.2137 18.8551 16.9167L16.9672 13.5664C16.7835 13.2693 16.6702 13.0327 16.4789 12.7458C16.1139 12.1996 15.8899 11.6005 15.5677 11.0391C15.0945 10.2211 14.5407 9.41306 14.1153 8.56478L13.4407 7.30872C12.9599 6.28675 11.7089 4.48699 11.2634 3.50278C11.0343 3.00187 10.7347 2.56136 10.41 2.11079C9.73292 1.16938 10.1055 1.00073 8.5272 1.00073C7.51027 1.00073 6.87091 1.12658 5.97229 1.12658L3.41738 1.18951C3.18328 1.19203 1.52447 1.22475 1.30296 1.32041C0.278482 1.76846 -0.484216 3.21582 0.366583 4.61536L0.859947 5.43092C0.955599 5.59957 1.00594 5.70529 1.11166 5.86387C1.7485 6.81284 2.45834 8.16455 3.0247 9.18652C3.48282 10.0121 4.06428 10.8202 4.4771 11.6609C4.62309 11.9579 4.76405 12.2096 4.94025 12.5066L10.254 21.6565C10.5888 22.2757 11.067 22.8572 11.3363 23.5041C11.4068 23.6753 11.3439 23.5469 11.4345 23.7181L12.2073 25.0018C12.5295 25.5631 12.8492 26.0741 13.1663 26.6606L13.637 27.4988C13.7201 27.67 13.7478 27.7405 13.8485 27.9116C13.9466 28.0803 14.002 28.1684 14.1052 28.3396L18.0043 34.9773C18.1654 35.2542 18.2837 35.5663 18.4448 35.8457L19.1723 37.0514C19.2729 37.2226 19.3132 37.3283 19.4139 37.4944C19.8619 38.2219 20.378 39.2992 20.9519 39.8832C21.264 40.2004 21.1533 40.2835 21.5837 40.5603C21.7347 40.6585 21.8077 40.7139 21.9587 40.807C22.0519 40.8649 22.0619 40.875 22.1526 40.9253C22.359 41.0336 22.1903 40.9555 22.4219 41.0285L22.9002 41.177C23.104 41.2123 23.2551 41.177 23.4539 41.1091L23.6855 41.0285C23.8516 40.9757 23.7686 41.0159 23.9196 40.9505C24.0958 40.875 24.1839 40.797 24.34 40.6862C24.5061 40.5679 24.5539 40.5327 24.6722 40.3942C24.9919 40.0242 25.1983 39.551 25.4727 39.1382L25.7043 38.7455C26.1095 38.0835 26.6457 37.4592 27.0484 36.7846L35.3223 23.9899C35.7578 23.3354 36.226 22.7213 36.601 22.0265L38.7003 18.8272C38.9521 18.281 39.6241 17.332 39.9841 16.8059L41.5271 14.4222C42.106 13.4783 42.8033 12.6073 43.3671 11.6483L48.2681 4.0188C49.1365 2.50095 47.9257 1.29775 46.4935 1.03597V1.041Z" fill="#EA2332"/>
<path fill-rule="evenodd" clip-rule="evenodd" d="M17.818 4.68584L42.8134 4.65815C43.0122 4.55243 43.566 3.43733 43.8605 3.04969C43.9184 2.97166 43.8756 3.02704 43.931 2.93894C43.9385 2.92635 43.9461 2.91125 43.9536 2.89866C44.374 2.23917 44.593 1.78105 45.1619 1.41354L45.3079 1.31034C45.7056 1.04604 45.9699 1.05107 46.4909 1.03848C46.0378 0.779217 45.5118 0.877386 44.7465 0.877386C34.9196 0.877386 25.0951 0.877386 15.2681 0.877386L15.4796 1.03093C15.6331 1.17441 15.4922 1.06114 15.6734 1.20713C15.8622 1.35816 15.7263 1.24237 15.8723 1.3934L15.9704 1.48906C16.2448 1.74581 17.0301 3.41216 17.1837 3.7117C17.2718 3.8879 17.6645 4.63298 17.8205 4.68836L17.818 4.68584Z" fill="#120F96"/>
<path fill-rule="evenodd" clip-rule="evenodd" d="M22.369 16.7229C22.5956 16.6373 22.8649 16.1892 22.9857 15.9526C23.1821 15.565 23.1594 15.2076 23.0738 14.7721C23.0008 14.392 22.8221 14.1025 22.6761 13.7979C22.4924 13.4153 22.213 13.0302 22.1928 12.849L21.6693 12.051C21.4981 11.7691 21.3194 11.5023 21.2464 11.1574C21.0047 10.8957 20.4182 9.59681 20.2219 9.18903C19.9954 8.71833 19.2729 7.7467 19.1823 7.30117L18.9382 7.05197C18.8752 6.94121 18.835 6.84808 18.762 6.72726L18.0647 5.36799C17.9514 5.12131 17.6972 4.92749 17.8155 4.68836C17.6594 4.63298 17.2693 3.8879 17.1787 3.7117C17.0276 3.41216 16.2398 1.7458 15.9654 1.48906L15.8672 1.3934C15.7212 1.24237 15.8572 1.35816 15.6684 1.20713C15.4871 1.06114 15.6281 1.17693 15.4746 1.03093L15.2631 0.877386C14.5633 0.932764 15.0919 0.832077 14.513 0.81194C13.8082 0.786769 13.6622 0.927729 13.0656 1.23986C12.3784 1.59981 11.9531 2.41033 12.1041 3.095C12.2199 3.63115 13.0581 5.00552 13.3929 5.60964L15.4292 9.37027C15.6961 9.7705 16.3102 11.1172 16.7533 11.8497C16.8842 12.0661 16.9647 12.2021 17.088 12.4487L18.1075 14.2963C18.4473 15.0314 18.9961 16.2346 19.5549 16.7153C19.5649 16.7229 19.5775 16.7355 19.5876 16.7455L19.9224 16.9721C20.6901 17.3874 21.3395 17.2213 22.0317 16.8739C22.2432 16.7682 22.1576 16.7556 22.364 16.7204L22.369 16.7229Z" fill="#EA2332"/>
<path fill-rule="evenodd" clip-rule="evenodd" d="M19.1848 7.29865C19.2755 7.74167 19.9954 8.71581 20.2244 9.18652C20.4208 9.5943 21.0073 10.8931 21.2489 11.1549C21.6441 11.379 29.0622 11.165 30.1622 11.165C30.9022 11.165 34.2475 11.2556 34.6704 11.1222C35.0807 10.9938 35.4633 10.8126 35.7351 10.503C36.2562 9.91146 36.3846 8.97508 36.0674 8.25014L35.5766 7.62085C34.7862 6.9538 33.7969 7.1149 32.6541 7.1149L25.9207 7.17783C25.1354 7.17783 24.5061 7.24076 23.678 7.24076C22.6233 7.24076 19.9803 7.12497 19.1848 7.30368V7.29865Z" fill="#120F96"/>
<path fill-rule="evenodd" clip-rule="evenodd" d="M38.8866 20.2016C38.8866 21.2638 39.3019 22.1121 40.3843 22.3814C40.6813 22.4544 41.0614 22.4469 41.4415 22.4469C42.169 22.4469 42.8964 22.4469 43.6239 22.4469C44.4344 22.4469 45.036 22.384 45.8063 22.384L51.3465 22.3764C52.3056 22.2782 53.0985 21.5734 53.0985 20.7629C53.0985 20.0027 53.1916 19.7007 52.8065 19.1847C52.6429 18.9657 52.4893 18.7618 52.2477 18.6208C51.6914 18.2961 51.1401 18.3313 50.2918 18.3313L43.7472 18.3943C42.9543 18.3943 42.3754 18.4572 41.5649 18.4572C40.5656 18.4572 39.7802 18.4144 39.1685 19.3634C39.0527 19.5421 39.0704 19.5597 39.0074 19.7636C38.9546 19.9448 38.8841 20.0204 38.8841 20.2016H38.8866Z" fill="#120F96"/>
<path fill-rule="evenodd" clip-rule="evenodd" d="M22.1928 12.8465C22.213 13.0302 22.4924 13.4153 22.6761 13.7954C22.8221 14.1 23.0008 14.3895 23.0738 14.7696C23.1569 15.205 23.1821 15.565 22.9857 15.9501C22.8649 16.1867 22.5956 16.6348 22.369 16.7204C22.505 16.9318 23.6377 16.8336 23.9272 16.8336C24.5011 16.8336 25.153 16.8538 25.6262 16.7883C27.0484 16.5945 31.2168 16.9746 32.3898 16.6952C33.2104 16.4989 33.4999 16.0835 33.7793 15.4668C34.172 14.5984 33.7592 13.5613 33.0015 13.0579C32.2413 12.5545 29.8752 12.63 28.9841 12.7282C28.0024 12.8389 25.1656 12.7835 23.8642 12.781C23.2299 12.781 22.8347 12.8439 22.1928 12.8439V12.8465Z" fill="#120F96"/>
<path fill-rule="evenodd" clip-rule="evenodd" d="M42.1287 14.5304C42.1287 15.3636 42.1136 16.1389 43.1104 16.665C44.1223 17.1986 45.26 16.894 46.3047 16.8991L52.2049 16.816C53.5138 16.5744 54.0525 14.7822 53.3854 13.7451C53.1538 13.3851 52.4214 12.8465 51.8525 12.8465L44.1827 12.9069C43.42 12.9144 42.7202 13.2895 42.388 13.8558C42.3175 13.9767 42.1287 14.3769 42.1287 14.5304Z" fill="#120F96"/>
<path fill-rule="evenodd" clip-rule="evenodd" d="M19.9173 18.4572C19.8443 18.6888 20.0684 18.792 20.2068 19.2048C20.3981 19.7661 20.6372 20.043 20.3981 20.8938C20.3327 21.1279 20.3251 21.289 20.1942 21.4576C19.9047 21.8251 19.1874 22.3361 18.6915 22.3789C18.8903 22.5199 21.6517 22.457 21.8002 22.4393C24.126 22.1776 28.2718 22.8496 29.3969 21.9334C30.0212 21.4274 30.0992 20.9542 30.1017 20.2016C30.1043 19.5597 29.7267 18.9833 29.2031 18.6686C28.4429 18.213 27.4562 18.3339 26.2983 18.3339C25.1606 18.3339 24.2443 18.3968 23.1192 18.3968C22.1375 18.3968 20.7757 18.286 19.9198 18.4597L19.9173 18.4572Z" fill="#120F96"/>
<path fill-rule="evenodd" clip-rule="evenodd" d="M47.9257 8.4213C47.9257 8.99773 48.0188 9.6094 48.4367 10.0298C49.1767 10.7723 50.2138 10.6037 51.2912 10.6037C52.0815 10.6037 52.9676 9.9618 53.0909 9.16386C53.2268 8.29544 53.0783 7.30368 52.2955 6.85815C51.5857 6.45289 50.9111 6.55609 50.2264 6.61398C49.6928 6.65678 49.1037 6.48057 48.3788 7.19796C48.1447 7.42954 47.9232 8.15197 47.9232 8.42382L47.9257 8.4213Z" fill="#120F96"/>
<path d="M63.6504 30.6306V25.4402H64.5289V30.6306H63.6504ZM61.9111 26.0897V25.2892H66.2683V26.0897H61.9111Z" fill="#1A1A1A"/>
<path d="M67.9951 30.6306V25.2867H68.8735V30.6306H67.9951ZM68.5992 30.6306V29.8302H71.5921V30.6306H68.5992ZM68.5992 28.2872V27.5169H71.3328V28.2872H68.5992ZM68.5992 26.0897V25.2892H71.5543V26.0897H68.5992Z" fill="#1A1A1A"/>
<path d="M75.7831 30.7087C75.3955 30.7087 75.038 30.6382 74.7108 30.4998C74.3836 30.3588 74.0966 30.165 73.8525 29.9133C73.6083 29.6615 73.4195 29.3696 73.2886 29.0348C73.1552 28.7025 73.0898 28.3451 73.0898 27.9625C73.0898 27.5799 73.1552 27.2224 73.2886 26.8902C73.422 26.5579 73.6083 26.2659 73.8525 26.0167C74.0966 25.7675 74.3836 25.5712 74.7108 25.4302C75.038 25.2867 75.3955 25.2162 75.7831 25.2162C76.2161 25.2162 76.5886 25.2867 76.9058 25.4302C77.2204 25.5737 77.4998 25.765 77.7465 26.0091L77.1525 26.6057C76.9939 26.432 76.8026 26.2986 76.576 26.2005C76.3495 26.1048 76.0852 26.0545 75.7856 26.0545C75.5213 26.0545 75.2797 26.0998 75.0607 26.1929C74.8417 26.2835 74.6529 26.4144 74.4918 26.5856C74.3307 26.7567 74.2074 26.9581 74.1218 27.1922C74.0362 27.4263 73.9909 27.6831 73.9909 27.9625C73.9909 28.2419 74.0337 28.4986 74.1218 28.7327C74.2074 28.9668 74.3307 29.1682 74.4918 29.3393C74.6529 29.5105 74.8417 29.6414 75.0607 29.732C75.2797 29.8226 75.5213 29.8705 75.7856 29.8705C76.1104 29.8705 76.3872 29.8201 76.6138 29.722C76.8403 29.6238 77.0316 29.4853 77.1902 29.3142L77.7843 29.9082C77.5401 30.1574 77.2531 30.3538 76.9209 30.4947C76.5911 30.6382 76.211 30.7087 75.7831 30.7087Z" fill="#1A1A1A"/>
<path d="M79.5337 30.6306V25.2867H80.4122V30.6306H79.5337ZM82.9293 30.6306V25.2867H83.8078V30.6306H82.9293ZM80.1353 28.2645V27.464H83.1206V28.2645H80.1353Z" fill="#1A1A1A"/>
<path d="M85.9323 30.6306V25.2867H86.544L86.8108 26.2936V30.6281H85.9323V30.6306ZM89.635 30.6306L86.4382 26.4547L86.544 25.2867L89.7433 29.4627L89.635 30.6306ZM89.635 30.6306L89.3682 29.6917V25.2867H90.2467V30.6306H89.635Z" fill="#1A1A1A"/>
<path d="M94.8279 30.7087C94.4453 30.7087 94.0904 30.6382 93.7581 30.4947C93.4284 30.3512 93.1364 30.1549 92.8872 29.9032C92.638 29.6515 92.4442 29.3595 92.3032 29.0247C92.1622 28.6924 92.0943 28.335 92.0943 27.9524C92.0943 27.5698 92.1648 27.2149 92.3032 26.8851C92.4442 26.5554 92.6355 26.2634 92.8822 26.0117C93.1288 25.76 93.4158 25.5636 93.7455 25.4252C94.0728 25.2842 94.4277 25.2162 94.8103 25.2162C95.1929 25.2162 95.5478 25.2867 95.8751 25.4252C96.2023 25.5661 96.4918 25.76 96.741 26.0117C96.9902 26.2634 97.184 26.5554 97.3249 26.8902C97.4659 27.2224 97.5339 27.5799 97.5339 27.9625C97.5339 28.3451 97.4634 28.7025 97.3249 29.0348C97.184 29.367 96.9927 29.659 96.746 29.9082C96.4993 30.1574 96.2124 30.3538 95.8826 30.4947C95.5554 30.6382 95.203 30.7087 94.8254 30.7087H94.8279ZM94.8128 29.8679C95.1753 29.8679 95.4899 29.7874 95.7618 29.6238C96.0336 29.4602 96.2476 29.2361 96.4037 28.9492C96.5597 28.6622 96.6352 28.33 96.6352 27.9524C96.6352 27.673 96.5899 27.4162 96.5018 27.1847C96.4137 26.9531 96.2879 26.7517 96.1242 26.5805C95.9606 26.4094 95.7693 26.2785 95.5478 26.1879C95.3263 26.0973 95.0796 26.0494 94.8103 26.0494C94.4554 26.0494 94.1407 26.13 93.8689 26.2911C93.597 26.4522 93.3831 26.6737 93.227 26.9581C93.0709 27.2426 92.9954 27.5748 92.9954 27.9499C92.9954 28.2293 93.0407 28.4885 93.1288 28.7252C93.2169 28.9618 93.3428 29.1631 93.5039 29.3318C93.665 29.5004 93.8563 29.6313 94.0803 29.7245C94.3043 29.8176 94.5485 29.8654 94.8128 29.8654V29.8679Z" fill="#1A1A1A"/>
<path d="M99.394 30.6306V25.2867H100.273V30.6306H99.394ZM99.9982 30.6306V29.8302H102.792V30.6306H99.9982Z" fill="#1A1A1A"/>
<path d="M106.603 30.7087C106.221 30.7087 105.866 30.6382 105.533 30.4947C105.204 30.3512 104.912 30.1549 104.662 29.9032C104.413 29.6515 104.219 29.3595 104.078 29.0247C103.938 28.6924 103.87 28.335 103.87 27.9524C103.87 27.5698 103.94 27.2149 104.078 26.8851C104.219 26.5554 104.411 26.2634 104.657 26.0117C104.904 25.76 105.191 25.5636 105.521 25.4252C105.848 25.2842 106.203 25.2162 106.586 25.2162C106.968 25.2162 107.323 25.2867 107.65 25.4252C107.978 25.5661 108.267 25.76 108.516 26.0117C108.765 26.2634 108.959 26.5554 109.1 26.8902C109.241 27.2224 109.309 27.5799 109.309 27.9625C109.309 28.3451 109.239 28.7025 109.1 29.0348C108.959 29.367 108.768 29.659 108.521 29.9082C108.275 30.1574 107.988 30.3538 107.658 30.4947C107.331 30.6382 106.978 30.7087 106.601 30.7087H106.603ZM106.588 29.8679C106.951 29.8679 107.265 29.7874 107.537 29.6238C107.809 29.4602 108.023 29.2361 108.179 28.9492C108.335 28.6622 108.41 28.33 108.41 27.9524C108.41 27.673 108.365 27.4162 108.277 27.1847C108.189 26.9531 108.063 26.7517 107.9 26.5805C107.736 26.4094 107.545 26.2785 107.323 26.1879C107.102 26.0973 106.855 26.0494 106.586 26.0494C106.231 26.0494 105.916 26.13 105.644 26.2911C105.372 26.4522 105.158 26.6737 105.002 26.9581C104.846 27.2426 104.771 27.5748 104.771 27.9499C104.771 28.2293 104.816 28.4885 104.904 28.7252C104.992 28.9618 105.118 29.1631 105.279 29.3318C105.44 29.5004 105.632 29.6313 105.856 29.7245C106.08 29.8176 106.324 29.8654 106.588 29.8654V29.8679Z" fill="#1A1A1A"/>
<path d="M113.641 30.7087C113.274 30.7087 112.929 30.6382 112.604 30.4947C112.279 30.3512 111.992 30.1549 111.748 29.9032C111.504 29.6515 111.313 29.3595 111.172 29.0247C111.031 28.6924 110.963 28.335 110.963 27.9524C110.963 27.5698 111.033 27.2149 111.172 26.8851C111.313 26.5554 111.504 26.2634 111.751 26.0117C111.997 25.76 112.287 25.5636 112.622 25.4252C112.954 25.2842 113.314 25.2162 113.702 25.2162C114.124 25.2162 114.515 25.2968 114.877 25.4604C115.24 25.624 115.542 25.8556 115.786 26.1551L115.192 26.7492C115.033 26.5252 114.822 26.354 114.557 26.2332C114.293 26.1124 114.009 26.0545 113.702 26.0545C113.334 26.0545 113.014 26.135 112.735 26.2961C112.458 26.4572 112.242 26.6787 112.091 26.9632C111.937 27.2476 111.861 27.5799 111.861 27.9549C111.861 28.3325 111.94 28.6622 112.093 28.9517C112.249 29.2387 112.458 29.4652 112.722 29.6263C112.987 29.7899 113.286 29.8705 113.624 29.8705C113.978 29.8705 114.286 29.805 114.542 29.6766C114.799 29.5458 114.995 29.3545 115.134 29.0977C115.272 28.841 115.34 28.5238 115.34 28.1487L115.889 28.5464H113.606V27.746H116.246V27.8693C116.246 28.5062 116.133 29.0348 115.907 29.4577C115.68 29.8805 115.37 30.1952 114.98 30.4041C114.588 30.613 114.14 30.7162 113.636 30.7162L113.641 30.7087Z" fill="#1A1A1A"/>
<path d="M119.431 28.4936L117.346 25.2892H118.361L119.987 27.8466H119.514L121.14 25.2892H122.139L120.04 28.4936H119.428H119.431ZM119.307 30.6306V27.9448H120.186V30.6306H119.307Z" fill="#1A1A1A"/>
<path d="M126.652 30.7087C126.229 30.7087 125.872 30.6331 125.575 30.4796C125.28 30.326 125.016 30.102 124.782 29.8075L125.376 29.2109C125.525 29.4249 125.698 29.591 125.902 29.7119C126.106 29.8327 126.365 29.8906 126.68 29.8906C126.975 29.8906 127.211 29.8302 127.387 29.7068C127.564 29.5835 127.652 29.4174 127.652 29.2034C127.652 29.0247 127.606 28.8812 127.513 28.7679C127.423 28.6547 127.302 28.564 127.151 28.4885C127 28.4155 126.836 28.3476 126.655 28.2897C126.474 28.2318 126.292 28.1638 126.114 28.0908C125.932 28.0178 125.769 27.9247 125.618 27.8114C125.467 27.7007 125.346 27.5547 125.255 27.3759C125.165 27.1972 125.117 26.9707 125.117 26.6963C125.117 26.3817 125.195 26.1123 125.348 25.8908C125.504 25.6693 125.713 25.5007 125.978 25.3824C126.242 25.264 126.537 25.2062 126.864 25.2062C127.216 25.2062 127.528 25.2741 127.808 25.4126C128.085 25.551 128.311 25.7247 128.482 25.9386L127.886 26.5352C127.732 26.3615 127.574 26.2332 127.41 26.1501C127.244 26.067 127.055 26.0242 126.841 26.0242C126.577 26.0242 126.37 26.0771 126.219 26.1853C126.068 26.2936 125.995 26.4421 125.995 26.6359C125.995 26.7995 126.041 26.9304 126.134 27.0286C126.224 27.1267 126.345 27.2123 126.496 27.2803C126.647 27.3483 126.811 27.4137 126.992 27.4741C127.173 27.5345 127.355 27.605 127.533 27.6805C127.715 27.756 127.878 27.8542 128.029 27.975C128.18 28.0933 128.301 28.2494 128.392 28.4357C128.482 28.6245 128.53 28.8611 128.53 29.1455C128.53 29.6238 128.361 30.0039 128.022 30.2833C127.684 30.5627 127.226 30.7036 126.652 30.7036V30.7087Z" fill="#1A1A1A"/>
<path d="M132.877 30.7087C132.495 30.7087 132.14 30.6382 131.807 30.4947C131.478 30.3512 131.186 30.1549 130.937 29.9032C130.687 29.6515 130.494 29.3595 130.353 29.0247C130.212 28.6924 130.144 28.335 130.144 27.9524C130.144 27.5698 130.214 27.2149 130.353 26.8851C130.494 26.5554 130.685 26.2634 130.931 26.0117C131.178 25.76 131.465 25.5636 131.795 25.4252C132.122 25.2842 132.477 25.2162 132.86 25.2162C133.242 25.2162 133.597 25.2867 133.924 25.4252C134.252 25.5661 134.541 25.76 134.79 26.0117C135.039 26.2634 135.233 26.5554 135.374 26.8902C135.515 27.2224 135.583 27.5799 135.583 27.9625C135.583 28.3451 135.513 28.7025 135.374 29.0348C135.233 29.367 135.042 29.659 134.795 29.9082C134.549 30.1574 134.262 30.3538 133.932 30.4947C133.605 30.6382 133.252 30.7087 132.875 30.7087H132.877ZM132.862 29.8679C133.225 29.8679 133.539 29.7874 133.811 29.6238C134.083 29.4602 134.297 29.2361 134.453 28.9492C134.609 28.6622 134.685 28.33 134.685 27.9524C134.685 27.673 134.639 27.4162 134.551 27.1847C134.463 26.9531 134.337 26.7517 134.174 26.5805C134.01 26.4094 133.819 26.2785 133.597 26.1879C133.376 26.0973 133.129 26.0494 132.86 26.0494C132.505 26.0494 132.19 26.13 131.918 26.2911C131.646 26.4522 131.432 26.6737 131.276 26.9581C131.12 27.2426 131.045 27.5748 131.045 27.9499C131.045 28.2293 131.09 28.4885 131.178 28.7252C131.266 28.9618 131.392 29.1631 131.553 29.3318C131.714 29.5004 131.906 29.6313 132.13 29.7245C132.354 29.8176 132.598 29.8654 132.862 29.8654V29.8679Z" fill="#1A1A1A"/>
<path d="M137.443 30.6306V25.2867H138.322V30.6306H137.443ZM138.047 30.6306V29.8302H140.842V30.6306H138.047Z" fill="#1A1A1A"/>
<path d="M144.484 30.7087C144.081 30.7087 143.721 30.618 143.399 30.4343C143.079 30.2505 142.825 30.0013 142.639 29.6817C142.452 29.3645 142.359 29.0045 142.359 28.6018V25.2892H143.238V28.5942C143.238 28.8535 143.293 29.0801 143.401 29.2688C143.51 29.4601 143.661 29.6087 143.847 29.7119C144.036 29.8151 144.247 29.8679 144.481 29.8679C144.72 29.8679 144.932 29.8151 145.116 29.7119C145.299 29.6087 145.443 29.4601 145.551 29.2688C145.657 29.0775 145.712 28.856 145.712 28.6018V25.2892H146.591V28.6093C146.591 29.0121 146.5 29.3695 146.316 29.6867C146.133 30.0013 145.883 30.2505 145.569 30.4343C145.254 30.618 144.892 30.7087 144.484 30.7087Z" fill="#1A1A1A"/>
<path d="M149.928 30.6306V25.4402H150.807V30.6306H149.928ZM148.189 26.0897V25.2892H152.546V26.0897H148.189Z" fill="#1A1A1A"/>
<path d="M154.273 30.6306V25.2892H155.152V30.6306H154.273Z" fill="#1A1A1A"/>
<path d="M159.733 30.7087C159.35 30.7087 158.995 30.6382 158.663 30.4947C158.333 30.3512 158.041 30.1549 157.792 29.9032C157.543 29.6515 157.349 29.3595 157.208 29.0247C157.067 28.6924 156.999 28.335 156.999 27.9524C156.999 27.5698 157.07 27.2149 157.208 26.8851C157.349 26.5554 157.54 26.2634 157.787 26.0117C158.034 25.76 158.321 25.5636 158.65 25.4252C158.978 25.2842 159.333 25.2162 159.715 25.2162C160.098 25.2162 160.453 25.2867 160.78 25.4252C161.107 25.5661 161.397 25.76 161.646 26.0117C161.895 26.2634 162.089 26.5554 162.23 26.8902C162.371 27.2224 162.439 27.5799 162.439 27.9625C162.439 28.3451 162.368 28.7025 162.23 29.0348C162.089 29.367 161.898 29.659 161.651 29.9082C161.404 30.1574 161.117 30.3538 160.787 30.4947C160.46 30.6382 160.108 30.7087 159.73 30.7087H159.733ZM159.718 29.8679C160.08 29.8679 160.395 29.7874 160.667 29.6238C160.938 29.4602 161.152 29.2361 161.309 28.9492C161.465 28.6622 161.54 28.33 161.54 27.9524C161.54 27.673 161.495 27.4162 161.407 27.1847C161.319 26.9531 161.193 26.7517 161.029 26.5805C160.865 26.4094 160.674 26.2785 160.453 26.1879C160.231 26.0973 159.984 26.0494 159.715 26.0494C159.36 26.0494 159.046 26.13 158.774 26.2911C158.502 26.4522 158.288 26.6737 158.132 26.9581C157.976 27.2426 157.9 27.5748 157.9 27.9499C157.9 28.2293 157.946 28.4885 158.034 28.7252C158.122 28.9618 158.248 29.1631 158.409 29.3318C158.57 29.5004 158.761 29.6313 158.985 29.7245C159.209 29.8176 159.453 29.8654 159.718 29.8654V29.8679Z" fill="#1A1A1A"/>
<path d="M164.301 30.6306V25.2867H164.913L165.18 26.2936V30.6281H164.301V30.6306ZM168.004 30.6306L164.807 26.4547L164.913 25.2867L168.112 29.4627L168.004 30.6306ZM168.004 30.6306L167.737 29.6917V25.2867H168.616V30.6306H168.004Z" fill="#1A1A1A"/>
<path d="M172.12 30.7087C171.697 30.7087 171.339 30.6331 171.042 30.4796C170.748 30.326 170.484 30.102 170.249 29.8075L170.843 29.2109C170.992 29.4249 171.166 29.591 171.37 29.7119C171.573 29.8327 171.833 29.8906 172.147 29.8906C172.442 29.8906 172.678 29.8302 172.855 29.7068C173.031 29.5835 173.119 29.4174 173.119 29.2034C173.119 29.0247 173.074 28.8812 172.981 28.7679C172.89 28.6547 172.769 28.564 172.618 28.4885C172.467 28.4155 172.303 28.3476 172.122 28.2897C171.941 28.2318 171.76 28.1638 171.581 28.0908C171.4 28.0178 171.236 27.9247 171.085 27.8114C170.934 27.7007 170.813 27.5547 170.723 27.3759C170.632 27.1972 170.584 26.9707 170.584 26.6963C170.584 26.3817 170.662 26.1123 170.816 25.8908C170.972 25.6693 171.181 25.5007 171.445 25.3824C171.709 25.264 172.004 25.2062 172.331 25.2062C172.684 25.2062 172.996 25.2741 173.275 25.4126C173.552 25.551 173.778 25.7247 173.95 25.9386L173.353 26.5352C173.2 26.3615 173.041 26.2332 172.877 26.1501C172.711 26.067 172.522 26.0242 172.308 26.0242C172.044 26.0242 171.838 26.0771 171.687 26.1853C171.536 26.2936 171.463 26.4421 171.463 26.6359C171.463 26.7995 171.508 26.9304 171.601 27.0286C171.692 27.1267 171.813 27.2123 171.964 27.2803C172.115 27.3483 172.278 27.4137 172.459 27.4741C172.641 27.5345 172.822 27.605 173.001 27.6805C173.182 27.756 173.346 27.8542 173.497 27.975C173.648 28.0933 173.768 28.2494 173.859 28.4357C173.95 28.6245 173.997 28.8611 173.997 29.1455C173.997 29.6238 173.829 30.0039 173.489 30.2833C173.152 30.5627 172.694 30.7036 172.12 30.7036V30.7087Z" fill="#1A1A1A"/>
<path d="M66.1021 22.4197L61.9086 11.2838H64.909L68.0504 20.2826H66.7616L69.9509 11.2838H72.8859L68.647 22.4197H66.1021Z" fill="#121098"/>
<path d="M71.8513 22.4197L76.1708 11.2838H78.8868L83.1584 22.4197H80.2209L77.0014 13.0584H78.0234L74.7259 22.4197H71.8513ZM74.4742 20.4714V18.2412H80.6161V20.4714H74.4742Z" fill="#121098"/>
<path d="M84.1955 22.4197V11.2838H87.0071V22.4197H84.1955ZM86.4257 22.4197V20.0007H91.7973V22.4197H86.4257Z" fill="#121098"/>
<path d="M97.3098 22.5934C96.3684 22.5934 95.5377 22.397 94.8204 22.0044C94.103 21.6117 93.5467 21.0655 93.149 20.3632C92.7513 19.6609 92.5524 18.8655 92.5524 17.9769V11.2863H95.349V18.1808C95.349 18.5785 95.4345 18.9208 95.6082 19.2103C95.7819 19.4973 96.016 19.7188 96.3155 19.8698C96.6151 20.0208 96.9474 20.0963 97.3123 20.0963C97.6899 20.0963 98.0197 20.0208 98.3016 19.8698C98.5835 19.7188 98.81 19.4998 98.9762 19.2179C99.1423 18.9359 99.2279 18.5936 99.2279 18.1959V11.2863H102.055V17.992C102.055 18.8831 101.856 19.676 101.458 20.3707C101.06 21.068 100.507 21.6117 99.8018 22.0044C99.0945 22.397 98.2663 22.5934 97.3123 22.5934H97.3098Z" fill="#121098"/>
<path d="M103.842 22.4197V11.2838H106.654V22.4197H103.842ZM106.072 22.4197V20.0485H112.103V22.4197H106.072ZM106.072 17.8964V15.5881H111.537V17.8964H106.072ZM106.072 13.655V11.2838H112.008V13.655H106.072Z" fill="#121098"/>
<path d="M118.497 22.4197V20.0007H121.167C121.797 20.0007 122.343 19.8799 122.809 19.6407C123.274 19.3991 123.634 19.0417 123.883 18.5659C124.135 18.0902 124.261 17.5112 124.261 16.8316C124.261 16.162 124.133 15.5932 123.876 15.1275C123.619 14.6618 123.262 14.3069 122.801 14.0678C122.34 13.8261 121.797 13.7053 121.167 13.7053H118.371V11.2863H121.183C122.041 11.2863 122.831 11.4197 123.554 11.6865C124.276 11.9534 124.905 12.3334 125.439 12.8243C125.973 13.3151 126.388 13.9016 126.688 14.5838C126.987 15.2634 127.136 16.0186 127.136 16.8442C127.136 17.6824 126.987 18.4401 126.688 19.1222C126.388 19.8018 125.973 20.3883 125.439 20.8817C124.905 21.3726 124.279 21.7526 123.561 22.0195C122.844 22.2863 122.061 22.4197 121.213 22.4197H118.497ZM116.596 22.4197V11.2838H119.408V22.4197H116.596Z" fill="#121098"/>
<path d="M130.778 17.9115V15.9003H132.897C133.358 15.9003 133.71 15.787 133.957 15.563C134.204 15.3389 134.327 15.0318 134.327 14.6442C134.327 14.2666 134.204 13.962 133.957 13.7254C133.71 13.4888 133.358 13.373 132.897 13.373H130.778V11.2838H133.29C134.043 11.2838 134.707 11.4248 135.276 11.7067C135.847 11.9886 136.293 12.3762 136.618 12.8696C136.942 13.3604 137.104 13.9369 137.104 14.5964C137.104 15.2559 136.937 15.8348 136.608 16.3307C136.278 16.8291 135.82 17.2167 135.233 17.4936C134.647 17.7705 133.962 17.9089 133.177 17.9089H130.773L130.778 17.9115ZM128.548 22.4197V11.2838H131.359V22.4197H128.548ZM134.579 22.4197L131.344 17.6446L133.874 17.033L137.831 22.4197H134.579Z" fill="#121098"/>
<path d="M138.74 22.4197V11.2838H141.551V22.4197H138.74Z" fill="#121098"/>
<path d="M146.908 22.4197L142.714 11.2838H145.712L148.854 20.2826H147.567L150.754 11.2838H153.692L149.45 22.4197H146.908Z" fill="#121098"/>
<path d="M154.87 22.4197V11.2838H157.681V22.4197H154.87ZM157.1 22.4197V20.0485H163.131V22.4197H157.1ZM157.1 17.8964V15.5881H162.565V17.8964H157.1ZM157.1 13.655V11.2838H163.035V13.655H157.1Z" fill="#121098"/>
<path d="M166.947 17.9115V15.9003H169.066C169.527 15.9003 169.879 15.787 170.126 15.563C170.373 15.3389 170.496 15.0318 170.496 14.6442C170.496 14.2666 170.373 13.962 170.126 13.7254C169.879 13.4888 169.527 13.373 169.066 13.373H166.947V11.2838H169.459C170.212 11.2838 170.876 11.4248 171.445 11.7067C172.016 11.9886 172.462 12.3762 172.787 12.8696C173.111 13.3604 173.273 13.9369 173.273 14.5964C173.273 15.2559 173.106 15.8348 172.777 16.3307C172.447 16.8291 171.989 17.2167 171.402 17.4936C170.816 17.7705 170.131 17.9089 169.346 17.9089H166.942L166.947 17.9115ZM164.717 22.4197V11.2838H167.528V22.4197H164.717ZM170.748 22.4197L167.513 17.6446L170.043 17.033L174 22.4197H170.748Z" fill="#121098"/>
</svg>
