<svg width="116" height="20" viewBox="0 0 116 20" fill="none" xmlns="http://www.w3.org/2000/svg">
<path fill-rule="evenodd" clip-rule="evenodd" d="M31.0594 0.356934L21.1941 19.6427H11.9277L16.0563 11.6498H15.8711C12.465 16.0714 7.38298 18.9822 0.141907 19.6427V11.7605C0.141907 11.7605 4.7742 11.4869 7.49739 8.62385H0.141907V0.357086H8.40867V7.15638L8.59421 7.15562L11.9724 0.357086H18.2243V7.11327L18.4097 7.11297L21.9146 0.356934H31.0594Z" fill="black"/>
<path d="M84.8563 17.514H87.5187V2.23194H84.8563V17.514Z" fill="black"/>
<path fill-rule="evenodd" clip-rule="evenodd" d="M70.1787 17.358C70.7573 17.5985 71.3457 17.7188 71.9439 17.7188C72.9321 17.7188 73.8163 17.4783 74.5965 16.9971C75.3767 16.516 75.9814 15.8529 76.4105 15.0077C76.8396 14.156 77.0541 13.1904 77.0541 12.1112C77.0541 11.0319 76.8331 10.0664 76.391 9.21473C75.9488 8.36303 75.3344 7.70311 74.5477 7.23499C73.761 6.76038 72.867 6.52632 71.8658 6.53281C71.2287 6.53281 70.6176 6.65635 70.0323 6.90341C69.4472 7.15047 68.9596 7.50156 68.5695 7.95667C68.5394 7.99132 68.5102 8.02632 68.4818 8.06166V2.24175H65.8096V17.5141H68.4623L68.4569 16.0874C68.5255 16.1715 68.5989 16.2536 68.6768 16.334C69.0993 16.7696 69.6 17.1109 70.1787 17.358ZM72.9094 14.8907C72.4737 15.1572 71.9763 15.2905 71.4172 15.2905C70.8645 15.2905 70.3574 15.1539 69.8958 14.8809C69.4342 14.6013 69.0669 14.221 68.7938 13.7398C68.5272 13.2588 68.3939 12.7126 68.3939 12.1014C68.3875 11.4903 68.5174 10.9442 68.784 10.463C69.0571 9.97543 69.4244 9.59832 69.8861 9.33176C70.3477 9.0587 70.8581 8.92541 71.4172 8.93191C71.9763 8.92541 72.4737 9.05544 72.9094 9.32201C73.3514 9.58207 73.6895 9.95592 73.9236 10.4435C74.1641 10.9247 74.2844 11.4773 74.2844 12.1014C74.2844 12.7256 74.1641 13.2783 73.9236 13.7593C73.6895 14.2405 73.3514 14.6176 72.9094 14.8907Z" fill="black"/>
<path d="M34.9164 3.15846H37.9592L40.6811 13.0988L43.5766 3.15846H46.1123L49.2525 12.8993L51.8662 3.15846H54.6553L50.5399 17.5141H47.9165L44.7231 7.998L41.7919 17.5141H39.1393L34.9164 3.15846Z" fill="black"/>
<path fill-rule="evenodd" clip-rule="evenodd" d="M59.149 17.7675C58.0891 17.7741 57.1334 17.54 56.2817 17.0654C55.4365 16.5842 54.7702 15.9178 54.2824 15.0661C53.8014 14.2144 53.5608 13.2424 53.5608 12.1501C53.5608 11.0904 53.8079 10.1314 54.3021 9.27321C54.7961 8.41499 55.4657 7.74532 56.311 7.2642C57.1562 6.78309 58.0989 6.54253 59.1392 6.54253C60.3095 6.54253 61.3334 6.80259 62.2112 7.32272C63.0954 7.84284 63.7553 8.58078 64.191 9.53651C64.633 10.4857 64.7924 11.5748 64.6688 12.8036H56.3152C56.3385 13.2931 56.4607 13.7385 56.6816 14.1397C56.9287 14.5817 57.2732 14.9263 57.7153 15.1734C58.1575 15.4205 58.6515 15.544 59.1978 15.544C59.6138 15.5375 60.0007 15.466 60.3582 15.3295C60.7159 15.1865 61.0181 14.9947 61.2652 14.754C61.5188 14.5135 61.6976 14.2405 61.8017 13.9349H64.5908C64.4218 14.6826 64.0837 15.349 63.5766 15.9341C63.0694 16.5128 62.4323 16.9646 61.6651 17.2897C60.8979 17.6148 60.0592 17.7741 59.149 17.7675ZM56.6914 10.1217C56.5356 10.3934 56.4276 10.6859 56.3675 10.9994H61.9049C61.8648 10.6034 61.7425 10.2426 61.5383 9.91686C61.3042 9.53327 60.9857 9.23744 60.5826 9.02939C60.1795 8.81484 59.7244 8.70756 59.2173 8.70756C58.6776 8.70756 58.1868 8.83109 57.7446 9.07815C57.3025 9.32521 56.9514 9.67306 56.6914 10.1217Z" fill="black"/>
<path d="M79.0147 6.76686C79.0147 5.89564 79.2129 5.12195 79.6095 4.44578C80.0061 3.76311 80.562 3.23322 81.2772 2.85613C81.9988 2.47254 82.8409 2.27424 83.803 2.26124V4.63107C83.3544 4.63757 82.9708 4.73185 82.6523 4.9139C82.3402 5.08944 82.0996 5.34625 81.9306 5.68433C81.775 5.99558 81.691 6.35642 81.6787 6.76686H83.7445V9.01966H81.6771V17.5141H79.0147V9.01966H77.2982V6.76686H79.0147Z" fill="black"/>
<path fill-rule="evenodd" clip-rule="evenodd" d="M94.2865 17.748C93.2007 17.748 92.2287 17.5107 91.3705 17.0361C90.5188 16.5549 89.8492 15.8918 89.3615 15.0466C88.8804 14.1949 88.6398 13.2294 88.6398 12.1501C88.6398 11.0644 88.8804 10.0956 89.3615 9.2439C89.8492 8.38568 90.5188 7.71927 91.3705 7.24466C92.2287 6.77003 93.2007 6.53272 94.2865 6.53272C95.3787 6.53272 96.354 6.77003 97.2122 7.24466C98.0769 7.71927 98.7499 8.38243 99.231 9.23415C99.712 10.0859 99.9559 11.0578 99.9624 12.1501C99.9559 13.2294 99.712 14.1949 99.231 15.0466C98.7563 15.8918 98.0867 16.5549 97.2219 17.0361C96.3573 17.5107 95.3787 17.748 94.2865 17.748ZM94.2865 15.3002C94.8586 15.3002 95.3658 15.1701 95.8078 14.9101C96.25 14.6435 96.5913 14.2729 96.8319 13.7983C97.0724 13.3172 97.1927 12.7677 97.1927 12.1501C97.1927 11.526 97.0724 10.9733 96.8319 10.4922C96.5913 10.0111 96.25 9.6405 95.8078 9.38043C95.3658 9.11387 94.8586 8.98058 94.2865 8.98058C93.7209 8.98058 93.217 9.11387 92.7748 9.38043C92.3393 9.6405 92.0011 10.0111 91.7606 10.4922C91.5201 10.9733 91.4031 11.526 91.4095 12.1501C91.4095 12.7677 91.5298 13.3172 91.7704 13.7983C92.0174 14.2729 92.3555 14.6435 92.7846 14.9101C93.2202 15.1701 93.7209 15.3002 94.2865 15.3002Z" fill="black"/>
<path d="M102.839 6.76683H99.8747L103.083 17.514H105.677L107.788 10.6498L110.066 17.514H112.621L115.84 6.76683H113.158L111.332 13.4563L109.314 6.76683H106.721L104.713 13.6036L102.839 6.76683Z" fill="black"/>
</svg>
